<svg id="Layer_1" data-name="Layer 1" xmlns="http://www.w3.org/2000/svg" xmlns:xlink="http://www.w3.org/1999/xlink" viewBox="0 0 49.53 48.77"><defs><clipPath id="clip-path"><polygon points="-6.02 56.04 56.02 56.04 56.02 -6 -6.02 -6 -6.02 56.04 -6.02 56.04" fill="none" clip-rule="evenodd"/></clipPath><clipPath id="clip-path-2" transform="translate(-0.3 -0.32)"><polygon points="-6.02 -6 56.02 -6 56.02 56.04 -6.02 56.04 -6.02 -6 -6.02 -6" fill="none" clip-path="url(#clip-path)" clip-rule="evenodd"/></clipPath><clipPath id="clip-path-3" transform="translate(-0.3 -0.32)"><polygon points="-6.02 56.04 56.02 56.04 56.02 -6 -6.02 -6 -6.02 56.04 -6.02 56.04" fill="none"/></clipPath></defs><g clip-path="url(#clip-path-2)"><g clip-path="url(#clip-path-3)"><path d="M25.06.32a24.75,24.75,0,0,0-6,48.77,3.73,3.73,0,0,1-.19-1.2V43.65H15.76a4.3,4.3,0,0,1-3.93-2.08c-.81-1.5-.95-3.8-3-5.21-.6-.47-.14-1,.54-.93A6.49,6.49,0,0,1,12.72,38c1,1.29,1.46,1.59,3.3,1.59a24.89,24.89,0,0,0,3.49-.25,7.71,7.71,0,0,1,3.28-4c-8.25-.85-12.19-5-12.19-10.52A10.13,10.13,0,0,1,13.36,18c-.57-1.94-1.29-5.89.22-7.4a8.62,8.62,0,0,1,6.49,3.06,18.65,18.65,0,0,1,12,0,8.57,8.57,0,0,1,6.49-3.06c1.51,1.51.79,5.48.21,7.42a10.09,10.09,0,0,1,2.74,6.66c0,5.56-3.93,9.66-12.16,10.52,2.27,1.18,3.92,4.5,3.92,7v5.65a4.34,4.34,0,0,1-.07.55A24.75,24.75,0,0,0,25.06.32Z" transform="translate(-0.3 -0.32)" fill="#061632"/></g></g></svg>