<svg id="Layer_1" data-name="Layer 1" xmlns="http://www.w3.org/2000/svg" xmlns:xlink="http://www.w3.org/1999/xlink" viewBox="0 0 49.86 49.86"><defs><clipPath id="clip-path"><polygon points="-4.89 55 54.6 55 54.6 -4.49 -4.89 -4.49 -4.89 55 -4.89 55" fill="none" clip-rule="evenodd"/></clipPath><clipPath id="clip-path-2" transform="translate(0.03 -0.37)"><polygon points="-4.89 -4.49 54.6 -4.49 54.6 55 -4.89 55 -4.89 -4.49 -4.89 -4.49" fill="none" clip-path="url(#clip-path)" clip-rule="evenodd"/></clipPath><clipPath id="clip-path-3" transform="translate(0.03 -0.37)"><polygon points="-4.89 55 54.6 55 54.6 -4.49 -4.89 -4.49 -4.89 55 -4.89 55" fill="none"/></clipPath></defs><g clip-path="url(#clip-path-2)"><g clip-path="url(#clip-path-3)"><path d="M43.9.37h-38A5.94,5.94,0,0,0,0,6.31v38a5.94,5.94,0,0,0,5.94,5.94h38a5.94,5.94,0,0,0,5.94-5.94v-38A5.94,5.94,0,0,0,43.9.37Zm-28.49,19V41.93H8.28V19.37ZM8.28,12.8c0-1.66,1.43-2.93,3.57-2.93s3.47,1.27,3.56,2.93-1.33,3-3.56,3-3.57-1.34-3.57-3ZM41.53,41.93H34.4V30.05c0-2.37-1.18-4.74-4.15-4.79h-.1c-2.87,0-4.06,2.44-4.06,4.79V41.93H19V19.37h7.12v3a8.89,8.89,0,0,1,6.9-3c4.71,0,8.54,3.24,8.54,9.81V41.93Z" transform="translate(0.03 -0.37)" fill="#061632"/></g></g></svg>