<svg xmlns="http://www.w3.org/2000/svg" xmlns:xlink="http://www.w3.org/1999/xlink" viewBox="0 0 2862.76 2841.31"><defs><linearGradient id="linear-gradient" x1="-5865.72" y1="3240.68" x2="-5491.11" y2="2276.31" gradientTransform="matrix(-1, 0, 0, 1, -3446.32, 0)" gradientUnits="userSpaceOnUse"><stop offset="0" stop-color="#febbba"/><stop offset="1" stop-color="#ff928e"/></linearGradient><linearGradient id="linear-gradient-2" x1="-5871.41" y1="6342.63" x2="-4633.28" y2="-8127.98" xlink:href="#linear-gradient"/><linearGradient id="linear-gradient-3" x1="-5826.9" y1="1715.06" x2="-5668.12" y2="1715.06" xlink:href="#linear-gradient"/><linearGradient id="linear-gradient-4" x1="-5653.49" y1="1360.77" x2="-5540.72" y2="1360.77" gradientTransform="matrix(-1, 0, 0, 1, -3875.69, -442.18)" xlink:href="#linear-gradient"/><linearGradient id="linear-gradient-5" x1="-4991.83" y1="1425.07" x2="-5967.19" y2="1983.83" xlink:href="#linear-gradient"/><linearGradient id="linear-gradient-6" x1="-4894.91" y1="1594.24" x2="-5870.27" y2="2153" xlink:href="#linear-gradient"/><linearGradient id="linear-gradient-7" x1="-5465.66" y1="1360.73" x2="-5684.81" y2="1040.27" xlink:href="#linear-gradient"/></defs><g id="Illustration"><path d="M2960.3,2883.83C2901.52,2945,2845.9,2984.4,2802,3015.54,2285.38,3381.7,1674.15,3275,1544.24,3248.9c-191.83-38.49-562.63-112.89-830.71-424.33C307.94,2353.38,371.09,1611,685.69,1121c57.55-89.64,361.52-587.13,979.34-666.91,373.9-48.29,809.75,49.09,1125.38,310.32C3452.94,1312.78,3405.77,2420.54,2960.3,2883.83Z" transform="translate(-429.38 -442.18)" fill="#eff3ff"/><path d="M725.79,589.3c-9.29,438-39.39,1949-25,2484.46,1.52,56.73,40.39,102.25,88.88,104.11,239.82,9.18,1119,32.45,1511.24,13.2,81.7-4,146.67-81.43,148.37-177.07,8.15-459.79,26.14-1753-16.61-2345.39-5.12-71-52.74-127.5-113.33-134.6-261.17-30.56-1144.11-105.27-1483-79.55C775.2,459.1,727.3,517.67,725.79,589.3Z" transform="translate(-429.38 -442.18)" fill="#001333" stroke="#fff" stroke-miterlimit="10" stroke-width="3"/><path d="M832.79,723.69c-12.91,353.57-53.62,1529.8-40.7,1964.74,1.89,63.58,44.72,115,99,118.7,223.5,15.3,986,49,1313.84,18.33,59-5.53,105.35-61.38,108.54-130.56,16.61-360.71,64.31-1455.94,51.92-1886-2-68.61-47.41-124.64-105.85-130.78-241.79-25.4-1052.06-85.83-1330.63-68.05C876.62,613.4,835,662.48,832.79,723.69Z" transform="translate(-429.38 -442.18)" fill="#eff3ff"/><path d="M1432.31,541.35h0c0,13.44,9,24.53,20.42,25.23,56.65,3.47,216.21,13.29,287.53,18.13,14.06,1,25.09-13.83,22.43-30l-.46-2.76c-1.82-11-9.65-19.35-19.21-20.37-48.21-5.17-193.66-19.5-290-15.47C1441.41,516.58,1432.31,527.8,1432.31,541.35Z" transform="translate(-429.38 -442.18)" fill="#fff"/><circle cx="1114.39" cy="688.56" r="334.5" fill="#001333"/><path d="M1646.18,1004.35c0,56.64-45.92,117.79-102.56,117.79s-102.55-61.15-102.55-117.79,45.91-96.82,102.55-96.82S1646.18,947.71,1646.18,1004.35Z" transform="translate(-429.38 -442.18)" fill="#fff"/><path d="M1416.35,1340.21h250.36a60.6,60.6,0,0,0,57.71-42.14l13.47-42.1c9.87-30.83-6.17-64.21-36.57-75.33-101.89-37.25-207.24-32.47-315.16,3.44-30.24,10.06-47,42.4-38.67,73.15l10.37,38.24A60.61,60.61,0,0,0,1416.35,1340.21Z" transform="translate(-429.38 -442.18)" fill="#fff"/><g opacity="0.71"><rect x="528.39" y="1367.38" width="1234.32" height="189.9" rx="6.75" fill="#f1884d"/><rect x="521.73" y="1677.21" width="1234.32" height="189.9" rx="6.75" fill="#f1884d"/><rect x="721.9" y="1994.54" width="797.38" height="242.1" rx="8.33" fill="#001333"/></g><rect x="583.07" y="1410.39" width="735.19" height="105.5" rx="12" fill="#fff" opacity="0.75"/><g opacity="0.75"><circle cx="1037.98" cy="2209.06" r="43.31" transform="translate(-1195.74 123.19) rotate(-22.5)" fill="#fff"/><circle cx="727.44" cy="1769.1" r="43.31" fill="#fff"/><circle cx="1271.19" cy="2216.83" r="43.31" transform="translate(-1607.77 2502.51) rotate(-76.72)" fill="#fff"/><circle cx="960.65" cy="1776.87" r="43.31" fill="#fff"/><circle cx="1079.48" cy="1775.76" r="43.31" fill="#fff"/><circle cx="1198.31" cy="1777.98" r="43.31" fill="#fff"/></g><path d="M2122.28,2361.55,2255,2394.72l-33.17,248.79s49.76,49.76,66.34,116.1S2320,3104.53,2320,3104.53l31.49,19,3.82,15.89-91.59,123.16,15.19-98c2.41-15.56-1.77-47.12-.46-47.78-49.75-132.69-156.19-506.47-156.19-506.47Z" transform="translate(-429.38 -442.18)" fill="url(#linear-gradient)"/><path d="M2083.51,3141.16c1.44,0,2.85.09,4.29,0-6.41-80-35.71-432-65-564-33.17-149.28,49.76-447.83,49.76-447.83l149.28,149.28-82.93,282c56.83,85.25-9.27,584.48-7.85,584.26l-.09,1.11,21.64,29.75-2.63,16.13-132.19,78,52-84.47A94.77,94.77,0,0,0,2083.51,3141.16Z" transform="translate(-429.38 -442.18)" fill="url(#linear-gradient-2)"/><path d="M2251.41,1467.3s290.64,327.56,0,495.52l-29.61-21.44s144.29-138.18,0-307.32Z" transform="translate(-429.38 -442.18)" fill="url(#linear-gradient-3)"/><path d="M2009,3282.07h42.19a25.37,25.37,0,0,0,20.15-9.88c13.16-17.09,40.4-50.43,53.43-51.29,17.54-1.18,15.3,61.17,15.3,61.17h9.83l12.45-77.47a45.86,45.86,0,0,0-24.07-47.94h0s-4,29.65-25.75,42.76-88.46,60.08-88.46,60.08a60.39,60.39,0,0,0-17.14.46C1993.66,3262.36,1995.51,3282.07,2009,3282.07Z" transform="translate(-429.38 -442.18)" fill="#001333"/><path d="M2260.46,3277.27l38.88-16.36a25.38,25.38,0,0,0,14.75-16.93c5.5-20.85,17.68-62.15,29.35-68,15.72-7.88,37.83,50.46,37.83,50.46l9.06-3.81-18.57-76.25a45.85,45.85,0,0,0-40.77-34.85h0s7.8,28.88-7.15,49.4-58.25,89.69-58.25,89.69a60,60,0,0,0-15.62,7.07C2238.63,3265.06,2248,3282.51,2260.46,3277.27Z" transform="translate(-429.38 -442.18)" fill="#001333"/><path d="M2034.51,1876.94s4.88,29.89-2.27,112.08-41.31,275.16-34.35,459.79c0,0,97.11,22.63,265.85,11.91,0,0,71.2-288.26,53.86-397.85s-111.45-188.2-111.45-188.2Z" transform="translate(-429.38 -442.18)" fill="#001333"/><polygon points="1676.89 885.54 1665.02 1025.11 1777.8 1025.11 1749.76 812.06 1676.89 885.54" fill="url(#linear-gradient-4)"/><path d="M2240.58,1448c-38.92-2.15-125.94-6.12-187.59-2.76a71.61,71.61,0,0,0-66.28,56.87l-15,72.06a173.5,173.5,0,0,0,2.45,81.07l60.39,221.7s53.71,32.28,171.64-2.27c0,0,103.56-247,61.17-404.93A29.36,29.36,0,0,0,2240.58,1448Z" transform="translate(-429.38 -442.18)" fill="#f1884d"/><path d="M1989.66,1489.19C1973,1533,1958,1578.83,1941.92,1621.8c-8.19,21.51-16.51,42.6-25.4,62-4.5,9.64-9.44,18.5-14,26.54a116.63,116.63,0,0,1-12.31,17.61c-.52.45,1.23.8,1.81.83.35,0-11.23,1.9-14.78,2.49l-13.88-.08c-19.9-1-42.44-4.53-65.05-8.92-45.59-8.51-93-20.44-141.67-29.47l-.38-.07a17.15,17.15,0,0,0-14.46,29.74c19.63,17.28,40.43,31.47,62,45.28,10.86,6.64,21.92,13.15,33.15,19.4,11.46,5.84,22.94,11.73,34.87,17.17,24,10.47,48.84,20.11,77.43,26.3,7.51,1.26,14.93,2.58,22.66,3.62,8.67.3,16.54,1.07,26,.52,5-.5,10.08-1.12,15.12-1.85a68.81,68.81,0,0,0,7.92-1.42q5.19-1.56,10.3-3.48c7.1-2.54,11.69-5.63,17.45-8.84,4.79-3.15,9.16-6.45,13.39-9.84,15.63-13.31,25.34-26.52,33.89-39.21a309.41,309.41,0,0,0,21.36-37.82,515.49,515.49,0,0,0,29.39-74.29c15.63-49.7,26.23-98.54,30.7-150.42a45.17,45.17,0,0,0-87.22-20Z" transform="translate(-429.38 -442.18)" fill="url(#linear-gradient-5)"/><path d="M1672,1715.06l-20.13-47.77-105.92-26.39s-8.47,18.36,36,26.39c0,0-15.89,17.56-7.42,38.22S1673,1746.85,1672,1715.06Z" transform="translate(-429.38 -442.18)" fill="url(#linear-gradient-6)"/><path d="M2058.52,1166.53c-4,2.37-35.75,114.27-9.17,161.19s107.78-5.63,129.78-73.48S2165.79,1103.27,2058.52,1166.53Z" transform="translate(-429.38 -442.18)" fill="url(#linear-gradient-7)"/><path d="M2269,1254.24c18.21,89.23,78.55,64.81,121.29,104.51,69.26,64.33,168.35-2,264.68,59,69.54,44,103,156.62,69.68,247.53-46.23,125.92-204.19,177.71-286,139.36-78.24-36.66-67.1-146.44-172.36-188.86-44.69-18-66.75-6.31-93.51-33-46.86-46.73-34.21-137.42-29.34-172.35,10.57-75.81,36-89.54,23.83-122.86-23.62-64.8-133.83-51.43-143-97.18-8.36-41.66,71.52-120.62,146.69-108.18C2287.16,1101.44,2260.83,1214.49,2269,1254.24Z" transform="translate(-429.38 -442.18)" fill="#001333"/><path d="M2689.86,1643.94a3,3,0,0,0,3-2.33c14.89-61.82,8.14-112.52-20.09-150.69-46.84-63.36-137.87-69.63-138.78-69.68a3.09,3.09,0,0,0-3.22,2.86,3,3,0,0,0,2.85,3.22c.89,0,89.16,6.18,134.28,67.25,27.09,36.65,33.49,85.65,19,145.61a3.06,3.06,0,0,0,2.25,3.68A3.43,3.43,0,0,0,2689.86,1643.94Z" transform="translate(-429.38 -442.18)" fill="#fff" opacity="0.6"/><path d="M2391.71,1700.53a1.74,1.74,0,0,0,.39,0,1.53,1.53,0,0,0,1.09-1.86c-14.51-55.65-40-94.3-75.64-114.88-26-15-50.27-16.37-71.72-17.6-20.67-1.19-38.53-2.22-52.91-15-29.71-26.42-28-90,5.12-188.82a1.52,1.52,0,0,0-2.89-1c-33.53,100.13-35,164.74-4.25,192.05,15.17,13.49,33.51,14.55,54.76,15.77s45,2.59,70.37,17.2c34.95,20.15,59.92,58.18,74.21,113A1.52,1.52,0,0,0,2391.71,1700.53Z" transform="translate(-429.38 -442.18)" fill="#fff" opacity="0.72"/><path d="M2225.86,1232.1a1.4,1.4,0,0,0,.49-.08,1.52,1.52,0,0,0,1-1.93c-11.53-34.3-44.75-29.2-79.95-23.79-22.28,3.42-45.31,7-64.85,1.17-14.57-4.32-23.23-11-25.74-19.91-4.27-15.14,10.7-32,10.85-32.19a1.52,1.52,0,0,0-2.26-2c-.67.74-16.24,18.27-11.52,35,2.8,10,12.16,17.37,27.8,22,20.21,6,43.57,2.4,66.18-1.07,35.33-5.43,65.88-10.13,76.6,21.76A1.52,1.52,0,0,0,2225.86,1232.1Z" transform="translate(-429.38 -442.18)" fill="#fff" opacity="0.72"/><path d="M2561.54,885.59c0-157,133-284.31,292.64-284.29,154.9,0,277.16,120.59,277.16,269.32s-122.26,275.72-277.16,283.88C2694.55,1162.91,2561.54,1042.61,2561.54,885.59Z" transform="translate(-429.38 -442.18)" fill="#f1884d"/><path d="M2588.24,884.89c0-142.32,120.55-257.67,265.21-257.65,140.39,0,251.19,109.29,251.19,244.08s-110.8,249.88-251.19,257.28C2708.79,1136.22,2588.24,1027.2,2588.24,884.89Z" transform="translate(-429.38 -442.18)" fill="#f1884d"/><path d="M2767.53,868.75h-23.77V774a73.74,73.74,0,0,1,64.78-73.13l48.6-5.91a73.67,73.67,0,0,1,82.55,73.13v82.69h-23.77V768.12A49.89,49.89,0,0,0,2860,718.59l-48.59,5.9A50,50,0,0,0,2767.53,774Z" transform="translate(-429.38 -442.18)" fill="#fff"/><path d="M2736.73,847.48l208.35-11.54a14.76,14.76,0,0,1,15.58,14.74v165.06a14.76,14.76,0,0,1-14.76,14.76H2742.56a14.76,14.76,0,0,1-14.76-14.28l-5-153.52A14.77,14.77,0,0,1,2736.73,847.48Z" transform="translate(-429.38 -442.18)" fill="#fff"/><path d="M2875.69,983.22,2863.08,947a12.12,12.12,0,0,1,2.76-12.51,34.33,34.33,0,1,0-46.05,2.56,12.24,12.24,0,0,1,4,13.52l-11.37,32.69A12.24,12.24,0,0,0,2824,999.47h40.19A12.23,12.23,0,0,0,2875.69,983.22Z" transform="translate(-429.38 -442.18)" fill="#f1884d"/><path d="M1194.11,2706.4a5.68,5.68,0,0,0-1.17-6.25l-46.2-45.92a305.09,305.09,0,0,0,2.88-94.11l48.85-42.48a5.65,5.65,0,0,0,1.55-6.15l-26.91-74.95a5.24,5.24,0,0,0-5-3.56l-63.47,1.76a286.33,286.33,0,0,0-61.37-68.8l5.87-66.43a5.55,5.55,0,0,0-3-5.51l-69.44-33.14a5,5,0,0,0-6,1.22l-43.61,48.41a263.81,263.81,0,0,0-89.62-3.25l-40.55-51.41a5.08,5.08,0,0,0-5.86-1.64l-71.3,28.08a5.46,5.46,0,0,0-3.37,5.28l1.82,66.66a281.81,281.81,0,0,0-65.36,64.3l-63.26-6.32a5.18,5.18,0,0,0-5.24,3.19l-31.39,72.85a5.69,5.69,0,0,0,1.18,6.25l46.2,45.92a304.84,304.84,0,0,0-2.89,94.12L548.57,2677a5.67,5.67,0,0,0-1.55,6.15l26.91,75a5.26,5.26,0,0,0,5,3.56l63.46-1.76a286.37,286.37,0,0,0,61.38,68.8l-5.87,66.43a5.54,5.54,0,0,0,3,5.51l69.44,33.14a5,5,0,0,0,5.94-1.22L820,2884.14a263.57,263.57,0,0,0,89.62,3.25l40.56,51.41a5.07,5.07,0,0,0,5.86,1.64l71.29-28.08a5.47,5.47,0,0,0,3.38-5.28l-1.83-66.66a281.85,281.85,0,0,0,65.37-64.3l63.26,6.32a5.16,5.16,0,0,0,5.23-3.19Z" transform="translate(-429.38 -442.18)" fill="#f1884d"/><path d="M942.13,2561.68c16.63,35.15,6.7,78.79-24.84,101.77-34.67,25.26-82.5,16.14-106.63-20.33a83.18,83.18,0,0,1-12.54-60.18,80.12,80.12,0,0,1,31.64-51.76c34.66-25.26,82.49-16.14,106.63,20.33A82.58,82.58,0,0,1,942.13,2561.68Zm-121.25,62.88a63.21,63.21,0,0,0,4.44,7.88c18.5,28,55.18,34.95,81.76,15.59s33.16-57.88,14.64-85.84-55.18-35-81.75-15.59a61.48,61.48,0,0,0-24.26,39.69A64.05,64.05,0,0,0,820.88,2624.56Z" transform="translate(-429.38 -442.18)" fill="#fff" opacity="0.7"/><path d="M1040.47,2508.68q4.29,9.06,7.74,18.65h0q1.1,3,2.08,6.08a207.07,207.07,0,0,1,7.44,30.72c0,.14,0,.28.07.42.06.4.13.8.19,1.21.12.78.23,1.57.34,2.35a4.73,4.73,0,0,1-2.42,4.89,4.62,4.62,0,0,1-1.33.44,4.53,4.53,0,0,1-5.08-4,197.84,197.84,0,0,0-9.65-38.85c-22.44-62.54-73.29-105.32-131.33-118.24a170.24,170.24,0,0,0-99.88,7.89,178.4,178.4,0,0,0-16.92,7.71c-36.85,19.18-66,50.84-83.21,90.72a195.84,195.84,0,0,0-4.37,144.14c35,97.34,138.65,146.8,231.21,110.35a174.56,174.56,0,0,0,16.7-7.62,180.15,180.15,0,0,0,60.51-51.34,4.59,4.59,0,0,1,1.51-1.28,4.29,4.29,0,0,1,4.77.54,4.85,4.85,0,0,1,.72,6.59A189.06,189.06,0,0,1,956,2774a183.57,183.57,0,0,1-17.54,8c-97.17,38.27-206.06-13.73-242.72-115.84a205.53,205.53,0,0,1,4.59-151.32c18-41.87,48.67-75.11,87.35-95.24a187.66,187.66,0,0,1,17.77-8.1c47.07-18.54,98.24-16.7,144.08,5.18C989.49,2435.72,1021.21,2468,1040.47,2508.68Z" transform="translate(-429.38 -442.18)" fill="#fff" opacity="0.7"/><path d="M1562.19,3050.67a3.8,3.8,0,0,0-.78-4.18l-30.92-30.72a203.8,203.8,0,0,0,1.93-63l32.69-28.42a3.8,3.8,0,0,0,1-4.12l-18-50.15a3.51,3.51,0,0,0-3.37-2.38l-42.47,1.18a191.67,191.67,0,0,0-41.06-46.05l3.92-44.45a3.69,3.69,0,0,0-2-3.68l-46.47-22.18a3.35,3.35,0,0,0-4,.82l-29.19,32.39a176.61,176.61,0,0,0-60-2.18l-27.14-34.4a3.4,3.4,0,0,0-3.92-1.09l-47.71,18.79a3.66,3.66,0,0,0-2.26,3.53l1.22,44.61a188.67,188.67,0,0,0-43.74,43l-42.33-4.23a3.46,3.46,0,0,0-3.5,2.13l-21,48.76a3.82,3.82,0,0,0,.79,4.18l30.92,30.72a203.8,203.8,0,0,0-1.93,63L1130.23,3031a3.76,3.76,0,0,0-1,4.11l18,50.15a3.49,3.49,0,0,0,3.37,2.38l42.46-1.17a192.06,192.06,0,0,0,41.07,46l-3.92,44.45a3.69,3.69,0,0,0,2,3.68l46.46,22.18a3.37,3.37,0,0,0,4-.81l29.18-32.4a176.67,176.67,0,0,0,60,2.18l27.14,34.4a3.4,3.4,0,0,0,3.92,1.09l47.71-18.79a3.67,3.67,0,0,0,2.26-3.53l-1.23-44.61a188.28,188.28,0,0,0,43.74-43l42.33,4.23a3.46,3.46,0,0,0,3.51-2.13Z" transform="translate(-429.38 -442.18)" fill="#f1884d"/><path d="M1394.44,2953.48a56.92,56.92,0,0,1,4.59,34,54.57,54.57,0,0,1-21.55,35.26c-23.61,17.21-56.19,11-72.63-13.84s-10.6-59.06,13-76.26a49.76,49.76,0,0,1,39-8.87,51.79,51.79,0,0,1,33.62,22.72A56.23,56.23,0,0,1,1394.44,2953.48Zm-81.14,42.06a40.2,40.2,0,0,0,2.87,5.1c12.09,18.27,36.06,22.84,53.43,10.18a40.18,40.18,0,0,0,15.85-25.93,41.75,41.75,0,0,0-6.28-30.16h0a38.13,38.13,0,0,0-24.73-16.71,36.61,36.61,0,0,0-28.7,6.52C1309.94,2956.05,1305,2977.92,1313.3,2995.54Z" transform="translate(-429.38 -442.18)" fill="#fff" opacity="0.7"/><path d="M1462.94,2916.68q2.91,6.17,5.28,12.73a142.93,142.93,0,0,1,6.8,26.9l.18,1.23a7.34,7.34,0,0,1-3.74,7.55,6.56,6.56,0,0,1-2.06.67,7,7,0,0,1-7.84-6.11,127.29,127.29,0,0,0-6.25-25.15h0c-.16-.45-.32-.89-.49-1.33a121.19,121.19,0,0,0-33-48.75,116.59,116.59,0,0,0-26.38-17.7l-.23-.12-.72-.34a110.36,110.36,0,0,0-88.85-3.2,116.66,116.66,0,0,0-11,5c-23.86,12.42-42.74,32.91-53.87,58.74a126.76,126.76,0,0,0-2.83,93.3c11,30.49,32.56,54.75,60.83,68.25a110.36,110.36,0,0,0,88.85,3.19,112,112,0,0,0,10.81-4.93,116.61,116.61,0,0,0,39.17-33.23,6.87,6.87,0,0,1,2.34-2,6.61,6.61,0,0,1,7.35.82,7.49,7.49,0,0,1,1.12,10.18,130.55,130.55,0,0,1-43.82,37.2,128.13,128.13,0,0,1-12.1,5.51,123.48,123.48,0,0,1-99.41-3.57c-31.62-15.1-55.81-42.18-68-76.35a141.78,141.78,0,0,1,3.16-104.39c12.44-28.89,33.58-51.82,60.27-65.71a130.47,130.47,0,0,1,12.25-5.59C1363.63,2824.73,1433.61,2854.73,1462.94,2916.68Z" transform="translate(-429.38 -442.18)" fill="#fff" opacity="0.7"/></g></svg>