<svg id="Layer_1" data-name="Layer 1" xmlns="http://www.w3.org/2000/svg" xmlns:xlink="http://www.w3.org/1999/xlink" viewBox="0 0 195.2 166.56"><defs><clipPath id="clip-path" transform="translate(-52.39 -66.71)"><polygon points="52.32 233.34 247.68 233.34 247.68 66.66 52.32 66.66 52.32 233.34 52.32 233.34" fill="none" clip-rule="evenodd"/></clipPath></defs><path d="M138.58,120.5,61.69,153.62c-11.32,9.87.63,27.76,13.64,28.5L139.77,158l-1.19-37.53Z" transform="translate(-52.39 -66.71)" fill="#1d1d26" fill-rule="evenodd"/><path d="M138.58,120.5,61.69,153.62c-11.32,9.87.63,27.76,13.64,28.5L139.77,158l-1.19-37.53Z" transform="translate(-52.39 -66.71)" fill="none" stroke="#1d1d26" stroke-linecap="round" stroke-linejoin="round" stroke-width="3"/><g clip-path="url(#clip-path)"><path d="M137.78,137.58,85.1,159.32c-6,5.22,10.31,11.2,19.2,10.89l34.11-12.76-.63-19.87Z" transform="translate(-52.39 -66.71)" fill="#fff" fill-rule="evenodd"/><path d="M137.78,137.58,85.1,159.32c-6,5.22,10.31,11.2,19.2,10.89l34.11-12.76-.63-19.87Z" transform="translate(-52.39 -66.71)" fill="none" stroke="#1d1d26" stroke-linecap="round" stroke-linejoin="round" stroke-width="0.25"/><g clip-path="url(#clip-path)"><path d="M142.34,189.08,62.92,153.2c-12.81.62-12,26.53,2.58,39.63l85.07,38.95L150,192.32l-7.66-3.24Z" transform="translate(-52.39 -66.71)" fill="#1d1d26" fill-rule="evenodd"/><path d="M142.34,189.08,62.92,153.2c-12.81.62-12,26.53,2.58,39.63l85.07,38.95L150,192.32l-7.66-3.24Z" transform="translate(-52.39 -66.71)" fill="none" stroke="#1d1d26" stroke-linecap="round" stroke-linejoin="round" stroke-width="3"/><g clip-path="url(#clip-path)"><path d="M141.06,199.57,77.24,170.69c-9.95-.26-7.95,17.54,4.14,27.31l68.4,31.27-.63-26.19-8.09-3.51Z" transform="translate(-52.39 -66.71)" fill="#fff" fill-rule="evenodd"/><g clip-path="url(#clip-path)"><path d="M161.4,179.49l76.9-33.12c11.32-9.87-.63-27.76-13.65-28.5L160.22,142l1.18,37.53Z" transform="translate(-52.39 -66.71)" fill="#1d1d26" fill-rule="evenodd"/><path d="M161.4,179.49l76.9-33.12c11.32-9.87-.63-27.76-13.65-28.5L160.22,142l1.18,37.53Z" transform="translate(-52.39 -66.71)" fill="none" stroke="#1d1d26" stroke-linecap="round" stroke-linejoin="round" stroke-width="3"/><g clip-path="url(#clip-path)"><path d="M162.2,162.41l52.69-21.74c6-5.22-10.31-11.2-19.2-10.89l-34.12,12.76.63,19.87Z" transform="translate(-52.39 -66.71)" fill="#fff" fill-rule="evenodd"/><path d="M162.2,162.41l52.69-21.74c6-5.22-10.31-11.2-19.2-10.89l-34.12,12.76.63,19.87Z" transform="translate(-52.39 -66.71)" fill="none" stroke="#1d1d26" stroke-linecap="round" stroke-linejoin="round" stroke-width="0.25"/><g clip-path="url(#clip-path)"><path d="M157.65,110.91l79.42,35.88c12.8-.62,12-26.54-2.58-39.63L149.41,68.21l.58,39.46,7.66,3.24Z" transform="translate(-52.39 -66.71)" fill="#1d1d26" fill-rule="evenodd"/><path d="M157.65,110.91l79.42,35.88c12.8-.62,12-26.54-2.58-39.63L149.41,68.21l.58,39.46,7.66,3.24Z" transform="translate(-52.39 -66.71)" fill="none" stroke="#1d1d26" stroke-linecap="round" stroke-linejoin="round" stroke-width="3"/><g clip-path="url(#clip-path)"><path d="M157.12,99.46,221,128.34c9.94.26,7.94-17.55-4.15-27.31L148.4,69.75,149,95.94l8.09,3.52Z" transform="translate(-52.39 -66.71)" fill="#fff" fill-rule="evenodd"/></g></g></g></g></g></g></g></svg>