<svg id="Layer_1" data-name="Layer 1" xmlns="http://www.w3.org/2000/svg" xmlns:xlink="http://www.w3.org/1999/xlink" viewBox="0 0 187.55 165.9"><defs><clipPath id="clip-path" transform="translate(-56.22 -67.03)"><polygon points="56.16 233.04 243.84 233.04 243.84 66.96 56.16 66.96 56.16 233.04 56.16 233.04" fill="none" clip-rule="evenodd"/></clipPath></defs><path d="M140.37,120l-74.82,35c-11.13,10.18,0,27.85,12.47,28.29l62.62-25.68L140.37,120Z" transform="translate(-56.22 -67.03)" fill="#fff" fill-rule="evenodd"/><path d="M140.37,120l-74.82,35c-11.13,10.18,0,27.85,12.47,28.29l62.62-25.68L140.37,120Z" transform="translate(-56.22 -67.03)" fill="none" stroke="#fff" stroke-linecap="round" stroke-linejoin="round" stroke-width="3"/><g clip-path="url(#clip-path)"><path d="M139.2,137.2,88,160.24c-5.89,5.38,9.67,11,18.23,10.48l33.15-13.6-.14-19.92Z" transform="translate(-56.22 -67.03)" fill="#1d1d26" fill-rule="evenodd"/><path d="M139.2,137.2,88,160.24c-5.89,5.38,9.67,11,18.23,10.48l33.15-13.6-.14-19.92Z" transform="translate(-56.22 -67.03)" fill="none" stroke="#fff" stroke-linecap="round" stroke-linejoin="round" stroke-width="0.25"/><g clip-path="url(#clip-path)"><path d="M142.39,188.77,66.75,154.61c-12.35.93-12.21,26.92,1.56,39.72l81,37.1.37-39.58-7.3-3.08Z" transform="translate(-56.22 -67.03)" fill="#fff" fill-rule="evenodd"/><path d="M142.39,188.77,66.75,154.61c-12.35.93-12.21,26.92,1.56,39.72l81,37.1.37-39.58-7.3-3.08Z" transform="translate(-56.22 -67.03)" fill="none" stroke="#fff" stroke-linecap="round" stroke-linejoin="round" stroke-width="3"/><g clip-path="url(#clip-path)"><path d="M140.91,199.33,80.12,171.84c-9.57,0-8.06,17.79,3.36,27.3l65.13,29.8V202.67l-7.71-3.34Z" transform="translate(-56.22 -67.03)" fill="#1d1d26" fill-rule="evenodd"/><g clip-path="url(#clip-path)"><path d="M159.63,179.94l74.82-35c11.13-10.17,0-27.85-12.47-28.28L159.36,142.3l.27,37.64Z" transform="translate(-56.22 -67.03)" fill="#fff" fill-rule="evenodd"/><path d="M159.63,179.94l74.82-35c11.13-10.17,0-27.85-12.47-28.28L159.36,142.3l.27,37.64Z" transform="translate(-56.22 -67.03)" fill="none" stroke="#fff" stroke-linecap="round" stroke-linejoin="round" stroke-width="3"/><g clip-path="url(#clip-path)"><path d="M160.8,162.77l51.24-23c5.89-5.39-9.67-11-18.23-10.49l-33.15,13.6.14,19.93Z" transform="translate(-56.22 -67.03)" fill="#1d1d26" fill-rule="evenodd"/><path d="M160.8,162.77l51.24-23c5.89-5.39-9.67-11-18.23-10.49l-33.15,13.6.14,19.93Z" transform="translate(-56.22 -67.03)" fill="none" stroke="#fff" stroke-linecap="round" stroke-linejoin="round" stroke-width="0.25"/><g clip-path="url(#clip-path)"><path d="M157.61,111.19l75.65,34.16c12.34-.92,12.2-26.91-1.57-39.72l-81-37.1-.37,39.59,7.3,3.07Z" transform="translate(-56.22 -67.03)" fill="#fff" fill-rule="evenodd"/><path d="M157.61,111.19l75.65,34.16c12.34-.92,12.2-26.91-1.57-39.72l-81-37.1-.37,39.59,7.3,3.07Z" transform="translate(-56.22 -67.03)" fill="none" stroke="#fff" stroke-linecap="round" stroke-linejoin="round" stroke-width="3"/><g clip-path="url(#clip-path)"><path d="M157.37,99.71l60.79,27.49c9.58,0,8.06-17.79-3.35-27.3L149.67,70.1V96.37l7.7,3.34Z" transform="translate(-56.22 -67.03)" fill="#1d1d26" fill-rule="evenodd"/></g></g></g></g></g></g></g></svg>