<svg id="Layer_1" data-name="Layer 1" xmlns="http://www.w3.org/2000/svg" xmlns:xlink="http://www.w3.org/1999/xlink" viewBox="0 0 363 363"><defs><clipPath id="clip-path" transform="translate(-18.5 -18.5)"><polygon points="18.5 381.5 381.5 381.5 381.5 18.5 18.5 18.5 18.5 381.5 18.5 381.5" fill="none" clip-rule="evenodd"/></clipPath></defs><path d="M18.5,200A181.5,181.5,0,1,1,200,381.5,181.5,181.5,0,0,1,18.5,200Z" transform="translate(-18.5 -18.5)" fill="#1d1d26" fill-rule="evenodd"/><path d="M190.31,170.45l-74.82,35c-11.13,10.18,0,27.85,12.47,28.29l62.62-25.68-.27-37.64Z" transform="translate(-18.5 -18.5)" fill="#fff" fill-rule="evenodd"/><path d="M190.31,170.45l-74.82,35c-11.13,10.18,0,27.85,12.47,28.29l62.62-25.68-.27-37.64Z" transform="translate(-18.5 -18.5)" fill="none" stroke="#fff" stroke-linecap="round" stroke-linejoin="round" stroke-width="3"/><g clip-path="url(#clip-path)"><path d="M189.14,187.62l-51.24,23c-5.89,5.38,9.67,11,18.23,10.48l33.15-13.6-.14-19.92Z" transform="translate(-18.5 -18.5)" fill="#1d1d26" fill-rule="evenodd"/><path d="M189.14,187.62l-51.24,23c-5.89,5.38,9.67,11,18.23,10.48l33.15-13.6-.14-19.92Z" transform="translate(-18.5 -18.5)" fill="none" stroke="#fff" stroke-linecap="round" stroke-linejoin="round" stroke-width="0.25"/><g clip-path="url(#clip-path)"><path d="M192.33,239.19,116.69,205c-12.35.93-12.21,26.92,1.56,39.72l81,37.1.37-39.58-7.3-3.08Z" transform="translate(-18.5 -18.5)" fill="#fff" fill-rule="evenodd"/><path d="M192.33,239.19,116.69,205c-12.35.93-12.21,26.92,1.56,39.72l81,37.1.37-39.58-7.3-3.08Z" transform="translate(-18.5 -18.5)" fill="none" stroke="#fff" stroke-linecap="round" stroke-linejoin="round" stroke-width="3"/><g clip-path="url(#clip-path)"><path d="M190.85,249.75l-60.79-27.49c-9.57,0-8.06,17.79,3.36,27.3l65.13,29.8V253.09l-7.71-3.34Z" transform="translate(-18.5 -18.5)" fill="#1d1d26" fill-rule="evenodd"/><g clip-path="url(#clip-path)"><path d="M209.57,230.36l74.82-35c11.13-10.17,0-27.85-12.47-28.28L209.3,192.72l.27,37.64Z" transform="translate(-18.5 -18.5)" fill="#fff" fill-rule="evenodd"/><path d="M209.57,230.36l74.82-35c11.13-10.17,0-27.85-12.47-28.28L209.3,192.72l.27,37.64Z" transform="translate(-18.5 -18.5)" fill="none" stroke="#fff" stroke-linecap="round" stroke-linejoin="round" stroke-width="3"/><g clip-path="url(#clip-path)"><path d="M210.74,213.19l51.24-23c5.89-5.39-9.67-11-18.23-10.49l-33.15,13.6.14,19.93Z" transform="translate(-18.5 -18.5)" fill="#1d1d26" fill-rule="evenodd"/><path d="M210.74,213.19l51.24-23c5.89-5.39-9.67-11-18.23-10.49l-33.15,13.6.14,19.93Z" transform="translate(-18.5 -18.5)" fill="none" stroke="#fff" stroke-linecap="round" stroke-linejoin="round" stroke-width="0.25"/><g clip-path="url(#clip-path)"><path d="M207.55,161.61l75.65,34.16c12.34-.92,12.2-26.91-1.57-39.72l-81-37.1-.37,39.59,7.3,3.07Z" transform="translate(-18.5 -18.5)" fill="#fff" fill-rule="evenodd"/><path d="M207.55,161.61l75.65,34.16c12.34-.92,12.2-26.91-1.57-39.72l-81-37.1-.37,39.59,7.3,3.07Z" transform="translate(-18.5 -18.5)" fill="none" stroke="#fff" stroke-linecap="round" stroke-linejoin="round" stroke-width="3"/><g clip-path="url(#clip-path)"><path d="M207.31,150.13l60.79,27.49c9.58,0,8.06-17.79-3.35-27.3l-65.14-29.8v26.27l7.7,3.34Z" transform="translate(-18.5 -18.5)" fill="#1d1d26" fill-rule="evenodd"/></g></g></g></g></g></g></g></svg>