<svg xmlns="http://www.w3.org/2000/svg" xmlns:xlink="http://www.w3.org/1999/xlink" viewBox="0 0 1367.89 772.13"><defs><style>.cls-1,.cls-11,.cls-13,.cls-5,.cls-8,.cls-9{fill:none;}.cls-2{fill:#fff;}.cls-2,.cls-3,.cls-4{fill-rule:evenodd;}.cls-3,.cls-4{fill:#1d1d26;}.cls-3{opacity:0.24;isolation:isolate;}.cls-11,.cls-13,.cls-5,.cls-8{stroke:#1d1d26;}.cls-11,.cls-13,.cls-5,.cls-8,.cls-9{stroke-linejoin:round;}.cls-5{stroke-width:1.56px;}.cls-6{clip-path:url(#clip-path);}.cls-7{clip-path:url(#clip-path-3);}.cls-8,.cls-9{stroke-width:6px;}.cls-9{stroke:#fff;}.cls-10{clip-path:url(#clip-path-5);}.cls-11,.cls-13{stroke-linecap:round;}.cls-11{stroke-width:3px;}.cls-12{clip-path:url(#clip-path-10);}.cls-13{stroke-width:0.25px;}</style><clipPath id="clip-path" transform="translate(2.56)"><polygon class="cls-1" points="0 768 1365.33 768 1365.33 0 0 0 0 768 0 768"/></clipPath><clipPath id="clip-path-3" transform="translate(2.56)"><polygon class="cls-1" points="0.34 767.66 1365.67 767.66 1365.67 -0.34 0.34 -0.34 0.34 767.66 0.34 767.66"/></clipPath><clipPath id="clip-path-5" transform="translate(2.56)"><polygon class="cls-1" points="-2.71 769.36 1362.62 769.36 1362.62 1.36 -2.71 1.36 -2.71 769.36 -2.71 769.36"/></clipPath><clipPath id="clip-path-10" transform="translate(2.56)"><polygon class="cls-1" points="649.88 723 715.45 723 715.45 667.06 649.88 667.06 649.88 723 649.88 723"/></clipPath></defs><g id="Layer_1" data-name="Layer 1"><polygon class="cls-2" points="0 4.13 1365.33 4.13 1365.33 772.13 0 772.13 0 4.13 0 4.13"/><path class="cls-3" d="M235.58,476.33h305a22.07,22.07,0,0,1,22.07,22.07h0a22.07,22.07,0,0,1-22.07,22.07H498.8l-1.13.35a22.22,22.22,0,0,0-11.75,11.75l-1.73,8.59,1.73,8.6a22.16,22.16,0,0,0,13.77,12.49l6.57,1h65.08a22.07,22.07,0,0,1,22.07,22.07h0a22.07,22.07,0,0,1-22.07,22.07H313.05a22.07,22.07,0,0,1-20.33-13.48l-1.72-8.6,1.74-8.6a22.07,22.07,0,0,1,20.33-13.48h95.87l3.36-1a22.09,22.09,0,0,0,13.48-20.34h0a22.09,22.09,0,0,0-13.48-20.34l-3.36-1H235.58A22.08,22.08,0,0,1,215.24,507l-1.74-8.59,1.74-8.6a22.09,22.09,0,0,1,20.34-13.48Z" transform="translate(2.56)"/><path class="cls-3" d="M231,223.91H536A22.09,22.09,0,0,1,558.08,246h0A22.08,22.08,0,0,1,536,268.07H494.19l-1.13.35a22.15,22.15,0,0,0-11.75,11.75l-1.73,8.59,1.73,8.59a22.17,22.17,0,0,0,13.78,12.49l6.56,1h65.08a22.08,22.08,0,0,1,22.07,22.08h0A22.08,22.08,0,0,1,566.73,355H308.45a22.07,22.07,0,0,1-20.34-13.49l-1.73-8.59,1.73-8.59a22.07,22.07,0,0,1,20.34-13.49h95.86l3.36-1a22.09,22.09,0,0,0,13.48-20.34h0a22.09,22.09,0,0,0-13.48-20.34l-3.36-1H231a22.08,22.08,0,0,1-20.34-13.49L208.9,246l1.73-8.59A22.07,22.07,0,0,1,231,223.91Z" transform="translate(2.56)"/><path class="cls-4" d="M705.31,289.08h1.13v1.46h-1.13ZM684,279.41v5.85h3.28a4.31,4.31,0,0,0,2.69-.8,2.62,2.62,0,0,0,1-2.13h0a2.59,2.59,0,0,0-1-2.15,4.28,4.28,0,0,0-2.62-.73Zm-9.93-.22a4.87,4.87,0,0,0-4.41,2.64,5.76,5.76,0,0,0-.66,2.7h0a5.69,5.69,0,0,0,.67,2.71,5.06,5.06,0,0,0,1.8,1.93,5,5,0,0,0,7-1.91,5.72,5.72,0,0,0,.66-2.69h0a5.76,5.76,0,0,0-.66-2.7,5.19,5.19,0,0,0-1.81-1.94,4.88,4.88,0,0,0-2.63-.73Zm-14.51,0a5,5,0,0,0-2.62.72,5.08,5.08,0,0,0-1.79,1.92,5.76,5.76,0,0,0-.66,2.7h0a5.69,5.69,0,0,0,.67,2.71,5.13,5.13,0,0,0,1.8,1.93,5,5,0,0,0,6.87-1.68l.13-.23a5.72,5.72,0,0,0,.66-2.69h0a5.77,5.77,0,0,0-.67-2.7,5.16,5.16,0,0,0-1.8-1.94,5,5,0,0,0-2.64-.73Zm45.79-.6h1v1.19l-.25,7.63h-.48l-.26-7.63v-1.19Zm-22.24,0h4.34a5.1,5.1,0,0,1,3.2,1,3.27,3.27,0,0,1,1.24,2.69h0a3.46,3.46,0,0,1-.66,2.11,3.87,3.87,0,0,1-1.69,1.27,6.07,6.07,0,0,1-2.31.43H684v4.46h-.89v-12Zm15-.17a6,6,0,0,1,4.1,1.45l-.57.7a5.65,5.65,0,0,0-1.71-1,5.38,5.38,0,0,0-1.86-.31,3.39,3.39,0,0,0-2.11.66,2,2,0,0,0-.8,1.59h0a2,2,0,0,0,.27,1.11,2.34,2.34,0,0,0,1,.84,9.14,9.14,0,0,0,2.16.66,6.84,6.84,0,0,1,3,1.2,2.56,2.56,0,0,1,.92,2.09h0a3,3,0,0,1-1.11,2.35,4.5,4.5,0,0,1-2.85.91,6.71,6.71,0,0,1-2.58-.48,7.62,7.62,0,0,1-2.23-1.44l.58-.66a7,7,0,0,0,2,1.34,5.55,5.55,0,0,0,2.31.43,3.48,3.48,0,0,0,2.18-.67,2.14,2.14,0,0,0,.84-1.7h0a2.1,2.1,0,0,0-.28-1.1,2.22,2.22,0,0,0-1-.82,9.42,9.42,0,0,0-2.08-.63,6.93,6.93,0,0,1-3.09-1.22,2.59,2.59,0,0,1-.94-2.14h0a2.85,2.85,0,0,1,1.09-2.24,4.29,4.29,0,0,1,2.75-.9Zm-24,0a6,6,0,0,1,3.16.87,5.82,5.82,0,0,1,2.08,2.24,6.27,6.27,0,0,1,.75,3h0a6.49,6.49,0,0,1-.75,3.05,5.87,5.87,0,0,1-5.27,3.13,5.8,5.8,0,0,1-5.24-3.1,6.54,6.54,0,0,1-.75-3h0a6.5,6.5,0,0,1,.76-3.05,5.87,5.87,0,0,1,2.09-2.25,6,6,0,0,1,3.17-.88Zm-14.5,0a6,6,0,0,1,3.16.87,5.82,5.82,0,0,1,2.08,2.24,6.54,6.54,0,0,1,.75,3h0a6.5,6.5,0,0,1-.76,3.05,5.87,5.87,0,0,1-5.27,3.13,5.8,5.8,0,0,1-5.24-3.1,6.54,6.54,0,0,1-.75-3h0a6.5,6.5,0,0,1,.76-3.05,5.87,5.87,0,0,1,5.27-3.13Z" transform="translate(2.56)"/><path class="cls-5" d="M705.31,289.08h1.13v1.46h-1.13ZM684,279.41v5.85h3.28a4.31,4.31,0,0,0,2.69-.8,2.62,2.62,0,0,0,1-2.13h0a2.59,2.59,0,0,0-1-2.15,4.28,4.28,0,0,0-2.62-.73Zm-9.93-.22a4.87,4.87,0,0,0-4.41,2.64,5.76,5.76,0,0,0-.66,2.7h0a5.69,5.69,0,0,0,.67,2.71,5.06,5.06,0,0,0,1.8,1.93,5,5,0,0,0,7-1.91,5.72,5.72,0,0,0,.66-2.69h0a5.76,5.76,0,0,0-.66-2.7,5.19,5.19,0,0,0-1.81-1.94,4.88,4.88,0,0,0-2.63-.73Zm-14.51,0a5,5,0,0,0-2.62.72,5.08,5.08,0,0,0-1.79,1.92,5.76,5.76,0,0,0-.66,2.7h0a5.69,5.69,0,0,0,.67,2.71,5.13,5.13,0,0,0,1.8,1.93,5,5,0,0,0,6.87-1.68l.13-.23a5.72,5.72,0,0,0,.66-2.69h0a5.77,5.77,0,0,0-.67-2.7,5.16,5.16,0,0,0-1.8-1.94,5,5,0,0,0-2.64-.73Zm45.79-.6h1v1.19l-.25,7.63h-.48l-.26-7.63v-1.19Zm-22.24,0h4.34a5.1,5.1,0,0,1,3.2,1,3.27,3.27,0,0,1,1.24,2.69h0a3.46,3.46,0,0,1-.66,2.11,3.87,3.87,0,0,1-1.69,1.27,6.07,6.07,0,0,1-2.31.43H684v4.46h-.89v-12Zm15-.17a6,6,0,0,1,4.1,1.45l-.57.7a5.65,5.65,0,0,0-1.71-1,5.38,5.38,0,0,0-1.86-.31,3.39,3.39,0,0,0-2.11.66,2,2,0,0,0-.8,1.59h0a2,2,0,0,0,.27,1.11,2.34,2.34,0,0,0,1,.84,9.14,9.14,0,0,0,2.16.66,6.84,6.84,0,0,1,3,1.2,2.56,2.56,0,0,1,.92,2.09h0a3,3,0,0,1-1.11,2.35,4.5,4.5,0,0,1-2.85.91,6.71,6.71,0,0,1-2.58-.48,7.62,7.62,0,0,1-2.23-1.44l.58-.66a7,7,0,0,0,2,1.34,5.55,5.55,0,0,0,2.31.43,3.48,3.48,0,0,0,2.18-.67,2.14,2.14,0,0,0,.84-1.7h0a2.1,2.1,0,0,0-.28-1.1,2.22,2.22,0,0,0-1-.82,9.42,9.42,0,0,0-2.08-.63,6.93,6.93,0,0,1-3.09-1.22,2.59,2.59,0,0,1-.94-2.14h0a2.85,2.85,0,0,1,1.09-2.24,4.29,4.29,0,0,1,2.75-.9Zm-24,0a6,6,0,0,1,3.16.87,5.82,5.82,0,0,1,2.08,2.24,6.27,6.27,0,0,1,.75,3h0a6.49,6.49,0,0,1-.75,3.05,5.87,5.87,0,0,1-5.27,3.13,5.8,5.8,0,0,1-5.24-3.1,6.54,6.54,0,0,1-.75-3h0a6.5,6.5,0,0,1,.76-3.05,5.87,5.87,0,0,1,2.09-2.25,6,6,0,0,1,3.17-.88Zm-14.5,0a6,6,0,0,1,3.16.87,5.82,5.82,0,0,1,2.08,2.24,6.54,6.54,0,0,1,.75,3h0a6.5,6.5,0,0,1-.76,3.05,5.87,5.87,0,0,1-5.27,3.13,5.8,5.8,0,0,1-5.24-3.1,6.54,6.54,0,0,1-.75-3h0a6.5,6.5,0,0,1,.76-3.05,5.87,5.87,0,0,1,5.27-3.13Z" transform="translate(2.56)"/><g class="cls-6"><path class="cls-4" d="M820.11,493.57h1.13V495h-1.13v-1.43Zm-76.24-4.16v4.79h4.34a4,4,0,0,0,2.44-.65,2.12,2.12,0,0,0,.9-1.79h0a1.92,1.92,0,0,0-.93-1.71,5.06,5.06,0,0,0-2.7-.61Zm53.25-5.51v10.3h3.09a5.93,5.93,0,0,0,2.89-.69,4.84,4.84,0,0,0,1.87-1.83,5.35,5.35,0,0,0,.67-2.6h0a5.35,5.35,0,0,0-.67-2.6,5,5,0,0,0-1.87-1.85,5.83,5.83,0,0,0-2.89-.7Zm-53.25,0v4.69h3.94A3.56,3.56,0,0,0,750,488a2.2,2.2,0,0,0,.87-1.82h0a2,2,0,0,0-.78-1.6,3.54,3.54,0,0,0-2.21-.6Zm-125.27,0v10.3h3.09a5.93,5.93,0,0,0,2.89-.69,4.77,4.77,0,0,0,1.87-1.83,5.35,5.35,0,0,0,.67-2.6h0a5.35,5.35,0,0,0-.67-2.6,4.82,4.82,0,0,0-1.87-1.85,5.83,5.83,0,0,0-2.89-.7Zm-44.2,0v5.37h4a4,4,0,0,0,2.49-.72,2.42,2.42,0,0,0,1-2h0a2.34,2.34,0,0,0-.9-1.91,4.05,4.05,0,0,0-2.53-.7Zm186.33-.23a4.93,4.93,0,0,0-4.41,2.65,5.64,5.64,0,0,0-.65,2.7h0a5.68,5.68,0,0,0,.66,2.71,5.13,5.13,0,0,0,1.8,1.93A5,5,0,0,0,765,492l.13-.23a5.76,5.76,0,0,0,.66-2.7h0a5.69,5.69,0,0,0-.67-2.71,5.13,5.13,0,0,0-1.8-1.93,5,5,0,0,0-2.64-.74Zm-43.17,0a5,5,0,0,0-2.63.73,5.23,5.23,0,0,0-1.79,1.92,5.64,5.64,0,0,0-.65,2.7h0a5.68,5.68,0,0,0,.66,2.71,5,5,0,0,0,7.07,1.93,5.21,5.21,0,0,0,1.78-1.92,5.76,5.76,0,0,0,.66-2.7h0a5.69,5.69,0,0,0-.67-2.71,5.13,5.13,0,0,0-1.8-1.93,5,5,0,0,0-2.63-.74Zm-43.7,0a4.93,4.93,0,0,0-4.41,2.65,5.64,5.64,0,0,0-.65,2.7h0a5.68,5.68,0,0,0,.66,2.71,5,5,0,0,0,7.07,1.93,5.21,5.21,0,0,0,1.78-1.92A5.76,5.76,0,0,0,679,489h0a5.69,5.69,0,0,0-.67-2.71,5.13,5.13,0,0,0-1.8-1.93,5,5,0,0,0-2.64-.74Zm-65.19,0a4.9,4.9,0,0,0-4.41,2.65,5.76,5.76,0,0,0-.66,2.7h0a5.69,5.69,0,0,0,.67,2.71,5,5,0,0,0,6.75,2.12l.31-.18a5.23,5.23,0,0,0,1.79-1.92,5.64,5.64,0,0,0,.65-2.7h0a5.83,5.83,0,0,0-.66-2.71,5,5,0,0,0-4.44-2.67Zm-57.17,0a4.9,4.9,0,0,0-4.41,2.65,5.76,5.76,0,0,0-.66,2.7h0a5.83,5.83,0,0,0,.66,2.71,5.24,5.24,0,0,0,1.81,1.93,5,5,0,0,0,2.63.74,4.9,4.9,0,0,0,4.41-2.65,5.76,5.76,0,0,0,.66-2.7h0a5.69,5.69,0,0,0-.67-2.71,5,5,0,0,0-4.43-2.67Zm268.68-.59h1v1.19l-.26,7.63h-.48l-.25-7.63v-1.19Zm-23.95,0h4a6.82,6.82,0,0,1,3.31.79,5.8,5.8,0,0,1,2.23,2.11,6,6,0,0,1,.81,3h0a6,6,0,0,1-.81,3,5.85,5.85,0,0,1-2.23,2.13,7,7,0,0,1-3.31.8h-4Zm-13.48,0h.84l8.24,10.39V483.08h.85V495H792l-8.42-10.61V495h-.85V483.08Zm-13.16,0h.89V490a4.71,4.71,0,0,0,1.07,3.28,3.92,3.92,0,0,0,3,1.16,3.82,3.82,0,0,0,2.9-1.1,4.54,4.54,0,0,0,1.08-3.25v-7h.89V490a5.48,5.48,0,0,1-1.36,3.92,4.81,4.81,0,0,1-3.54,1.34,4.88,4.88,0,0,1-3.52-1.32,5.25,5.25,0,0,1-1.38-3.83Zm-26.61,0h4.94a4.64,4.64,0,0,1,2.8.79,2.62,2.62,0,0,1,1.07,2.14h0a2.77,2.77,0,0,1-.65,1.87,3.61,3.61,0,0,1-1.38,1,4.49,4.49,0,0,1,1.89.94,2.55,2.55,0,0,1,.81,1.91h0a2.86,2.86,0,0,1-1.18,2.38,5.13,5.13,0,0,1-3.11.88H743V483.08Zm-16.38,0H735v.82h-7.52v4.89h6.76v.82h-6.76V495h-.89V483.08Zm-31.57,0h9.21v.82h-4.16V495h-.89V483.9H695v-.82Zm-12.31,0h.89V490a4.72,4.72,0,0,0,1.08,3.28,3.87,3.87,0,0,0,3,1.16,3.82,3.82,0,0,0,2.9-1.1,4.54,4.54,0,0,0,1.08-3.25v-7h.89V490a5.48,5.48,0,0,1-1.36,3.92,4.81,4.81,0,0,1-3.54,1.34,4.88,4.88,0,0,1-3.52-1.32,5.29,5.29,0,0,1-1.38-3.83Zm-34.85,0h.89V495h-.89Zm-16.84,0h8.5v.82h-7.62v4.69h6.85v.82h-6.85v4.79h7.7v.8H631V483.08Zm-13.31,0h4a6.83,6.83,0,0,1,3.32.79,5.7,5.7,0,0,1,2.22,2.11,6,6,0,0,1,.81,3h0a6,6,0,0,1-.81,3,5.68,5.68,0,0,1-2.22,2.13,7,7,0,0,1-3.32.8h-4Zm-44.21,0h5a4.8,4.8,0,0,1,3.1.95,3.06,3.06,0,0,1,1.17,2.44h0a3,3,0,0,1-1,2.35,4.56,4.56,0,0,1-2.5,1.06l3.94,5.1h-1.13l-3.8-5H574.4v5h-.89Zm-13.16,0h.89V490a4.72,4.72,0,0,0,1.08,3.28,3.88,3.88,0,0,0,3,1.16,3.8,3.8,0,0,0,2.89-1.1,4.54,4.54,0,0,0,1.08-3.25v-7h.89V490a5.48,5.48,0,0,1-1.36,3.92,4.76,4.76,0,0,1-3.54,1.34,4.88,4.88,0,0,1-3.52-1.32,5.29,5.29,0,0,1-1.38-3.83Zm-26.81,0h1.11l4.47,6.41,4.49-6.41h1.06l-5.12,7.2V495h-.89v-4.7l-5.12-7.22Zm279.38-.17a6,6,0,0,1,4.1,1.45l-.56.7a5.31,5.31,0,0,0-1.72-1,5.07,5.07,0,0,0-1.85-.31,3.3,3.3,0,0,0-2.12.66A2,2,0,0,0,810,486h0a2,2,0,0,0,.27,1.11,2.36,2.36,0,0,0,1,.85,10.18,10.18,0,0,0,2.16.66,6.72,6.72,0,0,1,3,1.2,2.55,2.55,0,0,1,.93,2.09h0a3,3,0,0,1-1.12,2.36,4.4,4.4,0,0,1-2.84.9,6.72,6.72,0,0,1-2.59-.47,7.57,7.57,0,0,1-2.22-1.44l.58-.66a7,7,0,0,0,2,1.34,5.71,5.71,0,0,0,2.31.43,3.48,3.48,0,0,0,2.18-.67,2.13,2.13,0,0,0,.84-1.7h0a2,2,0,0,0-.27-1.09,2.25,2.25,0,0,0-1-.83,9.56,9.56,0,0,0-2.08-.62,7,7,0,0,1-3.09-1.22,2.63,2.63,0,0,1-.94-2.14h0a2.93,2.93,0,0,1,1.09-2.24A4.29,4.29,0,0,1,813,483Zm-157,0a6.36,6.36,0,0,1,2.25.36,6.63,6.63,0,0,1,1.85,1.09l-.57.7a5.17,5.17,0,0,0-1.71-1,5.07,5.07,0,0,0-1.85-.31,3.3,3.3,0,0,0-2.12.66A2,2,0,0,0,653,486h0a2,2,0,0,0,.27,1.11,2.36,2.36,0,0,0,1,.85,9.14,9.14,0,0,0,2.16.66,6.72,6.72,0,0,1,3,1.2,2.58,2.58,0,0,1,.93,2.09h0a3,3,0,0,1-1.12,2.36,4.4,4.4,0,0,1-2.84.9,6.72,6.72,0,0,1-2.59-.47,7.62,7.62,0,0,1-2.23-1.44l.58-.66a7.09,7.09,0,0,0,2,1.34,5.71,5.71,0,0,0,2.31.43,3.48,3.48,0,0,0,2.18-.67,2.14,2.14,0,0,0,.84-1.7h0a1.91,1.91,0,0,0-.28-1.09,2.31,2.31,0,0,0-1-.83,10.15,10.15,0,0,0-2.08-.62,7,7,0,0,1-3.09-1.22,2.59,2.59,0,0,1-.94-2.14h0a2.85,2.85,0,0,1,1.09-2.24,4.29,4.29,0,0,1,2.75-.9Zm104.86,0a6,6,0,0,1,3.16.87A5.86,5.86,0,0,1,766,486a6.54,6.54,0,0,1,.75,3h0a6.5,6.5,0,0,1-.76,3.05,5.87,5.87,0,0,1-5.27,3.13,5.81,5.81,0,0,1-5.24-3.1,6.61,6.61,0,0,1-.75-3.05h0a6.5,6.5,0,0,1,.76-3,5.87,5.87,0,0,1,5.27-3.13Zm-43.18,0a6,6,0,0,1,3.16.87,5.72,5.72,0,0,1,2.08,2.23,6.54,6.54,0,0,1,.75,3h0a6.5,6.5,0,0,1-.76,3.05,5.85,5.85,0,0,1-5.26,3.13,6,6,0,0,1-3.17-.87,5.94,5.94,0,0,1-2.08-2.23,6.48,6.48,0,0,1-.74-3h0a6.49,6.49,0,0,1,.75-3.05,5.87,5.87,0,0,1,5.27-3.13Zm-43.69,0a6,6,0,0,1,3.16.87,5.86,5.86,0,0,1,2.08,2.23,6.54,6.54,0,0,1,.75,3h0a6.5,6.5,0,0,1-.76,3.05,5.87,5.87,0,0,1-5.27,3.13,5.81,5.81,0,0,1-5.24-3.1,6.61,6.61,0,0,1-.75-3h0a6.5,6.5,0,0,1,.76-3.05,5.87,5.87,0,0,1,5.27-3.13Zm-65.2,0a6,6,0,0,1,3.17.87A5.94,5.94,0,0,1,614,486a6.37,6.37,0,0,1,.74,3h0a6.49,6.49,0,0,1-.75,3.05,6.06,6.06,0,0,1-8.24,2.37l-.19-.11a5.72,5.72,0,0,1-2.08-2.23,6.61,6.61,0,0,1-.75-3.05h0a6.5,6.5,0,0,1,.76-3,5.85,5.85,0,0,1,5.26-3.13Zm-12.33,0a6.58,6.58,0,0,1,2.66.53,7.85,7.85,0,0,1,2,1.38l-.63.65a7,7,0,0,0-1.74-1.26,5.2,5.2,0,0,0-2.29-.5,4.81,4.81,0,0,0-2.58.72,5,5,0,0,0-1.8,1.87,5.85,5.85,0,0,0-.67,2.72h0a5.79,5.79,0,0,0,.68,2.74,5.08,5.08,0,0,0,1.8,1.91,4.91,4.91,0,0,0,2.58.73,5.11,5.11,0,0,0,2.24-.49,6.84,6.84,0,0,0,1.87-1.37l.6.58a7.62,7.62,0,0,1-2.06,1.5,6,6,0,0,1-2.69.58,5.79,5.79,0,0,1-5.16-3,6.42,6.42,0,0,1-.78-3.12h0a6.46,6.46,0,0,1,.78-3.1,6.1,6.1,0,0,1,2.11-2.23,6,6,0,0,1,3.09-.85Zm-44.84,0a6,6,0,0,1,3.16.87,5.72,5.72,0,0,1,2.08,2.23,6.54,6.54,0,0,1,.75,3h0a6.5,6.5,0,0,1-.76,3.05,5.87,5.87,0,0,1-2.09,2.25,6.15,6.15,0,0,1-6.33,0,5.72,5.72,0,0,1-2.08-2.23,6.37,6.37,0,0,1-.75-3.05h0a6.49,6.49,0,0,1,.75-3,5.87,5.87,0,0,1,5.27-3.13Z" transform="translate(2.56)"/><path class="cls-5" d="M820.11,493.57h1.13V495h-1.13v-1.43Zm-76.24-4.16v4.79h4.34a4,4,0,0,0,2.44-.65,2.12,2.12,0,0,0,.9-1.79h0a1.92,1.92,0,0,0-.93-1.71,5.06,5.06,0,0,0-2.7-.61Zm53.25-5.51v10.3h3.09a5.93,5.93,0,0,0,2.89-.69,4.84,4.84,0,0,0,1.87-1.83,5.35,5.35,0,0,0,.67-2.6h0a5.35,5.35,0,0,0-.67-2.6,5,5,0,0,0-1.87-1.85,5.83,5.83,0,0,0-2.89-.7Zm-53.25,0v4.69h3.94A3.56,3.56,0,0,0,750,488a2.2,2.2,0,0,0,.87-1.82h0a2,2,0,0,0-.78-1.6,3.54,3.54,0,0,0-2.21-.6Zm-125.27,0v10.3h3.09a5.93,5.93,0,0,0,2.89-.69,4.77,4.77,0,0,0,1.87-1.83,5.35,5.35,0,0,0,.67-2.6h0a5.35,5.35,0,0,0-.67-2.6,4.82,4.82,0,0,0-1.87-1.85,5.83,5.83,0,0,0-2.89-.7Zm-44.2,0v5.37h4a4,4,0,0,0,2.49-.72,2.42,2.42,0,0,0,1-2h0a2.34,2.34,0,0,0-.9-1.91,4.05,4.05,0,0,0-2.53-.7Zm186.33-.23a4.93,4.93,0,0,0-4.41,2.65,5.64,5.64,0,0,0-.65,2.7h0a5.68,5.68,0,0,0,.66,2.71,5.13,5.13,0,0,0,1.8,1.93A5,5,0,0,0,765,492l.13-.23a5.76,5.76,0,0,0,.66-2.7h0a5.69,5.69,0,0,0-.67-2.71,5.13,5.13,0,0,0-1.8-1.93,5,5,0,0,0-2.64-.74Zm-43.17,0a5,5,0,0,0-2.63.73,5.23,5.23,0,0,0-1.79,1.92,5.64,5.64,0,0,0-.65,2.7h0a5.68,5.68,0,0,0,.66,2.71,5,5,0,0,0,7.07,1.93,5.21,5.21,0,0,0,1.78-1.92,5.76,5.76,0,0,0,.66-2.7h0a5.69,5.69,0,0,0-.67-2.71,5.13,5.13,0,0,0-1.8-1.93,5,5,0,0,0-2.63-.74Zm-43.7,0a4.93,4.93,0,0,0-4.41,2.65,5.64,5.64,0,0,0-.65,2.7h0a5.68,5.68,0,0,0,.66,2.71,5,5,0,0,0,7.07,1.93,5.21,5.21,0,0,0,1.78-1.92A5.76,5.76,0,0,0,679,489h0a5.69,5.69,0,0,0-.67-2.71,5.13,5.13,0,0,0-1.8-1.93,5,5,0,0,0-2.64-.74Zm-65.19,0a4.9,4.9,0,0,0-4.41,2.65,5.76,5.76,0,0,0-.66,2.7h0a5.69,5.69,0,0,0,.67,2.71,5,5,0,0,0,6.75,2.12l.31-.18a5.23,5.23,0,0,0,1.79-1.92,5.64,5.64,0,0,0,.65-2.7h0a5.83,5.83,0,0,0-.66-2.71,5,5,0,0,0-4.44-2.67Zm-57.17,0a4.9,4.9,0,0,0-4.41,2.65,5.76,5.76,0,0,0-.66,2.7h0a5.83,5.83,0,0,0,.66,2.71,5.24,5.24,0,0,0,1.81,1.93,5,5,0,0,0,2.63.74,4.9,4.9,0,0,0,4.41-2.65,5.76,5.76,0,0,0,.66-2.7h0a5.69,5.69,0,0,0-.67-2.71,5,5,0,0,0-4.43-2.67Zm268.68-.59h1v1.19l-.26,7.63h-.48l-.25-7.63v-1.19Zm-23.95,0h4a6.82,6.82,0,0,1,3.31.79,5.8,5.8,0,0,1,2.23,2.11,6,6,0,0,1,.81,3h0a6,6,0,0,1-.81,3,5.85,5.85,0,0,1-2.23,2.13,7,7,0,0,1-3.31.8h-4Zm-13.48,0h.84l8.24,10.39V483.08h.85V495H792l-8.42-10.61V495h-.85V483.08Zm-13.16,0h.89V490a4.71,4.71,0,0,0,1.07,3.28,3.92,3.92,0,0,0,3,1.16,3.82,3.82,0,0,0,2.9-1.1,4.54,4.54,0,0,0,1.08-3.25v-7h.89V490a5.48,5.48,0,0,1-1.36,3.92,4.81,4.81,0,0,1-3.54,1.34,4.88,4.88,0,0,1-3.52-1.32,5.25,5.25,0,0,1-1.38-3.83Zm-26.61,0h4.94a4.64,4.64,0,0,1,2.8.79,2.62,2.62,0,0,1,1.07,2.14h0a2.77,2.77,0,0,1-.65,1.87,3.61,3.61,0,0,1-1.38,1,4.49,4.49,0,0,1,1.89.94,2.55,2.55,0,0,1,.81,1.91h0a2.86,2.86,0,0,1-1.18,2.38,5.13,5.13,0,0,1-3.11.88H743V483.08Zm-16.38,0H735v.82h-7.52v4.89h6.76v.82h-6.76V495h-.89V483.08Zm-31.57,0h9.21v.82h-4.16V495h-.89V483.9H695v-.82Zm-12.31,0h.89V490a4.72,4.72,0,0,0,1.08,3.28,3.87,3.87,0,0,0,3,1.16,3.82,3.82,0,0,0,2.9-1.1,4.54,4.54,0,0,0,1.08-3.25v-7h.89V490a5.48,5.48,0,0,1-1.36,3.92,4.81,4.81,0,0,1-3.54,1.34,4.88,4.88,0,0,1-3.52-1.32,5.29,5.29,0,0,1-1.38-3.83Zm-34.85,0h.89V495h-.89Zm-16.84,0h8.5v.82h-7.62v4.69h6.85v.82h-6.85v4.79h7.7v.8H631V483.08Zm-13.31,0h4a6.83,6.83,0,0,1,3.32.79,5.7,5.7,0,0,1,2.22,2.11,6,6,0,0,1,.81,3h0a6,6,0,0,1-.81,3,5.68,5.68,0,0,1-2.22,2.13,7,7,0,0,1-3.32.8h-4Zm-44.21,0h5a4.8,4.8,0,0,1,3.1.95,3.06,3.06,0,0,1,1.17,2.44h0a3,3,0,0,1-1,2.35,4.56,4.56,0,0,1-2.5,1.06l3.94,5.1h-1.13l-3.8-5H574.4v5h-.89Zm-13.16,0h.89V490a4.72,4.72,0,0,0,1.08,3.28,3.88,3.88,0,0,0,3,1.16,3.8,3.8,0,0,0,2.89-1.1,4.54,4.54,0,0,0,1.08-3.25v-7h.89V490a5.48,5.48,0,0,1-1.36,3.92,4.76,4.76,0,0,1-3.54,1.34,4.88,4.88,0,0,1-3.52-1.32,5.29,5.29,0,0,1-1.38-3.83Zm-26.81,0h1.11l4.47,6.41,4.49-6.41h1.06l-5.12,7.2V495h-.89v-4.7l-5.12-7.22Zm279.38-.17a6,6,0,0,1,4.1,1.45l-.56.7a5.31,5.31,0,0,0-1.72-1,5.07,5.07,0,0,0-1.85-.31,3.3,3.3,0,0,0-2.12.66A2,2,0,0,0,810,486h0a2,2,0,0,0,.27,1.11,2.36,2.36,0,0,0,1,.85,10.18,10.18,0,0,0,2.16.66,6.72,6.72,0,0,1,3,1.2,2.55,2.55,0,0,1,.93,2.09h0a3,3,0,0,1-1.12,2.36,4.4,4.4,0,0,1-2.84.9,6.72,6.72,0,0,1-2.59-.47,7.57,7.57,0,0,1-2.22-1.44l.58-.66a7,7,0,0,0,2,1.34,5.71,5.71,0,0,0,2.31.43,3.48,3.48,0,0,0,2.18-.67,2.13,2.13,0,0,0,.84-1.7h0a2,2,0,0,0-.27-1.09,2.25,2.25,0,0,0-1-.83,9.56,9.56,0,0,0-2.08-.62,7,7,0,0,1-3.09-1.22,2.63,2.63,0,0,1-.94-2.14h0a2.93,2.93,0,0,1,1.09-2.24A4.29,4.29,0,0,1,813,483Zm-157,0a6.36,6.36,0,0,1,2.25.36,6.63,6.63,0,0,1,1.85,1.09l-.57.7a5.17,5.17,0,0,0-1.71-1,5.07,5.07,0,0,0-1.85-.31,3.3,3.3,0,0,0-2.12.66A2,2,0,0,0,653,486h0a2,2,0,0,0,.27,1.11,2.36,2.36,0,0,0,1,.85,9.14,9.14,0,0,0,2.16.66,6.72,6.72,0,0,1,3,1.2,2.58,2.58,0,0,1,.93,2.09h0a3,3,0,0,1-1.12,2.36,4.4,4.4,0,0,1-2.84.9,6.72,6.72,0,0,1-2.59-.47,7.62,7.62,0,0,1-2.23-1.44l.58-.66a7.09,7.09,0,0,0,2,1.34,5.71,5.71,0,0,0,2.31.43,3.48,3.48,0,0,0,2.18-.67,2.14,2.14,0,0,0,.84-1.7h0a1.91,1.91,0,0,0-.28-1.09,2.31,2.31,0,0,0-1-.83,10.15,10.15,0,0,0-2.08-.62,7,7,0,0,1-3.09-1.22,2.59,2.59,0,0,1-.94-2.14h0a2.85,2.85,0,0,1,1.09-2.24,4.29,4.29,0,0,1,2.75-.9Zm104.86,0a6,6,0,0,1,3.16.87A5.86,5.86,0,0,1,766,486a6.54,6.54,0,0,1,.75,3h0a6.5,6.5,0,0,1-.76,3.05,5.87,5.87,0,0,1-5.27,3.13,5.81,5.81,0,0,1-5.24-3.1,6.61,6.61,0,0,1-.75-3.05h0a6.5,6.5,0,0,1,.76-3,5.87,5.87,0,0,1,5.27-3.13Zm-43.18,0a6,6,0,0,1,3.16.87,5.72,5.72,0,0,1,2.08,2.23,6.54,6.54,0,0,1,.75,3h0a6.5,6.5,0,0,1-.76,3.05,5.85,5.85,0,0,1-5.26,3.13,6,6,0,0,1-3.17-.87,5.94,5.94,0,0,1-2.08-2.23,6.48,6.48,0,0,1-.74-3h0a6.49,6.49,0,0,1,.75-3.05,5.87,5.87,0,0,1,5.27-3.13Zm-43.69,0a6,6,0,0,1,3.16.87,5.86,5.86,0,0,1,2.08,2.23,6.54,6.54,0,0,1,.75,3h0a6.5,6.5,0,0,1-.76,3.05,5.87,5.87,0,0,1-5.27,3.13,5.81,5.81,0,0,1-5.24-3.1,6.61,6.61,0,0,1-.75-3h0a6.5,6.5,0,0,1,.76-3.05,5.87,5.87,0,0,1,5.27-3.13Zm-65.2,0a6,6,0,0,1,3.17.87A5.94,5.94,0,0,1,614,486a6.37,6.37,0,0,1,.74,3h0a6.49,6.49,0,0,1-.75,3.05,6.06,6.06,0,0,1-8.24,2.37l-.19-.11a5.72,5.72,0,0,1-2.08-2.23,6.61,6.61,0,0,1-.75-3.05h0a6.5,6.5,0,0,1,.76-3,5.85,5.85,0,0,1,5.26-3.13Zm-12.33,0a6.58,6.58,0,0,1,2.66.53,7.85,7.85,0,0,1,2,1.38l-.63.65a7,7,0,0,0-1.74-1.26,5.2,5.2,0,0,0-2.29-.5,4.81,4.81,0,0,0-2.58.72,5,5,0,0,0-1.8,1.87,5.85,5.85,0,0,0-.67,2.72h0a5.79,5.79,0,0,0,.68,2.74,5.08,5.08,0,0,0,1.8,1.91,4.91,4.91,0,0,0,2.58.73,5.11,5.11,0,0,0,2.24-.49,6.84,6.84,0,0,0,1.87-1.37l.6.58a7.62,7.62,0,0,1-2.06,1.5,6,6,0,0,1-2.69.58,5.79,5.79,0,0,1-5.16-3,6.42,6.42,0,0,1-.78-3.12h0a6.46,6.46,0,0,1,.78-3.1,6.1,6.1,0,0,1,2.11-2.23,6,6,0,0,1,3.09-.85Zm-44.84,0a6,6,0,0,1,3.16.87,5.72,5.72,0,0,1,2.08,2.23,6.54,6.54,0,0,1,.75,3h0a6.5,6.5,0,0,1-.76,3.05,5.87,5.87,0,0,1-2.09,2.25,6.15,6.15,0,0,1-6.33,0,5.72,5.72,0,0,1-2.08-2.23,6.37,6.37,0,0,1-.75-3.05h0a6.49,6.49,0,0,1,.75-3,5.87,5.87,0,0,1,5.27-3.13Z" transform="translate(2.56)"/><g class="cls-6"><g class="cls-7"><path class="cls-4" d="M589.49,356.43l-32.78,39.45h32.78Zm-1.57-44h38.47v83.23h17.46v28.46H626.39v26.69h-36.9V424.14H523l-6.28-26.89,71.25-84.79Z" transform="translate(2.56)"/><path class="cls-8" d="M589.49,356.43l-32.78,39.45h32.78Zm-1.57-44h38.47v83.23h17.46v28.46H626.39v26.69h-36.9V424.14H523l-6.28-26.89,71.25-84.79Z" transform="translate(2.56)"/><g class="cls-7"><path class="cls-2" d="M674.4,346.16q-11.49.27-18.23,10.4t-6.88,26.89v.39q.15,16.77,7,27.08t18.5,10.6q11.61-.3,18.3-10.47t6.82-26.82v-.39q-.18-16.65-7.09-27T674.4,346.16Zm.39-33.8q19.62.24,33.79,9.78a62.71,62.71,0,0,1,21.85,25.58,82.36,82.36,0,0,1,7.75,35.69v.39a82.59,82.59,0,0,1-7.81,35.79,63.56,63.56,0,0,1-22,25.76q-14.25,9.63-34,9.89-19.71-.24-33.88-9.78a62.65,62.65,0,0,1-21.8-25.58A83,83,0,0,1,611,384.19v-.39A82.58,82.58,0,0,1,618.83,348a64,64,0,0,1,22-25.77q14.28-9.63,33.9-9.88Z" transform="translate(2.56)"/><path class="cls-9" d="M674.4,346.16q-11.49.27-18.23,10.4t-6.88,26.89v.39q.15,16.77,7,27.08t18.5,10.6q11.61-.3,18.3-10.47t6.82-26.82v-.39q-.18-16.65-7.09-27T674.4,346.16Zm.39-33.8q19.62.24,33.79,9.78a62.71,62.71,0,0,1,21.85,25.58,82.36,82.36,0,0,1,7.75,35.69v.39a82.59,82.59,0,0,1-7.81,35.79,63.56,63.56,0,0,1-22,25.76q-14.25,9.63-34,9.89-19.71-.24-33.88-9.78a62.65,62.65,0,0,1-21.8-25.58A83,83,0,0,1,611,384.19v-.39A82.58,82.58,0,0,1,618.83,348a64,64,0,0,1,22-25.77q14.28-9.63,33.9-9.88Z" transform="translate(2.56)"/><g class="cls-10"><path class="cls-4" d="M678.29,346.16q-11.49.27-18.23,10.4t-6.89,26.89v.39q.18,16.77,7,27.08t18.49,10.6q11.64-.3,18.31-10.47t6.82-26.82v-.39q-.18-16.65-7.09-27T678.29,346.16Zm.39-33.76q19.62.24,33.8,9.78a62.82,62.82,0,0,1,21.81,25.58,82.51,82.51,0,0,1,7.76,35.69v.39a82.4,82.4,0,0,1-7.76,35.79,63.55,63.55,0,0,1-22,25.73q-14.25,9.63-34,9.89-19.71-.24-33.88-9.78a62.72,62.72,0,0,1-21.8-25.58,82.7,82.7,0,0,1-7.71-35.69v-.39A82.39,82.39,0,0,1,622.75,348a63.81,63.81,0,0,1,22-25.77q14.26-9.63,33.89-9.88Z" transform="translate(2.56)"/><path class="cls-8" d="M678.29,346.16q-11.49.27-18.23,10.4t-6.89,26.89v.39q.18,16.77,7,27.08t18.49,10.6q11.64-.3,18.31-10.47t6.82-26.82v-.39q-.18-16.65-7.09-27T678.29,346.16Zm.39-33.76q19.62.24,33.8,9.78a62.82,62.82,0,0,1,21.81,25.58,82.51,82.51,0,0,1,7.76,35.69v.39a82.4,82.4,0,0,1-7.76,35.79,63.55,63.55,0,0,1-22,25.73q-14.25,9.63-34,9.89-19.71-.24-33.88-9.78a62.72,62.72,0,0,1-21.8-25.58,82.7,82.7,0,0,1-7.71-35.69v-.39A82.39,82.39,0,0,1,622.75,348a63.81,63.81,0,0,1,22-25.77q14.26-9.63,33.89-9.88Z" transform="translate(2.56)"/><g class="cls-10"><path class="cls-2" d="M784.56,359.11l-32.78,39.45h32.78Zm-1.57-44h38.47v83.25h17.47v28.45H821.46v26.7h-36.9v-26.7H718l-6.28-26.88L783,315.14Z" transform="translate(2.56)"/><path class="cls-9" d="M784.56,359.11l-32.78,39.45h32.78Zm-1.57-44h38.47v83.25h17.47v28.45H821.46v26.7h-36.9v-26.7H718l-6.28-26.88L783,315.14Z" transform="translate(2.56)"/><g class="cls-10"><path class="cls-4" d="M787.42,359.11l-32.77,39.45h32.77Zm-1.57-44h38.44v83.25h17.5v28.45h-17.5v26.7h-36.9v-26.7h-66.5l-6.28-26.88,71.24-84.79Z" transform="translate(2.56)"/><path class="cls-8" d="M787.42,359.11l-32.77,39.45h32.77Zm-1.57-44h38.44v83.25h17.5v28.45h-17.5v26.7h-36.9v-26.7h-66.5l-6.28-26.88,71.24-84.79Z" transform="translate(2.56)"/><g class="cls-10"><path class="cls-3" d="M865.87,345.94h258.28a22.08,22.08,0,0,1,20.34,13.48l1.73,8.59-1.73,8.6a22.1,22.1,0,0,1-20.34,13.48h-95.86l-3.36,1a22.09,22.09,0,0,0,0,40.68l3.36,1.05h173.34A22.07,22.07,0,0,1,1222,446.36l1.73,8.59-1.73,8.59A22.08,22.08,0,0,1,1201.63,477h-305A22.08,22.08,0,0,1,874.56,455h0a22.08,22.08,0,0,1,22-22.09h41.82l1.13-.36a22.1,22.1,0,0,0,11.75-11.74l1.74-8.6-1.74-8.59A22.07,22.07,0,0,0,931,390.09H865.87A22.08,22.08,0,0,1,843.8,368h0a22.07,22.07,0,0,1,22.07-22.07Z" transform="translate(2.56)"/><g class="cls-10"><path class="cls-4" d="M670.55,743.09a3.86,3.86,0,0,0-2.83,1.15,4.61,4.61,0,0,0-1.16,3.21h0a4.61,4.61,0,0,0,1.19,3.2,3.91,3.91,0,0,0,2.8,1.19,4,4,0,0,0,2-.56,4.16,4.16,0,0,0,1.53-1.53,4.58,4.58,0,0,0,.61-2.28h0a4.53,4.53,0,0,0-.61-2.3,4.06,4.06,0,0,0-1.53-1.52A3.89,3.89,0,0,0,670.55,743.09Zm38,0a4,4,0,0,0-3,1.29,4.54,4.54,0,0,0-1.17,3.09h0a4.53,4.53,0,0,0,1.21,3.12,4.13,4.13,0,0,0,6,0,4.48,4.48,0,0,0,1.17-3.08h0a4.43,4.43,0,0,0-1.21-3.13A4,4,0,0,0,708.55,743.09Zm-50.69,0a4,4,0,0,0-3,1.29,4.54,4.54,0,0,0-1.17,3.09h0a4.53,4.53,0,0,0,1.21,3.12,4.12,4.12,0,0,0,3,1.29,4,4,0,0,0,3-1.29,4.57,4.57,0,0,0,1.17-3.08h0a4.53,4.53,0,0,0-1.22-3.13,4,4,0,0,0-3-1.29Zm75.36,0a3.52,3.52,0,0,0-2.57,1.13,4.64,4.64,0,0,0-1.18,2.83h7.4a5,5,0,0,0-.49-1.94,3.42,3.42,0,0,0-1.21-1.45A3.28,3.28,0,0,0,733.22,743.09Zm-49.84,0a3.48,3.48,0,0,0-2.56,1.13,4.71,4.71,0,0,0-1.19,2.83H687a5.19,5.19,0,0,0-.49-1.94,3.49,3.49,0,0,0-1.21-1.45,3.31,3.31,0,0,0-2-.57Zm49.91-.93a4.35,4.35,0,0,1,2.48.71,4.41,4.41,0,0,1,1.61,1.89,6.1,6.1,0,0,1,.58,2.73v.21a.6.6,0,0,1,0,.19h-8.44a4.38,4.38,0,0,0,1.31,3,3.94,3.94,0,0,0,2.68,1.06,4.45,4.45,0,0,0,2-.46,5.14,5.14,0,0,0,1.47-1.14l.68.6a6.09,6.09,0,0,1-1.76,1.38,5.45,5.45,0,0,1-2.45.54,4.88,4.88,0,0,1-4.29-2.53,5.63,5.63,0,0,1-.7-2.78h0a5.83,5.83,0,0,1,.64-2.69,5,5,0,0,1,1.71-1.9,4.46,4.46,0,0,1,2.48-.72Zm-11.77,0a3.87,3.87,0,0,1,3,1.18,4.28,4.28,0,0,1,1.07,3v6.23h-1v-6.05a3.68,3.68,0,0,0-.85-2.53,3.1,3.1,0,0,0-2.39-1,3.45,3.45,0,0,0-2.52,1,3.7,3.7,0,0,0-1,2.61v5.89h-1V742.36h1v1.9a4.23,4.23,0,0,1,1.39-1.52,4.18,4.18,0,0,1,2.28-.61Zm-12.9,0a5.05,5.05,0,0,1,4.53,2.65,5.27,5.27,0,0,1,.68,2.64h0a5.48,5.48,0,0,1-.69,2.65,5.19,5.19,0,0,1-1.85,1.93,5.28,5.28,0,0,1-5.4,0,5.35,5.35,0,0,1-1.84-1.91,5.43,5.43,0,0,1-.68-2.64h0a5.45,5.45,0,0,1,.69-2.65,5.11,5.11,0,0,1,4.56-2.68Zm-25.17,0a4.35,4.35,0,0,1,2.48.71,4.44,4.44,0,0,1,1.62,1.89,6.38,6.38,0,0,1,.58,2.73h0a.48.48,0,0,1,0,.17.6.6,0,0,1,0,.19h-8.45a4.43,4.43,0,0,0,1.32,3,3.9,3.9,0,0,0,2.67,1.06,4.58,4.58,0,0,0,2-.46,5.64,5.64,0,0,0,1.47-1.14l.68.6a6.41,6.41,0,0,1-1.76,1.38,5.49,5.49,0,0,1-2.46.54,5,5,0,0,1-2.48-.67,5.12,5.12,0,0,1-1.81-1.86,5.66,5.66,0,0,1-.7-2.78h0a5.83,5.83,0,0,1,.64-2.69,4.85,4.85,0,0,1,1.72-1.9,4.45,4.45,0,0,1,2.47-.72Zm-25.52,0a5.05,5.05,0,0,1,4.53,2.65,5.17,5.17,0,0,1,.68,2.64h0a5.22,5.22,0,0,1-9.78,2.67,5.66,5.66,0,0,1-.68-2.64h0a5.45,5.45,0,0,1,.69-2.65,5.12,5.12,0,0,1,4.56-2.68Zm-35.06-.46a3.47,3.47,0,0,1,1.62.34,4.91,4.91,0,0,1,1.2.87l-.6.62a4,4,0,0,0-1-.73,2.76,2.76,0,0,0-1.26-.31,2.64,2.64,0,0,0-2,.88,3.21,3.21,0,0,0,0,4.21,2.71,2.71,0,0,0,2,.88,2.86,2.86,0,0,0,1.26-.27,4.4,4.4,0,0,0,1-.76l.56.56a4.88,4.88,0,0,1-1.24.92,3.7,3.7,0,0,1-1.64.35,3.51,3.51,0,0,1-2.58-1.1,3.84,3.84,0,0,1-1.05-2.67,3.91,3.91,0,0,1,1-2.67,3.56,3.56,0,0,1,2.61-1.12Zm-.08-2.78a6.55,6.55,0,0,0-5.76,3.32,6.94,6.94,0,0,0,0,6.73,6.59,6.59,0,0,0,2.34,2.38,6.77,6.77,0,0,0,6.8,0,6.47,6.47,0,0,0,2.36-2.4,6.89,6.89,0,0,0,0-6.73,6.29,6.29,0,0,0-2.34-2.38A6.54,6.54,0,0,0,622.79,738.92Zm68-.32h10.7v.58l-9.57,12.46h9.57v.94h-11V752l9.56-12.46h-9.22v-.94Zm-45.35-.24a7.08,7.08,0,0,1,3.11.63,8.47,8.47,0,0,1,2.32,1.61l-.74.76a7.23,7.23,0,0,0-2-1.47,5.84,5.84,0,0,0-2.69-.59,5.6,5.6,0,0,0-3,.84,5.88,5.88,0,0,0-2.15,2.22,6.74,6.74,0,0,0-.78,3.18h0a6.89,6.89,0,0,0,.79,3.2,6,6,0,0,0,2.11,2.24,5.67,5.67,0,0,0,3,.85,6.1,6.1,0,0,0,2.63-.56,8.31,8.31,0,0,0,2.18-1.62l.7.68a8.73,8.73,0,0,1-2.4,1.77,7.4,7.4,0,0,1-3.15.67,7.12,7.12,0,0,1-3.57-1,7,7,0,0,1-2.46-2.57,7.78,7.78,0,0,1-.92-3.65h0a7.64,7.64,0,0,1,.92-3.63,6.85,6.85,0,0,1,6.07-3.6Zm-22.67,0a7.15,7.15,0,0,1,6.25,3.58,7.25,7.25,0,0,1-12.53,7.3,7.24,7.24,0,0,1,2.6-9.88,7.24,7.24,0,0,1,3.68-1Zm51.88-.36h1v14.58h-1V750.3a6.22,6.22,0,0,1-1.67,1.76,4.53,4.53,0,0,1-2.53.76,5,5,0,0,1-2.37-.64,5.12,5.12,0,0,1-1.79-1.82,5.68,5.68,0,0,1-.74-2.84h0a5.7,5.7,0,0,1,.74-2.86,5.12,5.12,0,0,1,1.84-1.83,4.61,4.61,0,0,1,2.37-.64,4.51,4.51,0,0,1,2.55.73,5.81,5.81,0,0,1,1.65,1.7Z" transform="translate(2.56)"/><path class="cls-5" d="M670.55,743.09a3.86,3.86,0,0,0-2.83,1.15,4.61,4.61,0,0,0-1.16,3.21h0a4.61,4.61,0,0,0,1.19,3.2,3.91,3.91,0,0,0,2.8,1.19,4,4,0,0,0,2-.56,4.16,4.16,0,0,0,1.53-1.53,4.58,4.58,0,0,0,.61-2.28h0a4.53,4.53,0,0,0-.61-2.3,4.06,4.06,0,0,0-1.53-1.52A3.89,3.89,0,0,0,670.55,743.09Zm38,0a4,4,0,0,0-3,1.29,4.54,4.54,0,0,0-1.17,3.09h0a4.53,4.53,0,0,0,1.21,3.12,4.13,4.13,0,0,0,6,0,4.48,4.48,0,0,0,1.17-3.08h0a4.43,4.43,0,0,0-1.21-3.13A4,4,0,0,0,708.55,743.09Zm-50.69,0a4,4,0,0,0-3,1.29,4.54,4.54,0,0,0-1.17,3.09h0a4.53,4.53,0,0,0,1.21,3.12,4.12,4.12,0,0,0,3,1.29,4,4,0,0,0,3-1.29,4.57,4.57,0,0,0,1.17-3.08h0a4.53,4.53,0,0,0-1.22-3.13,4,4,0,0,0-3-1.29Zm75.36,0a3.52,3.52,0,0,0-2.57,1.13,4.64,4.64,0,0,0-1.18,2.83h7.4a5,5,0,0,0-.49-1.94,3.42,3.42,0,0,0-1.21-1.45A3.28,3.28,0,0,0,733.22,743.09Zm-49.84,0a3.48,3.48,0,0,0-2.56,1.13,4.71,4.71,0,0,0-1.19,2.83H687a5.19,5.19,0,0,0-.49-1.94,3.49,3.49,0,0,0-1.21-1.45,3.31,3.31,0,0,0-2-.57Zm49.91-.93a4.35,4.35,0,0,1,2.48.71,4.41,4.41,0,0,1,1.61,1.89,6.1,6.1,0,0,1,.58,2.73v.21a.6.6,0,0,1,0,.19h-8.44a4.38,4.38,0,0,0,1.31,3,3.94,3.94,0,0,0,2.68,1.06,4.45,4.45,0,0,0,2-.46,5.14,5.14,0,0,0,1.47-1.14l.68.6a6.09,6.09,0,0,1-1.76,1.38,5.45,5.45,0,0,1-2.45.54,4.88,4.88,0,0,1-4.29-2.53,5.63,5.63,0,0,1-.7-2.78h0a5.83,5.83,0,0,1,.64-2.69,5,5,0,0,1,1.71-1.9,4.46,4.46,0,0,1,2.48-.72Zm-11.77,0a3.87,3.87,0,0,1,3,1.18,4.28,4.28,0,0,1,1.07,3v6.23h-1v-6.05a3.68,3.68,0,0,0-.85-2.53,3.1,3.1,0,0,0-2.39-1,3.45,3.45,0,0,0-2.52,1,3.7,3.7,0,0,0-1,2.61v5.89h-1V742.36h1v1.9a4.23,4.23,0,0,1,1.39-1.52,4.18,4.18,0,0,1,2.28-.61Zm-12.9,0a5.05,5.05,0,0,1,4.53,2.65,5.27,5.27,0,0,1,.68,2.64h0a5.48,5.48,0,0,1-.69,2.65,5.19,5.19,0,0,1-1.85,1.93,5.28,5.28,0,0,1-5.4,0,5.35,5.35,0,0,1-1.84-1.91,5.43,5.43,0,0,1-.68-2.64h0a5.45,5.45,0,0,1,.69-2.65,5.11,5.11,0,0,1,4.56-2.68Zm-25.17,0a4.35,4.35,0,0,1,2.48.71,4.44,4.44,0,0,1,1.62,1.89,6.38,6.38,0,0,1,.58,2.73h0a.48.48,0,0,1,0,.17.6.6,0,0,1,0,.19h-8.45a4.43,4.43,0,0,0,1.32,3,3.9,3.9,0,0,0,2.67,1.06,4.58,4.58,0,0,0,2-.46,5.64,5.64,0,0,0,1.47-1.14l.68.6a6.41,6.41,0,0,1-1.76,1.38,5.49,5.49,0,0,1-2.46.54,5,5,0,0,1-2.48-.67,5.12,5.12,0,0,1-1.81-1.86,5.66,5.66,0,0,1-.7-2.78h0a5.83,5.83,0,0,1,.64-2.69,4.85,4.85,0,0,1,1.72-1.9,4.45,4.45,0,0,1,2.47-.72Zm-25.52,0a5.05,5.05,0,0,1,4.53,2.65,5.17,5.17,0,0,1,.68,2.64h0a5.22,5.22,0,0,1-9.78,2.67,5.66,5.66,0,0,1-.68-2.64h0a5.45,5.45,0,0,1,.69-2.65,5.12,5.12,0,0,1,4.56-2.68Zm-35.06-.46a3.47,3.47,0,0,1,1.62.34,4.91,4.91,0,0,1,1.2.87l-.6.62a4,4,0,0,0-1-.73,2.76,2.76,0,0,0-1.26-.31,2.64,2.64,0,0,0-2,.88,3.21,3.21,0,0,0,0,4.21,2.71,2.71,0,0,0,2,.88,2.86,2.86,0,0,0,1.26-.27,4.4,4.4,0,0,0,1-.76l.56.56a4.88,4.88,0,0,1-1.24.92,3.7,3.7,0,0,1-1.64.35,3.51,3.51,0,0,1-2.58-1.1,3.84,3.84,0,0,1-1.05-2.67,3.91,3.91,0,0,1,1-2.67,3.56,3.56,0,0,1,2.61-1.12Zm-.08-2.78a6.55,6.55,0,0,0-5.76,3.32,6.94,6.94,0,0,0,0,6.73,6.59,6.59,0,0,0,2.34,2.38,6.77,6.77,0,0,0,6.8,0,6.47,6.47,0,0,0,2.36-2.4,6.89,6.89,0,0,0,0-6.73,6.29,6.29,0,0,0-2.34-2.38A6.54,6.54,0,0,0,622.79,738.92Zm68-.32h10.7v.58l-9.57,12.46h9.57v.94h-11V752l9.56-12.46h-9.22v-.94Zm-45.35-.24a7.08,7.08,0,0,1,3.11.63,8.47,8.47,0,0,1,2.32,1.61l-.74.76a7.23,7.23,0,0,0-2-1.47,5.84,5.84,0,0,0-2.69-.59,5.6,5.6,0,0,0-3,.84,5.88,5.88,0,0,0-2.15,2.22,6.74,6.74,0,0,0-.78,3.18h0a6.89,6.89,0,0,0,.79,3.2,6,6,0,0,0,2.11,2.24,5.67,5.67,0,0,0,3,.85,6.1,6.1,0,0,0,2.63-.56,8.31,8.31,0,0,0,2.18-1.62l.7.68a8.73,8.73,0,0,1-2.4,1.77,7.4,7.4,0,0,1-3.15.67,7.12,7.12,0,0,1-3.57-1,7,7,0,0,1-2.46-2.57,7.78,7.78,0,0,1-.92-3.65h0a7.64,7.64,0,0,1,.92-3.63,6.85,6.85,0,0,1,6.07-3.6Zm-22.67,0a7.15,7.15,0,0,1,6.25,3.58,7.25,7.25,0,0,1-12.53,7.3,7.24,7.24,0,0,1,2.6-9.88,7.24,7.24,0,0,1,3.68-1Zm51.88-.36h1v14.58h-1V750.3a6.22,6.22,0,0,1-1.67,1.76,4.53,4.53,0,0,1-2.53.76,5,5,0,0,1-2.37-.64,5.12,5.12,0,0,1-1.79-1.82,5.68,5.68,0,0,1-.74-2.84h0a5.7,5.7,0,0,1,.74-2.86,5.12,5.12,0,0,1,1.84-1.83,4.61,4.61,0,0,1,2.37-.64,4.51,4.51,0,0,1,2.55.73,5.81,5.81,0,0,1,1.65,1.7Z" transform="translate(2.56)"/></g></g></g></g></g></g></g></g></g><polygon class="cls-1" points="2.56 768 1367.89 768 1367.89 0 2.56 0 2.56 768 2.56 768"/></g><g id="Layer_3" data-name="Layer 3"><path class="cls-4" d="M678.83,685.13,653,696.25c-3.8,3.31.21,9.31,4.58,9.56l21.62-8.09-.4-12.6Z" transform="translate(2.56)"/><path class="cls-11" d="M678.83,685.13,653,696.25c-3.8,3.31.21,9.31,4.58,9.56l21.62-8.09-.4-12.6Z" transform="translate(2.56)"/><g class="cls-12"><path class="cls-2" d="M678.56,690.86l-17.68,7.3c-2,1.75,3.46,3.76,6.45,3.66l11.45-4.29-.22-6.67Z" transform="translate(2.56)"/><path class="cls-13" d="M678.56,690.86l-17.68,7.3c-2,1.75,3.46,3.76,6.45,3.66l11.45-4.29-.22-6.67Z" transform="translate(2.56)"/><g class="cls-12"><path class="cls-4" d="M680.35,708.38l-26.65-12c-4.3.21-4,8.9.86,13.3l28.55,13.07-.19-13.24Z" transform="translate(2.56)"/><path class="cls-11" d="M680.09,708.15l-26.6-12.1c-3,.81-4.08,9,.82,13.36l28.45,12.41-.1-12.58Z" transform="translate(2.56)"/><g class="cls-12"><path class="cls-2" d="M679.66,711.67,658.25,702c-3.34-.09-2.67,5.88,1.39,9.16l22.75,10.24v-8.53Z" transform="translate(2.56)"/><g class="cls-12"><path class="cls-4" d="M686.49,704.93l25.81-11.12c3.8-3.31-.21-9.31-4.58-9.56l-21.63,8.1.4,12.59Z" transform="translate(2.56)"/><path class="cls-11" d="M686.49,704.93l25.81-11.12c3.8-3.31-.21-9.31-4.58-9.56l-21.63,8.1.4,12.59Z" transform="translate(2.56)"/><g class="cls-12"><path class="cls-2" d="M686.76,699.2l17.68-7.3c2-1.75-3.46-3.76-6.44-3.65l-11.45,4.28.21,6.67Z" transform="translate(2.56)"/><path class="cls-13" d="M686.76,699.2l17.68-7.3c2-1.75-3.46-3.76-6.44-3.65l-11.45,4.28.21,6.67Z" transform="translate(2.56)"/><g class="cls-12"><path class="cls-4" d="M685.15,681.36l26.65,12c4.3-.21,4-8.91-.87-13.3l-28.46-12.06.11,12.23,2.57,1.08Z" transform="translate(2.56)"/><path class="cls-11" d="M685.23,681.91,711.89,694c3-1.26,3.25-9-.87-13.3l-28.69-12.3.33,12.47,2.57,1.08Z" transform="translate(2.56)"/><g class="cls-12"><path class="cls-2" d="M685.05,678.07l21.44,9.69c3.34.09,2.67-5.89-1.39-9.16l-23-10.5.2,8.79,2.71,1.18Z" transform="translate(2.56)"/></g></g></g></g></g></g></g></g></svg>