<svg id="Layer_1" data-name="Layer 1" xmlns="http://www.w3.org/2000/svg" xmlns:xlink="http://www.w3.org/1999/xlink" viewBox="0 0 1365.33 768"><defs><clipPath id="clip-path"><polygon points="0 768 1365.33 768 1365.33 0 0 0 0 768 0 768" fill="none" clip-rule="evenodd"/></clipPath></defs><polygon points="0 0 1365.33 0 1365.33 768 0 768 0 0 0 0" fill="#fff" fill-rule="evenodd"/><path d="M291,585.33ZM213.5,498.41Zm22.08-22.08h305a22.07,22.07,0,0,1,22.07,22.08h0a22.07,22.07,0,0,1-22.07,22.07H498.8l-1.13.35a22.18,22.18,0,0,0-11.75,11.75l-1.73,8.59,1.73,8.6a22.14,22.14,0,0,0,13.77,12.49l6.57,1h65.08a22.07,22.07,0,0,1,22.07,22.08h0a22.07,22.07,0,0,1-22.07,22.07H313.05a22.07,22.07,0,0,1-20.33-13.48L291,585.33l1.74-8.6a22.07,22.07,0,0,1,20.33-13.48h95.87l3.36-1a22.09,22.09,0,0,0,13.48-20.34h0a22.08,22.08,0,0,0-13.48-20.34l-3.36-1H235.58A22.08,22.08,0,0,1,215.24,507l-1.74-8.59,1.74-8.6a22.08,22.08,0,0,1,20.34-13.48Z" fill="#1d1d26" fill-rule="evenodd" opacity="0.24"/><path d="M286.38,332.91ZM208.9,246ZM231,223.91H536A22.08,22.08,0,0,1,558.08,246h0A22.08,22.08,0,0,1,536,268.07H494.19l-1.13.35a22.15,22.15,0,0,0-11.75,11.75l-1.73,8.59,1.73,8.59a22.15,22.15,0,0,0,13.78,12.49l6.56,1h65.08a22.08,22.08,0,0,1,22.07,22.08h0A22.08,22.08,0,0,1,566.73,355H308.45a22.07,22.07,0,0,1-20.34-13.49l-1.73-8.59,1.73-8.59a22.07,22.07,0,0,1,20.34-13.49h95.86l3.36-1a22.09,22.09,0,0,0,13.48-20.34h0a22.09,22.09,0,0,0-13.48-20.34l-3.36-1H231a22.08,22.08,0,0,1-20.34-13.49L208.9,246l1.73-8.59A22.08,22.08,0,0,1,231,223.91Z" fill="#1d1d26" fill-rule="evenodd" opacity="0.24"/><path d="M705.31,289.08h1.13v1.46h-1.13v-1.46ZM684,279.41v5.85h3.28a4.35,4.35,0,0,0,2.69-.8,2.63,2.63,0,0,0,1-2.13v0a2.59,2.59,0,0,0-1-2.15,4.28,4.28,0,0,0-2.62-.73Zm-9.93-.22a5,5,0,0,0-2.63.72,5.06,5.06,0,0,0-1.78,1.92,5.74,5.74,0,0,0-.66,2.7v0a5.69,5.69,0,0,0,.67,2.71,5,5,0,0,0,1.8,1.93,4.93,4.93,0,0,0,2.63.74,4.9,4.9,0,0,0,4.41-2.65,5.73,5.73,0,0,0,.66-2.69v0a5.77,5.77,0,0,0-.66-2.7,5.12,5.12,0,0,0-1.81-1.94,4.92,4.92,0,0,0-2.63-.73Zm-14.51,0a4.94,4.94,0,0,0-2.62.72,5.08,5.08,0,0,0-1.79,1.92,5.74,5.74,0,0,0-.66,2.7v0a5.69,5.69,0,0,0,.67,2.71,5.14,5.14,0,0,0,1.8,1.93,5,5,0,0,0,7-1.91,5.73,5.73,0,0,0,.66-2.69v0a5.77,5.77,0,0,0-.67-2.7,5.17,5.17,0,0,0-1.8-1.94,5,5,0,0,0-2.64-.73Zm45.79-.6h1v1.19l-.25,7.63h-.48l-.26-7.63v-1.19Zm-22.24,0h4.34a5.1,5.1,0,0,1,3.2,1,3.29,3.29,0,0,1,1.24,2.69v0a3.47,3.47,0,0,1-.66,2.11,3.87,3.87,0,0,1-1.69,1.27,6,6,0,0,1-2.31.43H684v4.46h-.89v-12Zm15-.17a6.44,6.44,0,0,1,2.25.36,6.56,6.56,0,0,1,1.85,1.09l-.57.7a5.57,5.57,0,0,0-1.71-1,5.42,5.42,0,0,0-1.86-.31,3.38,3.38,0,0,0-2.11.66,2,2,0,0,0-.8,1.59v0a2,2,0,0,0,.27,1.11,2.32,2.32,0,0,0,1,.84,9,9,0,0,0,2.16.66,6.83,6.83,0,0,1,3,1.2,2.58,2.58,0,0,1,.92,2.09v0a3,3,0,0,1-1.11,2.35,4.5,4.5,0,0,1-2.85.91,6.7,6.7,0,0,1-2.58-.48,7.71,7.71,0,0,1-2.23-1.44l.58-.66a6.86,6.86,0,0,0,2,1.34,5.6,5.6,0,0,0,2.31.43,3.44,3.44,0,0,0,2.18-.67,2.17,2.17,0,0,0,.84-1.7v0a2.07,2.07,0,0,0-.28-1.1,2.24,2.24,0,0,0-1-.82,9,9,0,0,0-2.08-.63,6.83,6.83,0,0,1-3.09-1.22,2.59,2.59,0,0,1-.94-2.14v0a2.86,2.86,0,0,1,1.09-2.24,4.3,4.3,0,0,1,2.75-.9Zm-24,0a6,6,0,0,1,3.16.87,5.81,5.81,0,0,1,2.08,2.24,6.28,6.28,0,0,1,.75,3l0,0h0a6.46,6.46,0,0,1-.75,3.05,5.87,5.87,0,0,1-5.27,3.13,5.81,5.81,0,0,1-5.24-3.1,6.54,6.54,0,0,1-.75-3v0a6.47,6.47,0,0,1,.76-3.05,5.87,5.87,0,0,1,2.09-2.25,6,6,0,0,1,3.17-.88Zm-14.5,0a6,6,0,0,1,3.16.87,5.89,5.89,0,0,1,2.08,2.24,6.51,6.51,0,0,1,.75,3v0h0a6.47,6.47,0,0,1-.76,3.05,5.87,5.87,0,0,1-5.27,3.13,5.81,5.81,0,0,1-5.24-3.1,6.54,6.54,0,0,1-.75-3v0a6.47,6.47,0,0,1,.76-3.05,5.87,5.87,0,0,1,5.27-3.13Z" fill="#1d1d26" fill-rule="evenodd"/><path d="M705.31,289.08h1.13v1.46h-1.13v-1.46ZM684,279.41v5.85h3.28a4.35,4.35,0,0,0,2.69-.8,2.63,2.63,0,0,0,1-2.13v0a2.59,2.59,0,0,0-1-2.15,4.28,4.28,0,0,0-2.62-.73Zm-9.93-.22a5,5,0,0,0-2.63.72,5.06,5.06,0,0,0-1.78,1.92,5.74,5.74,0,0,0-.66,2.7v0a5.69,5.69,0,0,0,.67,2.71,5,5,0,0,0,1.8,1.93,4.93,4.93,0,0,0,2.63.74,4.9,4.9,0,0,0,4.41-2.65,5.73,5.73,0,0,0,.66-2.69v0a5.77,5.77,0,0,0-.66-2.7,5.12,5.12,0,0,0-1.81-1.94,4.92,4.92,0,0,0-2.63-.73Zm-14.51,0a4.94,4.94,0,0,0-2.62.72,5.08,5.08,0,0,0-1.79,1.92,5.74,5.74,0,0,0-.66,2.7v0a5.69,5.69,0,0,0,.67,2.71,5.14,5.14,0,0,0,1.8,1.93,5,5,0,0,0,7-1.91,5.73,5.73,0,0,0,.66-2.69v0a5.77,5.77,0,0,0-.67-2.7,5.17,5.17,0,0,0-1.8-1.94,5,5,0,0,0-2.64-.73Zm45.79-.6h1v1.19l-.25,7.63h-.48l-.26-7.63v-1.19Zm-22.24,0h4.34a5.1,5.1,0,0,1,3.2,1,3.29,3.29,0,0,1,1.24,2.69v0a3.47,3.47,0,0,1-.66,2.11,3.87,3.87,0,0,1-1.69,1.27,6,6,0,0,1-2.31.43H684v4.46h-.89v-12Zm15-.17a6.44,6.44,0,0,1,2.25.36,6.56,6.56,0,0,1,1.85,1.09l-.57.7a5.57,5.57,0,0,0-1.71-1,5.42,5.42,0,0,0-1.86-.31,3.38,3.38,0,0,0-2.11.66,2,2,0,0,0-.8,1.59v0a2,2,0,0,0,.27,1.11,2.32,2.32,0,0,0,1,.84,9,9,0,0,0,2.16.66,6.83,6.83,0,0,1,3,1.2,2.58,2.58,0,0,1,.92,2.09v0a3,3,0,0,1-1.11,2.35,4.5,4.5,0,0,1-2.85.91,6.7,6.7,0,0,1-2.58-.48,7.71,7.71,0,0,1-2.23-1.44l.58-.66a6.86,6.86,0,0,0,2,1.34,5.6,5.6,0,0,0,2.31.43,3.44,3.44,0,0,0,2.18-.67,2.17,2.17,0,0,0,.84-1.7v0a2.07,2.07,0,0,0-.28-1.1,2.24,2.24,0,0,0-1-.82,9,9,0,0,0-2.08-.63,6.83,6.83,0,0,1-3.09-1.22,2.59,2.59,0,0,1-.94-2.14v0a2.86,2.86,0,0,1,1.09-2.24,4.3,4.3,0,0,1,2.75-.9Zm-24,0a6,6,0,0,1,3.16.87,5.81,5.81,0,0,1,2.08,2.24,6.28,6.28,0,0,1,.75,3l0,0h0a6.46,6.46,0,0,1-.75,3.05,5.87,5.87,0,0,1-5.27,3.13,5.81,5.81,0,0,1-5.24-3.1,6.54,6.54,0,0,1-.75-3v0a6.47,6.47,0,0,1,.76-3.05,5.87,5.87,0,0,1,2.09-2.25,6,6,0,0,1,3.17-.88Zm-14.5,0a6,6,0,0,1,3.16.87,5.89,5.89,0,0,1,2.08,2.24,6.51,6.51,0,0,1,.75,3v0h0a6.47,6.47,0,0,1-.76,3.05,5.87,5.87,0,0,1-5.27,3.13,5.81,5.81,0,0,1-5.24-3.1,6.54,6.54,0,0,1-.75-3v0a6.47,6.47,0,0,1,.76-3.05,5.87,5.87,0,0,1,5.27-3.13Z" fill="none" stroke="#1d1d26" stroke-linejoin="round" stroke-width="1.56"/><g clip-path="url(#clip-path)"><path d="M820.11,493.57h1.13V495h-1.13v-1.45Zm-76.24-4.16v4.79h4.34a4.09,4.09,0,0,0,2.44-.65,2.13,2.13,0,0,0,.9-1.79v0a1.92,1.92,0,0,0-.93-1.71,5,5,0,0,0-2.7-.61Zm53.25-5.51v10.3h3.09a6,6,0,0,0,2.89-.69,4.84,4.84,0,0,0,1.87-1.83,5.27,5.27,0,0,0,.67-2.6v0a5.29,5.29,0,0,0-.67-2.6,5,5,0,0,0-1.87-1.85,5.89,5.89,0,0,0-2.89-.7Zm-53.25,0v4.69h3.94A3.58,3.58,0,0,0,750,488a2.19,2.19,0,0,0,.87-1.82v0a2,2,0,0,0-.78-1.6,3.59,3.59,0,0,0-2.21-.6Zm-125.27,0v10.3h3.09a6,6,0,0,0,2.89-.69,4.77,4.77,0,0,0,1.87-1.83,5.27,5.27,0,0,0,.67-2.6v0a5.29,5.29,0,0,0-.67-2.6,4.89,4.89,0,0,0-1.87-1.85,5.86,5.86,0,0,0-2.89-.7Zm-44.2,0v5.37h4a4,4,0,0,0,2.49-.72,2.42,2.42,0,0,0,1-2v0a2.33,2.33,0,0,0-.9-1.91,4.07,4.07,0,0,0-2.53-.7Zm186.33-.23a5,5,0,0,0-2.62.73,5.08,5.08,0,0,0-1.79,1.92,5.61,5.61,0,0,0-.65,2.7v0a5.69,5.69,0,0,0,.66,2.71,5.22,5.22,0,0,0,1.8,1.93,5,5,0,0,0,7-1.91,5.74,5.74,0,0,0,.66-2.7v0a5.69,5.69,0,0,0-.67-2.71,5.22,5.22,0,0,0-1.8-1.93,5,5,0,0,0-2.64-.74Zm-43.17,0a5,5,0,0,0-2.63.73,5.16,5.16,0,0,0-1.79,1.92,5.61,5.61,0,0,0-.65,2.7v0a5.69,5.69,0,0,0,.66,2.71,5.22,5.22,0,0,0,1.8,1.93,5.09,5.09,0,0,0,5.27,0,5.14,5.14,0,0,0,1.78-1.92,5.74,5.74,0,0,0,.66-2.7v0a5.69,5.69,0,0,0-.67-2.71,5.14,5.14,0,0,0-1.8-1.93,5,5,0,0,0-2.63-.74Zm-43.7,0a5,5,0,0,0-2.62.73,5.08,5.08,0,0,0-1.79,1.92,5.61,5.61,0,0,0-.65,2.7v0a5.69,5.69,0,0,0,.66,2.71,5.22,5.22,0,0,0,1.8,1.93,5.09,5.09,0,0,0,5.27,0,5.14,5.14,0,0,0,1.78-1.92,5.74,5.74,0,0,0,.66-2.7v0a5.69,5.69,0,0,0-.67-2.71,5.22,5.22,0,0,0-1.8-1.93,5,5,0,0,0-2.64-.74Zm-65.19,0a4.9,4.9,0,0,0-4.41,2.65,5.74,5.74,0,0,0-.66,2.7v0a5.69,5.69,0,0,0,.67,2.71,5,5,0,0,0,7.06,1.94,5.16,5.16,0,0,0,1.79-1.92,5.61,5.61,0,0,0,.65-2.7v0a5.81,5.81,0,0,0-.66-2.71,5.22,5.22,0,0,0-1.8-1.93,5.08,5.08,0,0,0-2.64-.74Zm-57.17,0a5,5,0,0,0-2.63.73,5.06,5.06,0,0,0-1.78,1.92,5.74,5.74,0,0,0-.66,2.7v0a5.81,5.81,0,0,0,.66,2.71,5.16,5.16,0,0,0,1.81,1.93,5,5,0,0,0,2.63.74,4.9,4.9,0,0,0,4.41-2.65,5.74,5.74,0,0,0,.66-2.7v0a5.69,5.69,0,0,0-.67-2.71,5,5,0,0,0-4.43-2.67Zm268.68-.59h1v1.19l-.26,7.63h-.48l-.25-7.63v-1.19Zm-23.95,0h4a6.89,6.89,0,0,1,3.31.79,5.81,5.81,0,0,1,2.23,2.11,5.92,5.92,0,0,1,.81,3v0a6,6,0,0,1-.81,3,5.79,5.79,0,0,1-2.23,2.13,6.89,6.89,0,0,1-3.31.8h-4V483.08Zm-13.48,0h.84l8.24,10.39V483.08h.85V495H792l-8.42-10.61V495h-.85V483.08Zm-13.16,0h.89V490a4.75,4.75,0,0,0,1.07,3.28,3.91,3.91,0,0,0,3,1.16,3.84,3.84,0,0,0,2.9-1.1,4.51,4.51,0,0,0,1.08-3.25v-7h.89V490a5.45,5.45,0,0,1-1.36,3.92,4.79,4.79,0,0,1-3.54,1.34,4.86,4.86,0,0,1-3.52-1.32,5.26,5.26,0,0,1-1.38-3.83Zm-26.61,0h4.94a4.63,4.63,0,0,1,2.8.79,2.6,2.6,0,0,1,1.07,2.14v0a2.78,2.78,0,0,1-.65,1.87,3.53,3.53,0,0,1-1.38,1,4.43,4.43,0,0,1,1.89.94,2.55,2.55,0,0,1,.81,1.91v0a2.87,2.87,0,0,1-1.18,2.38,5.08,5.08,0,0,1-3.11.88H743V483.08Zm-16.38,0H735v.82h-7.52v4.89h6.76v.82h-6.76V495h-.89V483.08Zm-31.57,0h9.21v.82h-4.16V495h-.89V483.9H695v-.82Zm-12.31,0h.89V490a4.71,4.71,0,0,0,1.08,3.28,3.87,3.87,0,0,0,3,1.16,3.84,3.84,0,0,0,2.9-1.1,4.51,4.51,0,0,0,1.08-3.25v-7h.89V490a5.45,5.45,0,0,1-1.36,3.92,4.79,4.79,0,0,1-3.54,1.34,4.86,4.86,0,0,1-3.52-1.32,5.3,5.3,0,0,1-1.38-3.83Zm-34.85,0h.89V495h-.89V483.08Zm-16.84,0h8.5v.82h-7.62v4.69h6.85v.82h-6.85v4.79h7.7V495H631V483.08Zm-13.31,0h4a6.93,6.93,0,0,1,3.32.79,5.71,5.71,0,0,1,2.22,2.11,5.92,5.92,0,0,1,.81,3v0a6,6,0,0,1-.81,3,5.69,5.69,0,0,1-2.22,2.13,6.93,6.93,0,0,1-3.32.8h-4V483.08Zm-44.21,0h5a4.82,4.82,0,0,1,3.1.95,3.06,3.06,0,0,1,1.17,2.44v0a3,3,0,0,1-1,2.35,4.57,4.57,0,0,1-2.5,1.06l3.94,5.1h-1.13l-3.8-4.95H574.4V495h-.89V483.08Zm-13.16,0h.89V490a4.71,4.71,0,0,0,1.08,3.28,3.88,3.88,0,0,0,3,1.16,3.83,3.83,0,0,0,2.89-1.1,4.51,4.51,0,0,0,1.08-3.25v-7h.89V490a5.45,5.45,0,0,1-1.36,3.92,4.77,4.77,0,0,1-3.54,1.34,4.86,4.86,0,0,1-3.52-1.32,5.3,5.3,0,0,1-1.38-3.83Zm-26.81,0h1.11l4.47,6.41,4.49-6.41h1.06l-5.12,7.2V495h-.89V490.3l-5.12-7.22Zm279.38-.17a6,6,0,0,1,4.1,1.45l-.56.7a5.32,5.32,0,0,0-1.72-1,5.17,5.17,0,0,0-1.85-.31,3.29,3.29,0,0,0-2.12.66A2,2,0,0,0,810,486v0a2,2,0,0,0,.27,1.11,2.39,2.39,0,0,0,1,.85,9.84,9.84,0,0,0,2.16.66,6.61,6.61,0,0,1,3,1.2,2.56,2.56,0,0,1,.93,2.09v0a3,3,0,0,1-1.12,2.36,4.41,4.41,0,0,1-2.84.9,6.75,6.75,0,0,1-2.59-.47,7.66,7.66,0,0,1-2.22-1.44l.58-.66a7,7,0,0,0,2,1.34,5.8,5.8,0,0,0,2.31.43,3.48,3.48,0,0,0,2.18-.67,2.11,2.11,0,0,0,.84-1.7v0a2,2,0,0,0-.27-1.09,2.29,2.29,0,0,0-1-.83,9.38,9.38,0,0,0-2.08-.62,7,7,0,0,1-3.09-1.22,2.61,2.61,0,0,1-.94-2.14v0a2.91,2.91,0,0,1,1.09-2.24,4.32,4.32,0,0,1,2.75-.9Zm-157,0a6.4,6.4,0,0,1,2.25.36,6.56,6.56,0,0,1,1.85,1.09l-.57.7a5.38,5.38,0,0,0-1.71-1,5.17,5.17,0,0,0-1.85-.31,3.29,3.29,0,0,0-2.12.66A2,2,0,0,0,653,486v0a2,2,0,0,0,.27,1.11,2.33,2.33,0,0,0,1,.85,9.5,9.5,0,0,0,2.16.66,6.71,6.71,0,0,1,3,1.2,2.59,2.59,0,0,1,.93,2.09v0a3,3,0,0,1-1.12,2.36,4.41,4.41,0,0,1-2.84.9,6.75,6.75,0,0,1-2.59-.47,7.71,7.71,0,0,1-2.23-1.44l.58-.66a7.14,7.14,0,0,0,2,1.34,5.77,5.77,0,0,0,2.31.43,3.5,3.5,0,0,0,2.18-.67,2.17,2.17,0,0,0,.84-1.7v0a1.89,1.89,0,0,0-.28-1.09,2.32,2.32,0,0,0-1-.83,9.56,9.56,0,0,0-2.08-.62,7,7,0,0,1-3.09-1.22,2.59,2.59,0,0,1-.94-2.14v0a2.85,2.85,0,0,1,1.09-2.24,4.3,4.3,0,0,1,2.75-.9Zm104.86,0a6,6,0,0,1,3.16.87A5.86,5.86,0,0,1,766,486a6.55,6.55,0,0,1,.75,3h0s0,0,0,0a6.47,6.47,0,0,1-.76,3.05,5.87,5.87,0,0,1-5.27,3.13,6,6,0,0,1-3.16-.87,5.94,5.94,0,0,1-2.08-2.23,6.55,6.55,0,0,1-.75-3.05v0a6.47,6.47,0,0,1,.76-3.05,5.87,5.87,0,0,1,5.27-3.13Zm-43.18,0a6,6,0,0,1,3.16.87,5.79,5.79,0,0,1,2.08,2.23,6.55,6.55,0,0,1,.75,3h0s0,0,0,0a6.47,6.47,0,0,1-.76,3.05,5.84,5.84,0,0,1-5.26,3.13,6.05,6.05,0,0,1-3.17-.87,5.94,5.94,0,0,1-2.08-2.23,6.43,6.43,0,0,1-.74-3.05v0a6.46,6.46,0,0,1,.75-3.05,5.87,5.87,0,0,1,5.27-3.13Zm-43.69,0a6,6,0,0,1,3.16.87,5.86,5.86,0,0,1,2.08,2.23,6.55,6.55,0,0,1,.75,3h0s0,0,0,0a6.47,6.47,0,0,1-.76,3.05,5.87,5.87,0,0,1-5.27,3.13,6,6,0,0,1-3.16-.87,5.94,5.94,0,0,1-2.08-2.23,6.55,6.55,0,0,1-.75-3.05v0a6.47,6.47,0,0,1,.76-3.05,5.87,5.87,0,0,1,5.27-3.13Zm-65.2,0a6.05,6.05,0,0,1,3.17.87A5.94,5.94,0,0,1,614,486a6.43,6.43,0,0,1,.74,3h0s0,0,0,0a6.46,6.46,0,0,1-.75,3.05,6.06,6.06,0,0,1-8.43,2.26,5.79,5.79,0,0,1-2.08-2.23,6.55,6.55,0,0,1-.75-3.05v0a6.47,6.47,0,0,1,.76-3.05,5.84,5.84,0,0,1,5.26-3.13Zm-12.33,0a6.43,6.43,0,0,1,2.66.53,7.84,7.84,0,0,1,2,1.38l-.63.65a7,7,0,0,0-1.74-1.26,5.22,5.22,0,0,0-2.29-.5,4.85,4.85,0,0,0-2.58.72A5,5,0,0,0,592,486.3a5.76,5.76,0,0,0-.67,2.72v0a5.76,5.76,0,0,0,.68,2.74,5.09,5.09,0,0,0,1.8,1.91,4.91,4.91,0,0,0,2.58.73,5.16,5.16,0,0,0,2.24-.49,7,7,0,0,0,1.87-1.37l.6.58a7.6,7.6,0,0,1-2.06,1.5,6,6,0,0,1-2.69.58,5.78,5.78,0,0,1-5.16-3,6.44,6.44,0,0,1-.78-3.12v0a6.45,6.45,0,0,1,.78-3.1,6.1,6.1,0,0,1,2.11-2.23,6,6,0,0,1,3.09-.85Zm-44.84,0a6,6,0,0,1,3.16.87,5.79,5.79,0,0,1,2.08,2.23,6.55,6.55,0,0,1,.75,3h0s0,0,0,0a6.47,6.47,0,0,1-.76,3.05,5.87,5.87,0,0,1-2.09,2.25,6.16,6.16,0,0,1-6.33,0,5.79,5.79,0,0,1-2.08-2.23,6.32,6.32,0,0,1-.75-3.05v0a6.46,6.46,0,0,1,.75-3.05,5.87,5.87,0,0,1,5.27-3.13Z" fill="#1d1d26" fill-rule="evenodd"/><path d="M820.11,493.57h1.13V495h-1.13v-1.45Zm-76.24-4.16v4.79h4.34a4.09,4.09,0,0,0,2.44-.65,2.13,2.13,0,0,0,.9-1.79v0a1.92,1.92,0,0,0-.93-1.71,5,5,0,0,0-2.7-.61Zm53.25-5.51v10.3h3.09a6,6,0,0,0,2.89-.69,4.84,4.84,0,0,0,1.87-1.83,5.27,5.27,0,0,0,.67-2.6v0a5.29,5.29,0,0,0-.67-2.6,5,5,0,0,0-1.87-1.85,5.89,5.89,0,0,0-2.89-.7Zm-53.25,0v4.69h3.94A3.58,3.58,0,0,0,750,488a2.19,2.19,0,0,0,.87-1.82v0a2,2,0,0,0-.78-1.6,3.59,3.59,0,0,0-2.21-.6Zm-125.27,0v10.3h3.09a6,6,0,0,0,2.89-.69,4.77,4.77,0,0,0,1.87-1.83,5.27,5.27,0,0,0,.67-2.6v0a5.29,5.29,0,0,0-.67-2.6,4.89,4.89,0,0,0-1.87-1.85,5.86,5.86,0,0,0-2.89-.7Zm-44.2,0v5.37h4a4,4,0,0,0,2.49-.72,2.42,2.42,0,0,0,1-2v0a2.33,2.33,0,0,0-.9-1.91,4.07,4.07,0,0,0-2.53-.7Zm186.33-.23a5,5,0,0,0-2.62.73,5.08,5.08,0,0,0-1.79,1.92,5.61,5.61,0,0,0-.65,2.7v0a5.69,5.69,0,0,0,.66,2.71,5.22,5.22,0,0,0,1.8,1.93,5,5,0,0,0,7-1.91,5.74,5.74,0,0,0,.66-2.7v0a5.69,5.69,0,0,0-.67-2.71,5.22,5.22,0,0,0-1.8-1.93,5,5,0,0,0-2.64-.74Zm-43.17,0a5,5,0,0,0-2.63.73,5.16,5.16,0,0,0-1.79,1.92,5.61,5.61,0,0,0-.65,2.7v0a5.69,5.69,0,0,0,.66,2.71,5.22,5.22,0,0,0,1.8,1.93,5.09,5.09,0,0,0,5.27,0,5.14,5.14,0,0,0,1.78-1.92,5.74,5.74,0,0,0,.66-2.7v0a5.69,5.69,0,0,0-.67-2.71,5.14,5.14,0,0,0-1.8-1.93,5,5,0,0,0-2.63-.74Zm-43.7,0a5,5,0,0,0-2.62.73,5.08,5.08,0,0,0-1.79,1.92,5.61,5.61,0,0,0-.65,2.7v0a5.69,5.69,0,0,0,.66,2.71,5.22,5.22,0,0,0,1.8,1.93,5.09,5.09,0,0,0,5.27,0,5.14,5.14,0,0,0,1.78-1.92,5.74,5.74,0,0,0,.66-2.7v0a5.69,5.69,0,0,0-.67-2.71,5.22,5.22,0,0,0-1.8-1.93,5,5,0,0,0-2.64-.74Zm-65.19,0a4.9,4.9,0,0,0-4.41,2.65,5.74,5.74,0,0,0-.66,2.7v0a5.69,5.69,0,0,0,.67,2.71,5,5,0,0,0,7.06,1.94,5.16,5.16,0,0,0,1.79-1.92,5.61,5.61,0,0,0,.65-2.7v0a5.81,5.81,0,0,0-.66-2.71,5.22,5.22,0,0,0-1.8-1.93,5.08,5.08,0,0,0-2.64-.74Zm-57.17,0a5,5,0,0,0-2.63.73,5.06,5.06,0,0,0-1.78,1.92,5.74,5.74,0,0,0-.66,2.7v0a5.81,5.81,0,0,0,.66,2.71,5.16,5.16,0,0,0,1.81,1.93,5,5,0,0,0,2.63.74,4.9,4.9,0,0,0,4.41-2.65,5.74,5.74,0,0,0,.66-2.7v0a5.69,5.69,0,0,0-.67-2.71,5,5,0,0,0-4.43-2.67Zm268.68-.59h1v1.19l-.26,7.63h-.48l-.25-7.63v-1.19Zm-23.95,0h4a6.89,6.89,0,0,1,3.31.79,5.81,5.81,0,0,1,2.23,2.11,5.92,5.92,0,0,1,.81,3v0a6,6,0,0,1-.81,3,5.79,5.79,0,0,1-2.23,2.13,6.89,6.89,0,0,1-3.31.8h-4V483.08Zm-13.48,0h.84l8.24,10.39V483.08h.85V495H792l-8.42-10.61V495h-.85V483.08Zm-13.16,0h.89V490a4.75,4.75,0,0,0,1.07,3.28,3.91,3.91,0,0,0,3,1.16,3.84,3.84,0,0,0,2.9-1.1,4.51,4.51,0,0,0,1.08-3.25v-7h.89V490a5.45,5.45,0,0,1-1.36,3.92,4.79,4.79,0,0,1-3.54,1.34,4.86,4.86,0,0,1-3.52-1.32,5.26,5.26,0,0,1-1.38-3.83Zm-26.61,0h4.94a4.63,4.63,0,0,1,2.8.79,2.6,2.6,0,0,1,1.07,2.14v0a2.78,2.78,0,0,1-.65,1.87,3.53,3.53,0,0,1-1.38,1,4.43,4.43,0,0,1,1.89.94,2.55,2.55,0,0,1,.81,1.91v0a2.87,2.87,0,0,1-1.18,2.38,5.08,5.08,0,0,1-3.11.88H743V483.08Zm-16.38,0H735v.82h-7.52v4.89h6.76v.82h-6.76V495h-.89V483.08Zm-31.57,0h9.21v.82h-4.16V495h-.89V483.9H695v-.82Zm-12.31,0h.89V490a4.71,4.71,0,0,0,1.08,3.28,3.87,3.87,0,0,0,3,1.16,3.84,3.84,0,0,0,2.9-1.1,4.51,4.51,0,0,0,1.08-3.25v-7h.89V490a5.45,5.45,0,0,1-1.36,3.92,4.79,4.79,0,0,1-3.54,1.34,4.86,4.86,0,0,1-3.52-1.32,5.3,5.3,0,0,1-1.38-3.83Zm-34.85,0h.89V495h-.89V483.08Zm-16.84,0h8.5v.82h-7.62v4.69h6.85v.82h-6.85v4.79h7.7V495H631V483.08Zm-13.31,0h4a6.93,6.93,0,0,1,3.32.79,5.71,5.71,0,0,1,2.22,2.11,5.92,5.92,0,0,1,.81,3v0a6,6,0,0,1-.81,3,5.69,5.69,0,0,1-2.22,2.13,6.93,6.93,0,0,1-3.32.8h-4V483.08Zm-44.21,0h5a4.82,4.82,0,0,1,3.1.95,3.06,3.06,0,0,1,1.17,2.44v0a3,3,0,0,1-1,2.35,4.57,4.57,0,0,1-2.5,1.06l3.94,5.1h-1.13l-3.8-4.95H574.4V495h-.89V483.08Zm-13.16,0h.89V490a4.71,4.71,0,0,0,1.08,3.28,3.88,3.88,0,0,0,3,1.16,3.83,3.83,0,0,0,2.89-1.1,4.51,4.51,0,0,0,1.08-3.25v-7h.89V490a5.45,5.45,0,0,1-1.36,3.92,4.77,4.77,0,0,1-3.54,1.34,4.86,4.86,0,0,1-3.52-1.32,5.3,5.3,0,0,1-1.38-3.83Zm-26.81,0h1.11l4.47,6.41,4.49-6.41h1.06l-5.12,7.2V495h-.89V490.3l-5.12-7.22Zm279.38-.17a6,6,0,0,1,4.1,1.45l-.56.7a5.32,5.32,0,0,0-1.72-1,5.17,5.17,0,0,0-1.85-.31,3.29,3.29,0,0,0-2.12.66A2,2,0,0,0,810,486v0a2,2,0,0,0,.27,1.11,2.39,2.39,0,0,0,1,.85,9.84,9.84,0,0,0,2.16.66,6.61,6.61,0,0,1,3,1.2,2.56,2.56,0,0,1,.93,2.09v0a3,3,0,0,1-1.12,2.36,4.41,4.41,0,0,1-2.84.9,6.75,6.75,0,0,1-2.59-.47,7.66,7.66,0,0,1-2.22-1.44l.58-.66a7,7,0,0,0,2,1.34,5.8,5.8,0,0,0,2.31.43,3.48,3.48,0,0,0,2.18-.67,2.11,2.11,0,0,0,.84-1.7v0a2,2,0,0,0-.27-1.09,2.29,2.29,0,0,0-1-.83,9.38,9.38,0,0,0-2.08-.62,7,7,0,0,1-3.09-1.22,2.61,2.61,0,0,1-.94-2.14v0a2.91,2.91,0,0,1,1.09-2.24,4.32,4.32,0,0,1,2.75-.9Zm-157,0a6.4,6.4,0,0,1,2.25.36,6.56,6.56,0,0,1,1.85,1.09l-.57.7a5.38,5.38,0,0,0-1.71-1,5.17,5.17,0,0,0-1.85-.31,3.29,3.29,0,0,0-2.12.66A2,2,0,0,0,653,486v0a2,2,0,0,0,.27,1.11,2.33,2.33,0,0,0,1,.85,9.5,9.5,0,0,0,2.16.66,6.71,6.71,0,0,1,3,1.2,2.59,2.59,0,0,1,.93,2.09v0a3,3,0,0,1-1.12,2.36,4.41,4.41,0,0,1-2.84.9,6.75,6.75,0,0,1-2.59-.47,7.71,7.71,0,0,1-2.23-1.44l.58-.66a7.14,7.14,0,0,0,2,1.34,5.77,5.77,0,0,0,2.31.43,3.5,3.5,0,0,0,2.18-.67,2.17,2.17,0,0,0,.84-1.7v0a1.89,1.89,0,0,0-.28-1.09,2.32,2.32,0,0,0-1-.83,9.56,9.56,0,0,0-2.08-.62,7,7,0,0,1-3.09-1.22,2.59,2.59,0,0,1-.94-2.14v0a2.85,2.85,0,0,1,1.09-2.24,4.3,4.3,0,0,1,2.75-.9Zm104.86,0a6,6,0,0,1,3.16.87A5.86,5.86,0,0,1,766,486a6.55,6.55,0,0,1,.75,3h0s0,0,0,0a6.47,6.47,0,0,1-.76,3.05,5.87,5.87,0,0,1-5.27,3.13,6,6,0,0,1-3.16-.87,5.94,5.94,0,0,1-2.08-2.23,6.55,6.55,0,0,1-.75-3.05v0a6.47,6.47,0,0,1,.76-3.05,5.87,5.87,0,0,1,5.27-3.13Zm-43.18,0a6,6,0,0,1,3.16.87,5.79,5.79,0,0,1,2.08,2.23,6.55,6.55,0,0,1,.75,3h0s0,0,0,0a6.47,6.47,0,0,1-.76,3.05,5.84,5.84,0,0,1-5.26,3.13,6.05,6.05,0,0,1-3.17-.87,5.94,5.94,0,0,1-2.08-2.23,6.43,6.43,0,0,1-.74-3.05v0a6.46,6.46,0,0,1,.75-3.05,5.87,5.87,0,0,1,5.27-3.13Zm-43.69,0a6,6,0,0,1,3.16.87,5.86,5.86,0,0,1,2.08,2.23,6.55,6.55,0,0,1,.75,3h0s0,0,0,0a6.47,6.47,0,0,1-.76,3.05,5.87,5.87,0,0,1-5.27,3.13,6,6,0,0,1-3.16-.87,5.94,5.94,0,0,1-2.08-2.23,6.55,6.55,0,0,1-.75-3.05v0a6.47,6.47,0,0,1,.76-3.05,5.87,5.87,0,0,1,5.27-3.13Zm-65.2,0a6.05,6.05,0,0,1,3.17.87A5.94,5.94,0,0,1,614,486a6.43,6.43,0,0,1,.74,3h0s0,0,0,0a6.46,6.46,0,0,1-.75,3.05,6.06,6.06,0,0,1-8.43,2.26,5.79,5.79,0,0,1-2.08-2.23,6.55,6.55,0,0,1-.75-3.05v0a6.47,6.47,0,0,1,.76-3.05,5.84,5.84,0,0,1,5.26-3.13Zm-12.33,0a6.43,6.43,0,0,1,2.66.53,7.84,7.84,0,0,1,2,1.38l-.63.65a7,7,0,0,0-1.74-1.26,5.22,5.22,0,0,0-2.29-.5,4.85,4.85,0,0,0-2.58.72A5,5,0,0,0,592,486.3a5.76,5.76,0,0,0-.67,2.72v0a5.76,5.76,0,0,0,.68,2.74,5.09,5.09,0,0,0,1.8,1.91,4.91,4.91,0,0,0,2.58.73,5.16,5.16,0,0,0,2.24-.49,7,7,0,0,0,1.87-1.37l.6.58a7.6,7.6,0,0,1-2.06,1.5,6,6,0,0,1-2.69.58,5.78,5.78,0,0,1-5.16-3,6.44,6.44,0,0,1-.78-3.12v0a6.45,6.45,0,0,1,.78-3.1,6.1,6.1,0,0,1,2.11-2.23,6,6,0,0,1,3.09-.85Zm-44.84,0a6,6,0,0,1,3.16.87,5.79,5.79,0,0,1,2.08,2.23,6.55,6.55,0,0,1,.75,3h0s0,0,0,0a6.47,6.47,0,0,1-.76,3.05,5.87,5.87,0,0,1-2.09,2.25,6.16,6.16,0,0,1-6.33,0,5.79,5.79,0,0,1-2.08-2.23,6.32,6.32,0,0,1-.75-3.05v0a6.46,6.46,0,0,1,.75-3.05,5.87,5.87,0,0,1,5.27-3.13Z" fill="none" stroke="#1d1d26" stroke-linejoin="round" stroke-width="1.56"/><g clip-path="url(#clip-path)"><path d="M583.77,554.75a20.82,20.82,0,0,1,20.82-20.82H760.92a20.82,20.82,0,0,1,20.82,20.82h0a20.82,20.82,0,0,1-20.82,20.82H604.59a20.82,20.82,0,0,1-20.82-20.82Z" fill="none" stroke="#1d1d26" stroke-miterlimit="8" stroke-width="2.25"/><g clip-path="url(#clip-path)"><path d="M589.15,356.77l-32.78,39.45h32.78V356.77Zm-1.57-44h38.47V396h17.46v28.46H626.05v26.69h-36.9V424.48H522.61l-6.28-26.89,71.25-84.79Z" fill="#1d1d26" fill-rule="evenodd"/><path d="M589.15,356.77l-32.78,39.45h32.78V356.77Zm-1.57-44h38.47V396h17.46v28.46H626.05v26.69h-36.9V424.48H522.61l-6.28-26.89,71.25-84.79Z" fill="none" stroke="#1d1d26" stroke-linejoin="round" stroke-width="6"/><g clip-path="url(#clip-path)"><path d="M677.11,344.8q-11.49.27-18.23,10.4T652,382.09v.39q.15,16.78,7,27.08t18.5,10.6q11.61-.29,18.3-10.47t6.82-26.82v-.39q-.18-16.65-7.09-27T677.11,344.8ZM677.5,311q19.62.24,33.79,9.78a62.85,62.85,0,0,1,21.85,25.58,82.39,82.39,0,0,1,7.75,35.69v.39a82.6,82.6,0,0,1-7.81,35.79,63.55,63.55,0,0,1-22,25.76q-14.26,9.64-34,9.89-19.71-.24-33.88-9.78a62.59,62.59,0,0,1-21.8-25.58,82.81,82.81,0,0,1-7.72-35.69v-.39a82.48,82.48,0,0,1,7.86-35.79,64,64,0,0,1,22-25.77q14.28-9.63,33.9-9.88Z" fill="#fff" fill-rule="evenodd"/><path d="M677.11,344.8q-11.49.27-18.23,10.4T652,382.09v.39q.15,16.78,7,27.08t18.5,10.6q11.61-.29,18.3-10.47t6.82-26.82v-.39q-.18-16.65-7.09-27T677.11,344.8ZM677.5,311q19.62.24,33.79,9.78a62.85,62.85,0,0,1,21.85,25.58,82.39,82.39,0,0,1,7.75,35.69v.39a82.6,82.6,0,0,1-7.81,35.79,63.55,63.55,0,0,1-22,25.76q-14.26,9.64-34,9.89-19.71-.24-33.88-9.78a62.59,62.59,0,0,1-21.8-25.58,82.81,82.81,0,0,1-7.72-35.69v-.39a82.48,82.48,0,0,1,7.86-35.79,64,64,0,0,1,22-25.77q14.28-9.63,33.9-9.88Z" fill="none" stroke="#fff" stroke-linejoin="round" stroke-width="6"/><g clip-path="url(#clip-path)"><path d="M681,344.8q-11.49.27-18.23,10.4t-6.89,26.89v.39q.17,16.78,7,27.08t18.49,10.6q11.63-.29,18.31-10.47t6.82-26.82v-.39q-.18-16.65-7.09-27T681,344.8Zm.39-33.76q19.62.24,33.8,9.78A62.9,62.9,0,0,1,737,346.4a82.54,82.54,0,0,1,7.76,35.69v.39A82.6,82.6,0,0,1,737,418.27,63.55,63.55,0,0,1,715,444q-14.26,9.64-34,9.89-19.71-.24-33.88-9.78a62.66,62.66,0,0,1-21.8-25.58,82.66,82.66,0,0,1-7.71-35.69v-.39a82.33,82.33,0,0,1,7.85-35.79,63.91,63.91,0,0,1,22-25.77q14.26-9.63,33.89-9.88Z" fill="#1d1d26" fill-rule="evenodd"/><path d="M681,344.8q-11.49.27-18.23,10.4t-6.89,26.89v.39q.17,16.78,7,27.08t18.49,10.6q11.63-.29,18.31-10.47t6.82-26.82v-.39q-.18-16.65-7.09-27T681,344.8Zm.39-33.76q19.62.24,33.8,9.78A62.9,62.9,0,0,1,737,346.4a82.54,82.54,0,0,1,7.76,35.69v.39A82.6,82.6,0,0,1,737,418.27,63.55,63.55,0,0,1,715,444q-14.26,9.64-34,9.89-19.71-.24-33.88-9.78a62.66,62.66,0,0,1-21.8-25.58,82.66,82.66,0,0,1-7.71-35.69v-.39a82.33,82.33,0,0,1,7.85-35.79,63.91,63.91,0,0,1,22-25.77q14.26-9.63,33.89-9.88Z" fill="none" stroke="#1d1d26" stroke-linejoin="round" stroke-width="6"/><g clip-path="url(#clip-path)"><path d="M787.27,357.75,754.49,397.2h32.78V357.75Zm-1.57-44h38.47V397h17.47v28.45H824.17v26.7h-36.9v-26.7H720.74l-6.28-26.88,71.24-84.79Z" fill="#fff" fill-rule="evenodd"/><path d="M787.27,357.75,754.49,397.2h32.78V357.75Zm-1.57-44h38.47V397h17.47v28.45H824.17v26.7h-36.9v-26.7H720.74l-6.28-26.88,71.24-84.79Z" fill="none" stroke="#fff" stroke-linejoin="round" stroke-width="6"/><g clip-path="url(#clip-path)"><path d="M790.13,357.75,757.36,397.2h32.77V357.75Zm-1.57-44H827V397H844.5v28.45H827v26.7h-36.9v-26.7H723.6l-6.28-26.88,71.24-84.79Z" fill="#1d1d26" fill-rule="evenodd"/><path d="M790.13,357.75,757.36,397.2h32.77V357.75Zm-1.57-44H827V397H844.5v28.45H827v26.7h-36.9v-26.7H723.6l-6.28-26.88,71.24-84.79Z" fill="none" stroke="#1d1d26" stroke-linejoin="round" stroke-width="6"/><g clip-path="url(#clip-path)"><path d="M1148.93,366.65ZM868.58,344.58h258.28a22.09,22.09,0,0,1,20.34,13.48l1.73,8.59-1.73,8.6a22.09,22.09,0,0,1-20.34,13.48H1031l-3.36,1a22.09,22.09,0,0,0,0,40.68l3.36,1.05h173.34A22.09,22.09,0,0,1,1224.68,445l1.73,8.59-1.73,8.59a22.08,22.08,0,0,1-20.34,13.49h-305a22.08,22.08,0,0,1-22.07-22.08h0A22.08,22.08,0,0,1,899.3,431.5h41.82l1.13-.36A22.11,22.11,0,0,0,954,419.4l1.74-8.6L954,402.21a22.07,22.07,0,0,0-20.33-13.48H868.58a22.08,22.08,0,0,1-22.07-22.08h0a22.07,22.07,0,0,1,22.07-22.07Z" fill="#1d1d26" fill-rule="evenodd" opacity="0.24"/><g clip-path="url(#clip-path)"><path d="M673.26,741.73a3.91,3.91,0,0,0-2.83,1.15,4.56,4.56,0,0,0-1.16,3.21v0a4.55,4.55,0,0,0,1.19,3.2,3.88,3.88,0,0,0,2.8,1.19,4,4,0,0,0,2-.56,4.16,4.16,0,0,0,1.53-1.53,4.55,4.55,0,0,0,.61-2.28v0a4.6,4.6,0,0,0-.61-2.3,4.21,4.21,0,0,0-1.53-1.52,4,4,0,0,0-2-.56Zm38,0a4.06,4.06,0,0,0-3,1.29,4.52,4.52,0,0,0-1.17,3.09v0a4.46,4.46,0,0,0,1.21,3.12,4.05,4.05,0,0,0,3,1.29,4,4,0,0,0,3-1.29,4.48,4.48,0,0,0,1.17-3.08v0a4.5,4.5,0,0,0-1.21-3.13,4.05,4.05,0,0,0-3-1.29Zm-50.69,0a4.06,4.06,0,0,0-3,1.29,4.52,4.52,0,0,0-1.17,3.09v0a4.51,4.51,0,0,0,1.21,3.12,4.07,4.07,0,0,0,3,1.29,4,4,0,0,0,3-1.29,4.57,4.57,0,0,0,1.17-3.08v0a4.56,4.56,0,0,0-1.22-3.13,4.05,4.05,0,0,0-3-1.29Zm75.36,0a3.52,3.52,0,0,0-2.57,1.13,4.62,4.62,0,0,0-1.18,2.83h7.4a5.19,5.19,0,0,0-.49-1.94,3.57,3.57,0,0,0-1.21-1.45,3.36,3.36,0,0,0-1.95-.57Zm-49.84,0a3.5,3.5,0,0,0-2.56,1.13,4.69,4.69,0,0,0-1.19,2.83h7.41a5.38,5.38,0,0,0-.49-1.94,3.65,3.65,0,0,0-1.21-1.45,3.41,3.41,0,0,0-2-.57ZM736,740.8a4.41,4.41,0,0,1,2.48.71,4.51,4.51,0,0,1,1.61,1.89,6.29,6.29,0,0,1,.58,2.73v.21a1.76,1.76,0,0,1,0,.19h-8.44a4.37,4.37,0,0,0,1.31,3,3.88,3.88,0,0,0,2.68,1.06,4.36,4.36,0,0,0,2-.46,5.18,5.18,0,0,0,1.47-1.14l.68.6a6.18,6.18,0,0,1-1.76,1.38,5.34,5.34,0,0,1-2.45.54,4.9,4.9,0,0,1-2.48-.67,4.83,4.83,0,0,1-1.81-1.86,5.54,5.54,0,0,1-.7-2.78v0a5.77,5.77,0,0,1,.64-2.69,4.92,4.92,0,0,1,1.71-1.9,4.56,4.56,0,0,1,2.48-.72Zm-11.77,0a3.93,3.93,0,0,1,3,1.18,4.29,4.29,0,0,1,1.07,3v6.23h-1v-6.05a3.7,3.7,0,0,0-.85-2.53,3.13,3.13,0,0,0-2.39-.95,3.48,3.48,0,0,0-2.52,1,3.66,3.66,0,0,0-1,2.61v5.89h-1V741h1v1.9a4.3,4.3,0,0,1,1.39-1.52,4.19,4.19,0,0,1,2.28-.61Zm-12.9,0a5.09,5.09,0,0,1,4.53,2.65,5.35,5.35,0,0,1,.68,2.64v0a5.45,5.45,0,0,1-.69,2.65,5.19,5.19,0,0,1-1.85,1.93,5.27,5.27,0,0,1-5.4,0,5.26,5.26,0,0,1-1.84-1.91,5.4,5.4,0,0,1-.68-2.64v0a5.42,5.42,0,0,1,.69-2.65,5.12,5.12,0,0,1,4.56-2.68Zm-25.17,0a4.38,4.38,0,0,1,2.48.71,4.54,4.54,0,0,1,1.62,1.89,6.44,6.44,0,0,1,.58,2.73v0a.91.91,0,0,1,0,.17,1.42,1.42,0,0,1,0,.19h-8.45a4.38,4.38,0,0,0,1.32,3,3.85,3.85,0,0,0,2.67,1.06,4.41,4.41,0,0,0,2-.46,5.47,5.47,0,0,0,1.47-1.14l.68.6a6.33,6.33,0,0,1-1.76,1.38,5.39,5.39,0,0,1-2.46.54,4.93,4.93,0,0,1-2.48-.67,5,5,0,0,1-1.81-1.86,5.64,5.64,0,0,1-.7-2.78v0a5.77,5.77,0,0,1,.64-2.69,4.87,4.87,0,0,1,1.72-1.9,4.53,4.53,0,0,1,2.47-.72Zm-25.52,0a5.09,5.09,0,0,1,4.53,2.65,5.24,5.24,0,0,1,.68,2.64v0a5.31,5.31,0,0,1-2.54,4.58,5.27,5.27,0,0,1-5.4,0,5.26,5.26,0,0,1-1.84-1.91,5.51,5.51,0,0,1-.68-2.64v0a5.42,5.42,0,0,1,.69-2.65,5.3,5.3,0,0,1,1.85-1.94,5.21,5.21,0,0,1,2.71-.74Zm-35.06-.46a3.59,3.59,0,0,1,1.62.34,5.11,5.11,0,0,1,1.2.87l-.6.62a4.47,4.47,0,0,0-1-.73,2.86,2.86,0,0,0-1.26-.31,2.66,2.66,0,0,0-2,.88,3.2,3.2,0,0,0,0,4.21,2.64,2.64,0,0,0,2,.88,2.78,2.78,0,0,0,1.26-.27,4.37,4.37,0,0,0,1-.76l.56.56a4.93,4.93,0,0,1-1.24.92,3.58,3.58,0,0,1-1.64.35,3.49,3.49,0,0,1-2.58-1.1,3.83,3.83,0,0,1-1.05-2.67,3.89,3.89,0,0,1,1-2.67,3.56,3.56,0,0,1,2.61-1.12Zm-.08-2.78a6.71,6.71,0,0,0-3.41.92,6.59,6.59,0,0,0-2.35,2.4,6.91,6.91,0,0,0,0,6.73,6.44,6.44,0,0,0,2.34,2.38,6.73,6.73,0,0,0,3.39.91,6.66,6.66,0,0,0,3.41-.92,6.54,6.54,0,0,0,2.36-2.4,6.91,6.91,0,0,0,0-6.73,6.44,6.44,0,0,0-2.34-2.38,6.67,6.67,0,0,0-3.4-.91Zm68-.32h10.7v.58l-9.57,12.46h9.57v.94h-11v-.58l9.56-12.46h-9.22v-.94ZM648.15,737a7.2,7.2,0,0,1,3.11.63,8.71,8.71,0,0,1,2.32,1.61l-.74.76a7.7,7.7,0,0,0-2-1.47,6,6,0,0,0-2.69-.59,5.71,5.71,0,0,0-3,.84A5.9,5.9,0,0,0,643,741a6.68,6.68,0,0,0-.78,3.18v0a6.74,6.74,0,0,0,.79,3.2,5.91,5.91,0,0,0,2.11,2.24,5.59,5.59,0,0,0,3,.85,5.92,5.92,0,0,0,2.63-.56,8.06,8.06,0,0,0,2.18-1.62l.7.68a8.87,8.87,0,0,1-2.4,1.77,7.25,7.25,0,0,1-3.15.67,7,7,0,0,1-3.57-1,6.82,6.82,0,0,1-2.46-2.57,7.63,7.63,0,0,1-.92-3.65v0a7.64,7.64,0,0,1,.92-3.63,6.86,6.86,0,0,1,6.07-3.6Zm-22.67,0a7.17,7.17,0,0,1,6.25,3.58,7.25,7.25,0,0,1-6.29,10.88,7.17,7.17,0,0,1-6.24-3.58,7.33,7.33,0,0,1,0-7.27A7.36,7.36,0,0,1,621.8,738a7.27,7.27,0,0,1,3.68-1Zm51.88-.36h1v14.58h-1v-2.28a6.22,6.22,0,0,1-1.67,1.76,4.46,4.46,0,0,1-2.53.76,4.9,4.9,0,0,1-2.37-.64A5,5,0,0,1,669,749a5.55,5.55,0,0,1-.74-2.84v0a5.65,5.65,0,0,1,.74-2.86,5.12,5.12,0,0,1,1.84-1.83,4.69,4.69,0,0,1,2.37-.64,4.57,4.57,0,0,1,2.55.73,5.93,5.93,0,0,1,1.65,1.7Z" fill="#1d1d26" fill-rule="evenodd"/><path d="M673.26,741.73a3.91,3.91,0,0,0-2.83,1.15,4.56,4.56,0,0,0-1.16,3.21v0a4.55,4.55,0,0,0,1.19,3.2,3.88,3.88,0,0,0,2.8,1.19,4,4,0,0,0,2-.56,4.16,4.16,0,0,0,1.53-1.53,4.55,4.55,0,0,0,.61-2.28v0a4.6,4.6,0,0,0-.61-2.3,4.21,4.21,0,0,0-1.53-1.52,4,4,0,0,0-2-.56Zm38,0a4.06,4.06,0,0,0-3,1.29,4.52,4.52,0,0,0-1.17,3.09v0a4.46,4.46,0,0,0,1.21,3.12,4.05,4.05,0,0,0,3,1.29,4,4,0,0,0,3-1.29,4.48,4.48,0,0,0,1.17-3.08v0a4.5,4.5,0,0,0-1.21-3.13,4.05,4.05,0,0,0-3-1.29Zm-50.69,0a4.06,4.06,0,0,0-3,1.29,4.52,4.52,0,0,0-1.17,3.09v0a4.51,4.51,0,0,0,1.21,3.12,4.07,4.07,0,0,0,3,1.29,4,4,0,0,0,3-1.29,4.57,4.57,0,0,0,1.17-3.08v0a4.56,4.56,0,0,0-1.22-3.13,4.05,4.05,0,0,0-3-1.29Zm75.36,0a3.52,3.52,0,0,0-2.57,1.13,4.62,4.62,0,0,0-1.18,2.83h7.4a5.19,5.19,0,0,0-.49-1.94,3.57,3.57,0,0,0-1.21-1.45,3.36,3.36,0,0,0-1.95-.57Zm-49.84,0a3.5,3.5,0,0,0-2.56,1.13,4.69,4.69,0,0,0-1.19,2.83h7.41a5.38,5.38,0,0,0-.49-1.94,3.65,3.65,0,0,0-1.21-1.45,3.41,3.41,0,0,0-2-.57ZM736,740.8a4.41,4.41,0,0,1,2.48.71,4.51,4.51,0,0,1,1.61,1.89,6.29,6.29,0,0,1,.58,2.73v.21a1.76,1.76,0,0,1,0,.19h-8.44a4.37,4.37,0,0,0,1.31,3,3.88,3.88,0,0,0,2.68,1.06,4.36,4.36,0,0,0,2-.46,5.18,5.18,0,0,0,1.47-1.14l.68.6a6.18,6.18,0,0,1-1.76,1.38,5.34,5.34,0,0,1-2.45.54,4.9,4.9,0,0,1-2.48-.67,4.83,4.83,0,0,1-1.81-1.86,5.54,5.54,0,0,1-.7-2.78v0a5.77,5.77,0,0,1,.64-2.69,4.92,4.92,0,0,1,1.71-1.9,4.56,4.56,0,0,1,2.48-.72Zm-11.77,0a3.93,3.93,0,0,1,3,1.18,4.29,4.29,0,0,1,1.07,3v6.23h-1v-6.05a3.7,3.7,0,0,0-.85-2.53,3.13,3.13,0,0,0-2.39-.95,3.48,3.48,0,0,0-2.52,1,3.66,3.66,0,0,0-1,2.61v5.89h-1V741h1v1.9a4.3,4.3,0,0,1,1.39-1.52,4.19,4.19,0,0,1,2.28-.61Zm-12.9,0a5.09,5.09,0,0,1,4.53,2.65,5.35,5.35,0,0,1,.68,2.64v0a5.45,5.45,0,0,1-.69,2.65,5.19,5.19,0,0,1-1.85,1.93,5.27,5.27,0,0,1-5.4,0,5.26,5.26,0,0,1-1.84-1.91,5.4,5.4,0,0,1-.68-2.64v0a5.42,5.42,0,0,1,.69-2.65,5.12,5.12,0,0,1,4.56-2.68Zm-25.17,0a4.38,4.38,0,0,1,2.48.71,4.54,4.54,0,0,1,1.62,1.89,6.44,6.44,0,0,1,.58,2.73v0a.91.91,0,0,1,0,.17,1.42,1.42,0,0,1,0,.19h-8.45a4.38,4.38,0,0,0,1.32,3,3.85,3.85,0,0,0,2.67,1.06,4.41,4.41,0,0,0,2-.46,5.47,5.47,0,0,0,1.47-1.14l.68.6a6.33,6.33,0,0,1-1.76,1.38,5.39,5.39,0,0,1-2.46.54,4.93,4.93,0,0,1-2.48-.67,5,5,0,0,1-1.81-1.86,5.64,5.64,0,0,1-.7-2.78v0a5.77,5.77,0,0,1,.64-2.69,4.87,4.87,0,0,1,1.72-1.9,4.53,4.53,0,0,1,2.47-.72Zm-25.52,0a5.09,5.09,0,0,1,4.53,2.65,5.24,5.24,0,0,1,.68,2.64v0a5.31,5.31,0,0,1-2.54,4.58,5.27,5.27,0,0,1-5.4,0,5.26,5.26,0,0,1-1.84-1.91,5.51,5.51,0,0,1-.68-2.64v0a5.42,5.42,0,0,1,.69-2.65,5.3,5.3,0,0,1,1.85-1.94,5.21,5.21,0,0,1,2.71-.74Zm-35.06-.46a3.59,3.59,0,0,1,1.62.34,5.11,5.11,0,0,1,1.2.87l-.6.62a4.47,4.47,0,0,0-1-.73,2.86,2.86,0,0,0-1.26-.31,2.66,2.66,0,0,0-2,.88,3.2,3.2,0,0,0,0,4.21,2.64,2.64,0,0,0,2,.88,2.78,2.78,0,0,0,1.26-.27,4.37,4.37,0,0,0,1-.76l.56.56a4.93,4.93,0,0,1-1.24.92,3.58,3.58,0,0,1-1.64.35,3.49,3.49,0,0,1-2.58-1.1,3.83,3.83,0,0,1-1.05-2.67,3.89,3.89,0,0,1,1-2.67,3.56,3.56,0,0,1,2.61-1.12Zm-.08-2.78a6.71,6.71,0,0,0-3.41.92,6.59,6.59,0,0,0-2.35,2.4,6.91,6.91,0,0,0,0,6.73,6.44,6.44,0,0,0,2.34,2.38,6.73,6.73,0,0,0,3.39.91,6.66,6.66,0,0,0,3.41-.92,6.54,6.54,0,0,0,2.36-2.4,6.91,6.91,0,0,0,0-6.73,6.44,6.44,0,0,0-2.34-2.38,6.67,6.67,0,0,0-3.4-.91Zm68-.32h10.7v.58l-9.57,12.46h9.57v.94h-11v-.58l9.56-12.46h-9.22v-.94ZM648.15,737a7.2,7.2,0,0,1,3.11.63,8.71,8.71,0,0,1,2.32,1.61l-.74.76a7.7,7.7,0,0,0-2-1.47,6,6,0,0,0-2.69-.59,5.71,5.71,0,0,0-3,.84A5.9,5.9,0,0,0,643,741a6.68,6.68,0,0,0-.78,3.18v0a6.74,6.74,0,0,0,.79,3.2,5.91,5.91,0,0,0,2.11,2.24,5.59,5.59,0,0,0,3,.85,5.92,5.92,0,0,0,2.63-.56,8.06,8.06,0,0,0,2.18-1.62l.7.68a8.87,8.87,0,0,1-2.4,1.77,7.25,7.25,0,0,1-3.15.67,7,7,0,0,1-3.57-1,6.82,6.82,0,0,1-2.46-2.57,7.63,7.63,0,0,1-.92-3.65v0a7.64,7.64,0,0,1,.92-3.63,6.86,6.86,0,0,1,6.07-3.6Zm-22.67,0a7.17,7.17,0,0,1,6.25,3.58,7.25,7.25,0,0,1-6.29,10.88,7.17,7.17,0,0,1-6.24-3.58,7.33,7.33,0,0,1,0-7.27A7.36,7.36,0,0,1,621.8,738a7.27,7.27,0,0,1,3.68-1Zm51.88-.36h1v14.58h-1v-2.28a6.22,6.22,0,0,1-1.67,1.76,4.46,4.46,0,0,1-2.53.76,4.9,4.9,0,0,1-2.37-.64A5,5,0,0,1,669,749a5.55,5.55,0,0,1-.74-2.84v0a5.65,5.65,0,0,1,.74-2.86,5.12,5.12,0,0,1,1.84-1.83,4.69,4.69,0,0,1,2.37-.64,4.57,4.57,0,0,1,2.55.73,5.93,5.93,0,0,1,1.65,1.7Z" fill="none" stroke="#1d1d26" stroke-linejoin="round" stroke-width="1.56"/><g clip-path="url(#clip-path)"><path d="M676.74,679.22l-25,10.69c-3.67,3.19.22,9,4.44,9.23l20.91-7.77-.4-12.15Z" fill="#1d1d26" fill-rule="evenodd"/><path d="M676.74,679.22l-25,10.69c-3.67,3.19.22,9,4.44,9.23l20.91-7.77-.4-12.15Z" fill="none" stroke="#1d1d26" stroke-linecap="round" stroke-linejoin="round" stroke-width="3"/><g clip-path="url(#clip-path)"><path d="M676.48,684.75l-17.09,7c-1.94,1.69,3.35,3.64,6.24,3.54l11.07-4.11-.22-6.44Z" fill="#fff" fill-rule="evenodd"/><path d="M676.48,684.75l-17.09,7c-1.94,1.69,3.35,3.64,6.24,3.54l11.07-4.11-.22-6.44Z" fill="none" stroke="#1d1d26" stroke-linecap="round" stroke-linejoin="round" stroke-width="0.25"/><g clip-path="url(#clip-path)"><path d="M678,701.43l-25.8-11.66c-4.16.2-3.89,8.59.86,12.83l27.64,12.66-.21-12.78L678,701.43Z" fill="#1d1d26" fill-rule="evenodd"/><path d="M678,701.43l-25.8-11.66c-4.16.2-3.89,8.59.86,12.83l27.64,12.66-.21-12.78L678,701.43Z" fill="none" stroke="#1d1d26" stroke-linecap="round" stroke-linejoin="round" stroke-width="3"/><g clip-path="url(#clip-path)"><path d="M677.58,704.82l-20.74-9.38c-3.23-.09-2.57,5.68,1.36,8.85l22.23,10.16-.22-8.48-2.63-1.15Z" fill="#fff" fill-rule="evenodd"/><g clip-path="url(#clip-path)"><path d="M684.21,698.31l24.94-10.68c3.67-3.2-.22-9-4.44-9.24l-20.91,7.77.41,12.15Z" fill="#1d1d26" fill-rule="evenodd"/><path d="M684.21,698.31l24.94-10.68c3.67-3.2-.22-9-4.44-9.24l-20.91,7.77.41,12.15Z" fill="none" stroke="#1d1d26" stroke-linecap="round" stroke-linejoin="round" stroke-width="3"/><g clip-path="url(#clip-path)"><path d="M684.46,692.78l17.09-7c1.94-1.69-3.35-3.63-6.24-3.54l-11.07,4.11.22,6.44Z" fill="#fff" fill-rule="evenodd"/><path d="M684.46,692.78l17.09-7c1.94-1.69-3.35-3.63-6.24-3.54l-11.07,4.11.22,6.44Z" fill="none" stroke="#1d1d26" stroke-linecap="round" stroke-linejoin="round" stroke-width="0.25"/><g clip-path="url(#clip-path)"><path d="M683,676.1l25.8,11.66c4.16-.19,3.9-8.58-.85-12.83l-27.65-12.66.21,12.78L683,676.1Z" fill="#1d1d26" fill-rule="evenodd"/><path d="M683,676.1l25.8,11.66c4.16-.19,3.9-8.58-.85-12.83l-27.65-12.66.21,12.78L683,676.1Z" fill="none" stroke="#1d1d26" stroke-linecap="round" stroke-linejoin="round" stroke-width="3"/><g clip-path="url(#clip-path)"><path d="M682.77,672.39l20.74,9.39c3.23.09,2.57-5.68-1.36-8.85l-22.22-10.16.21,8.48,2.63,1.14Z" fill="#fff" fill-rule="evenodd"/></g></g></g></g></g></g></g></g></g></g></g></g></g></g></g></g></g></svg>