<svg id="Layer_1" data-name="Layer 1" xmlns="http://www.w3.org/2000/svg" xmlns:xlink="http://www.w3.org/1999/xlink" viewBox="0 0 49.37 48.62"><defs><clipPath id="clip-path"><polygon points="-6 56.19 55.85 56.19 55.85 -5.66 -6 -5.66 -6 56.19 -6 56.19" fill="none" clip-rule="evenodd"/></clipPath><clipPath id="clip-path-2" transform="translate(-0.3 -0.64)"><polygon points="-6 -5.66 55.85 -5.66 55.85 56.19 -6 56.19 -6 -5.66 -6 -5.66" fill="none" clip-path="url(#clip-path)" clip-rule="evenodd"/></clipPath><clipPath id="clip-path-3" transform="translate(-0.3 -0.64)"><polygon points="-6 56.19 55.85 56.19 55.85 -5.66 -6 -5.66 -6 56.19 -6 56.19" fill="none"/></clipPath></defs><g clip-path="url(#clip-path-2)"><g clip-path="url(#clip-path-3)"><path d="M25,.64a24.68,24.68,0,0,0-6,48.62,3.79,3.79,0,0,1-.18-1.2V43.84H15.71a4.3,4.3,0,0,1-3.92-2.08c-.8-1.5-.94-3.79-2.95-5.19-.59-.47-.14-1,.55-.93a6.49,6.49,0,0,1,3.3,2.51c1,1.29,1.44,1.58,3.28,1.58a24.58,24.58,0,0,0,3.48-.24,7.67,7.67,0,0,1,3.27-4C14.5,34.6,10.57,30.51,10.57,25a10.09,10.09,0,0,1,2.75-6.65c-.57-1.94-1.28-5.88.22-7.38A8.58,8.58,0,0,1,20,14a18.71,18.71,0,0,1,12,0,8.6,8.6,0,0,1,6.47-3.05c1.51,1.5.79,5.46.21,7.39A10.11,10.11,0,0,1,41.44,25c0,5.55-3.92,9.64-12.13,10.49,2.26,1.18,3.91,4.49,3.91,7v5.63a3,3,0,0,1-.08.55A24.68,24.68,0,0,0,25,.64Z" transform="translate(-0.3 -0.64)" fill="#fff"/></g></g></svg>