<svg id="Layer_1" data-name="Layer 1" xmlns="http://www.w3.org/2000/svg" viewBox="0 0 1922.11 1617.23"><g opacity="0.6"><path d="M942.25,1018.72l6.79,0,6.1,0h1.47s-.35,4.15-.23,9.74c.12,3,.75,6.75,2.89,9.72a22,22,0,0,0,2.57,5.14,1.21,1.21,0,0,1-.65,1.84c-2.23.33-4.19.69-5.92,1-3.78,1.63-5.13,3-6.11,0a15.59,15.59,0,0,1-1.81-4,41.36,41.36,0,0,1-1.11-4,52.29,52.29,0,0,1-3-9.71C942.6,1022.91,942.25,1018.72,942.25,1018.72Z" transform="translate(-361.57 -221.88)" fill="#f9c243"/><path d="M930.33,905.45l3.15,6c.43.81,1,1.83,1.2,2.29l.69,1.29s3.49-2.27,8.47-4.81a5.69,5.69,0,0,1,5.29.41,21.85,21.85,0,0,1,5.73-.17,1.22,1.22,0,0,0,1.32-1.44c-.76-2.13-1.37-4-1.88-5.72.69-2.18,1.6-3.32-1.21-2.28a15.35,15.35,0,0,0-4.33.26c-1.18.2-2.56.52-4.06.93a16.65,16.65,0,0,0-5.34-.51C934.18,903.78,930.33,905.45,930.33,905.45Z" transform="translate(-361.57 -221.88)" fill="#9590c6"/><path d="M519.84,1115.85l6.4,2.28,9.31,3.34,1.38.49s-1.66,3.81-3.34,9.15c-1.37,4.4-2.65,10.18-2.12,15.28a22.62,22.62,0,0,0,.77,5.74,1.19,1.19,0,0,1-1.2,1.52c-2.2-.44-4.16-.78-5.9-1.05-6.29-.53-8.79,0-9.31-3.34a15.72,15.72,0,0,1-.44-4.36c0-1.21.09-2.63.24-4.18a118.92,118.92,0,0,1,2-15.32C518.82,1119.93,519.84,1115.85,519.84,1115.85Z" transform="translate(-361.57 -221.88)" fill="#8dc0bf"/><path d="M453.39,872.09l-4.18,5.35-5,6.44-.91,1.15s3.41,2.38,7.64,6.05c2.63,2.32,5.68,5.68,7.07,9.61a22.93,22.93,0,0,1,2.38,5.31,1.18,1.18,0,0,0,1.81.67c1.62-1.56,3.1-2.88,4.42-4,4.36-3,6.52-3.53,5-6.45a15.89,15.89,0,0,0-1.93-4c-.64-1-1.46-2.2-2.41-3.44a73.58,73.58,0,0,0-7-9.71C456.4,875,453.39,872.09,453.39,872.09Z" transform="translate(-361.57 -221.88)" fill="#748bc6"/><path d="M710.15,537.86l6.7,1.13,4.74.79L723,540s-1,4-1.78,9.57a12.44,12.44,0,0,0,1.6,8.15,22.13,22.13,0,0,0,1.71,5.5,1.2,1.2,0,0,1-.93,1.71c-2.25-.05-4.24,0-6,0-3.19,1.1-4.45,2.25-4.74-.81a15.87,15.87,0,0,1-1.16-4.21c-.2-1.19-.35-2.6-.45-4.15a36.83,36.83,0,0,1-1.72-8.17C709.83,542.05,710.15,537.86,710.15,537.86Z" transform="translate(-361.57 -221.88)" fill="#f9c243"/><path d="M642.75,633.5l-6.7,1.12-4.74.8-1.44.25s1,4,1.77,9.57a12.45,12.45,0,0,1-1.59,8.14,22.08,22.08,0,0,1-1.72,5.51,1.2,1.2,0,0,0,.94,1.71c2.25-.05,4.24,0,6,0,3.19,1.1,4.46,2.25,4.74-.81a15.5,15.5,0,0,0,1.16-4.21c.2-1.19.35-2.6.45-4.15a36.39,36.39,0,0,0,1.72-8.17C643.08,637.69,642.75,633.5,642.75,633.5Z" transform="translate(-361.57 -221.88)" fill="#f9c243"/><path d="M1088.51,468.12l-6.68,1.21-2.49.44-1.44.26s1,4,1.88,9.56a5.66,5.66,0,0,1-2.07,4.82,22.21,22.21,0,0,1-1.66,5.53,1.2,1.2,0,0,0,1,1.7c2.25-.08,4.24-.09,6-.07,1.81,1.32,2.59,2.55,2.49-.45a15.92,15.92,0,0,0,1.11-4.23c.19-1.19.32-2.6.41-4.15a16.87,16.87,0,0,0,2.18-4.85C1088.88,472.31,1088.51,468.12,1088.51,468.12Z" transform="translate(-361.57 -221.88)" fill="#f9c243"/><path d="M1327.43,467.5l6.79.2,3,.09,1.47,0s-.48,4.14-.54,9.73a6.76,6.76,0,0,0,2.69,5.22,21.8,21.8,0,0,0,2.41,5.22,1.21,1.21,0,0,1-.71,1.82c-2.24.25-4.21.54-6,.82-1.9,1.56-2.61,2.88-3-.1a15.52,15.52,0,0,1-1.69-4c-.35-1.15-.67-2.53-1-4a19.84,19.84,0,0,1-2.81-5.22C1327.64,471.69,1327.43,467.5,1327.43,467.5Z" transform="translate(-361.57 -221.88)" fill="#ed6f58"/><path d="M1172,584.32s.56-3,1.26-6.67c.26-1.33.58-3,.72-3.78l.28-1.44s4,1.13,9.52,2.07a9.11,9.11,0,0,0,6.81-1.6,22.3,22.3,0,0,0,5.53-1.55,1.21,1.21,0,0,1,1.69,1c-.1,2.25-.13,4.24-.13,6,1.15,2.65,2.31,3.74-.73,3.78a14.78,14.78,0,0,1-4.22,1c-1.19.17-2.6.27-4.15.33a26.62,26.62,0,0,1-6.84,1.72C1176.13,584.78,1172,584.32,1172,584.32Z" transform="translate(-361.57 -221.88)" fill="#8dc0bf"/><path d="M850.33,659.25l-6.57-1.7-5.47-1.42-1.42-.37s-.75,4.09-2.34,9.46a15.8,15.8,0,0,1-5.13,7.9,22.87,22.87,0,0,1-3.84,4.32,1.2,1.2,0,0,0,.14,1.94c2.08.87,3.88,1.69,5.47,2.45,3,2.44,3.83,4,5.48,1.41a15.41,15.41,0,0,0,2.79-3.37,40.86,40.86,0,0,0,2.14-3.6,46.68,46.68,0,0,0,5.25-7.87C848.9,663.2,850.33,659.25,850.33,659.25Z" transform="translate(-361.57 -221.88)" fill="#8dc0bf"/><path d="M1543.2,531.85l-2.26,6.4-2.34,6.58-.49,1.38s-3.75-1.81-9-3.71a16.24,16.24,0,0,0-9.6-.6,21.44,21.44,0,0,0-5.67.57,1.23,1.23,0,0,1-1.5-1.27c.45-2.22.78-4.19,1-5.94-.07-4.66-.8-6.61,2.34-6.58a15.07,15.07,0,0,1,4.3-.3c1.2,0,2.6.19,4.13.4a47.21,47.21,0,0,1,9.64.5C1539.18,530.67,1543.2,531.85,1543.2,531.85Z" transform="translate(-361.57 -221.88)" fill="#f9c243"/><path d="M1106.85,759.79s-1,2.83-2.27,6.4c-.83,2.32-1.87,5.25-2.34,6.58-.3.87-.49,1.38-.49,1.38s-3.75-1.81-9-3.71a16.2,16.2,0,0,0-9.61-.6,21.44,21.44,0,0,0-5.67.57,1.24,1.24,0,0,1-1.5-1.27c.45-2.22.78-4.19,1-5.95-.07-4.65-.8-6.6,2.34-6.58a15.17,15.17,0,0,1,4.31-.29c1.19,0,2.59.19,4.12.4a47.34,47.34,0,0,1,9.65.49C1102.82,758.61,1106.85,759.79,1106.85,759.79Z" transform="translate(-361.57 -221.88)" fill="#ed6f58"/><path d="M1793.25,696.16s-1,2.84-2.27,6.4c-.82,2.33-1.86,5.26-2.33,6.59-.31.86-.49,1.38-.49,1.38s-3.76-1.82-9-3.71a16.23,16.23,0,0,0-9.6-.61,20.94,20.94,0,0,0-5.67.58,1.24,1.24,0,0,1-1.5-1.28c.44-2.21.78-4.19,1.05-5.94-.07-4.66-.81-6.6,2.34-6.58a14.74,14.74,0,0,1,4.3-.29,41.37,41.37,0,0,1,4.13.39,47.21,47.21,0,0,1,9.64.5C1789.23,695,1793.25,696.16,1793.25,696.16Z" transform="translate(-361.57 -221.88)" fill="#ed6f58"/><path d="M1431.11,742.29l5.3-4.24,5.6-4.49,1.14-.92s2.2,3.55,5.63,8c2,2.51,4.94,5.4,8.53,6.66a21.06,21.06,0,0,0,5.08,2.52,1.24,1.24,0,0,1,.59,1.89c-1.55,1.65-2.87,3.16-4,4.51-2.5,4.08-2.94,6.15-5.6,4.48a14.75,14.75,0,0,1-3.78-2,39.23,39.23,0,0,1-3.26-2.53,59,59,0,0,1-8.63-6.58C1433.88,745.44,1431.11,742.29,1431.11,742.29Z" transform="translate(-361.57 -221.88)" fill="#d3d3d3"/><path d="M1427.23,481.05l-6.77.47-4.13.29-1.46.1s.63,4.11.9,9.7a10.12,10.12,0,0,1-2.4,7,22.16,22.16,0,0,1-2.21,5.31,1.21,1.21,0,0,0,.77,1.79c2.25.17,4.23.37,6,.59,2.67,1.44,3.67,2.71,4.13-.3a15.24,15.24,0,0,0,1.54-4.07c.31-1.17.58-2.55.83-4.09a28.87,28.87,0,0,0,2.51-7C1427.17,485.25,1427.23,481.05,1427.23,481.05Z" transform="translate(-361.57 -221.88)" fill="#9590c6"/><path d="M1317.44,336.81l6-5.85.44-.42,1.27-1.24s3.36,4.17,8.39,9.3c.28.1,1.06-.18,3.13-1.82a28.58,28.58,0,0,0,6.81,2.58,1.6,1.6,0,0,1,1,2.28c-1.7,2.22-3.14,4.23-4.35,6l-.45.42a19.89,19.89,0,0,1-5.1-2.13c-1.36-.74-2.89-1.69-4.52-2.79a23.42,23.42,0,0,1-3.23,1.92C1321.44,340.43,1317.44,336.81,1317.44,336.81Z" transform="translate(-361.57 -221.88)" fill="#f9c243"/><path d="M1550.37,406.61l-3.46,5.84c-.92,1.57-2.09,3.54-2.62,4.43l-.74,1.26s-3.32-2.54-8.09-5.45a10.1,10.1,0,0,0-7.32-1.27,20.83,20.83,0,0,0-5.65-.56,1.24,1.24,0,0,1-1.22-1.55c.86-2.1,1.57-4,2.17-5.64.26-3.61-.3-5.32,2.63-4.42a14.86,14.86,0,0,1,4.26.57c1.16.28,2.5.7,4,1.21a29.1,29.1,0,0,1,7.38,1.17C1546.66,404.65,1550.37,406.61,1550.37,406.61Z" transform="translate(-361.57 -221.88)" fill="#748bc6"/><path d="M2040.24,479.45l-7.76-5.6-1.48-1.07-1.68-1.21s-2.86,5.15-7.38,11.61c-.62.67-2,1.11-4.9.11a29.84,29.84,0,0,1-7,3.91,1.74,1.74,0,0,0-.7,2.69c2.29,2.22,4.27,4.25,6,6.07-.36,2.56-1.09,4.37,1.48,1.06a20.77,20.77,0,0,0,5.19-3.14c1.34-1,2.83-2.31,4.42-3.8a14.78,14.78,0,0,0,5,0C2036.56,484.08,2040.24,479.45,2040.24,479.45Z" transform="translate(-361.57 -221.88)" fill="#ed6f58"/><path d="M1869.11,543.21l6.18-2.8,3.15-1.43,1.33-.61s1.29,4,3.56,9.09a7.21,7.21,0,0,0,4.74,3.91,20.94,20.94,0,0,0,4.33,3.69,1.24,1.24,0,0,1,.12,2c-1.91,1.21-3.56,2.34-5,3.37-1.32,2.37-1.5,3.93-3.16,1.42a14.88,14.88,0,0,1-3.18-2.91c-.79-.89-1.66-2-2.56-3.25a20.76,20.76,0,0,1-4.85-3.87C1871,546.93,1869.11,543.21,1869.11,543.21Z" transform="translate(-361.57 -221.88)" fill="#8dc0bf"/><path d="M1868.79,691.5l-6.76-.63-3.9-.36-1.46-.14s0,4.16-.58,9.73a9.24,9.24,0,0,1-3.4,6.18,21.76,21.76,0,0,1-3,4.89,1.21,1.21,0,0,0,.49,1.89c2.19.53,4.12,1.06,5.82,1.55,2.27,1.84,3,3.26,3.9.36a15.39,15.39,0,0,0,2.13-3.78c.48-1.1,1-2.43,1.44-3.9a27.23,27.23,0,0,0,3.52-6.17C1868.1,695.65,1868.79,691.5,1868.79,691.5Z" transform="translate(-361.57 -221.88)" fill="#f9c243"/><path d="M1721.79,844.37l6.51,1.92,3.87,1.15,1.4.42s-1.45,3.89-2.86,9.31a9.63,9.63,0,0,0,1,7.1,22.36,22.36,0,0,0,1.07,5.69,1.19,1.19,0,0,1-1.12,1.58c-2.23-.32-4.2-.55-6-.72-2.84.85-4.06,1.89-3.87-1.16a15.44,15.44,0,0,1-.67-4.32c-.07-1.21-.05-2.63,0-4.19a28.18,28.18,0,0,1-1.1-7.13C1721,848.49,1721.79,844.37,1721.79,844.37Z" transform="translate(-361.57 -221.88)" fill="#8dc0bf"/><path d="M1606.27,924.94l6.56-1.77,5.79-1.58,1.42-.38s.67,4.12,2.13,9.51a17,17,0,0,0,5.07,8.43,21.48,21.48,0,0,0,3.72,4.32,1.23,1.23,0,0,1-.18,2c-2.07.89-3.88,1.74-5.48,2.52-3.19,2.54-4.16,4.2-5.8,1.56a15.37,15.37,0,0,1-2.71-3.36c-.65-1-1.33-2.24-2-3.61a50.17,50.17,0,0,1-5.18-8.4C1607.62,928.92,1606.27,924.94,1606.27,924.94Z" transform="translate(-361.57 -221.88)" fill="#f9c243"/><path d="M2231.78,786l-5.86-3.44-7-4.1-1.26-.74s-1.68,3.82-4.45,8.68c-1.87,3.21-4.68,7-8.31,9.25a21.07,21.07,0,0,1-4.67,3.23,1.24,1.24,0,0,0-.32,1.94c1.77,1.42,3.3,2.71,4.64,3.88,3.56,4,4.48,6.06,7,4.1a14.8,14.8,0,0,0,3.45-2.56c.88-.81,1.85-1.82,2.88-3a77.92,77.92,0,0,0,8.41-9.2C2229.48,789.49,2231.78,786,2231.78,786Z" transform="translate(-361.57 -221.88)" fill="#ed6f58"/><path d="M2248.89,1033.27l5.62-3.8,7.68-5.2,1.21-.82s1.91,3.71,5,8.39c2.33,3.48,5.69,7.64,9.7,10a21,21,0,0,0,4.86,2.93,1.23,1.23,0,0,1,.44,1.92c-1.67,1.52-3.11,2.92-4.37,4.17-3.89,4.59-4.89,6.89-7.68,5.19a15,15,0,0,1-3.61-2.34c-.92-.75-2-1.7-3-2.78a97,97,0,0,1-9.79-10C2251.4,1036.63,2248.89,1033.27,2248.89,1033.27Z" transform="translate(-361.57 -221.88)" fill="#f9c243"/><path d="M2101.24,885.25l5.47-4c2.48-1.83,5.61-4.12,7-5.17l1.18-.86s2.06,3.63,5.3,8.19c2.3,3.17,5.63,6.93,9.56,8.91a21.17,21.17,0,0,0,5,2.74,1.24,1.24,0,0,1,.52,1.91c-1.62,1.58-3,3-4.22,4.33-3.43,4.54-4.24,6.8-7,5.16a15.22,15.22,0,0,1-3.69-2.2c-1-.72-2-1.62-3.15-2.67a85.15,85.15,0,0,1-9.67-8.84C2103.87,888.51,2101.24,885.25,2101.24,885.25Z" transform="translate(-361.57 -221.88)" fill="#8dc0bf"/><path d="M851.46,380.79l8,3.42,1.28.55,1.72.74s-2.4,4.75-5,11.46c-.18.8.16,2.07,2.37,3.89a28.74,28.74,0,0,0,.55,7.42c.23,1.05-.76,2.1-1.65,1.86-2.78-.75-5.26-1.33-7.47-1.8-1.56,1.58-2.49,3.06-1.27-.56a20.27,20.27,0,0,1-.24-5.62,53.27,53.27,0,0,1,.63-5.34,14.74,14.74,0,0,1-2.51-3.95C849.85,385.94,851.46,380.79,851.46,380.79Z" transform="translate(-361.57 -221.88)" fill="#f9c243"/><path d="M911.68,468.12l7.53,4.26,2.36,1.33,1.62.92s-2.87,4.45-6.09,10.81c-.52,1.25-.63,3.16,1.09,5.68a29.13,29.13,0,0,0-.23,7.41c.12,1.06-1,2-1.82,1.66-2.67-1-5.06-1.88-7.18-2.59-2.43,1-3.75,2.21-2.35-1.35a20,20,0,0,1,.36-5.59c.25-1.53.66-3.29,1.17-5.22a18,18,0,0,1-1.22-5.75C909.55,473.05,911.68,468.12,911.68,468.12Z" transform="translate(-361.57 -221.88)" fill="#748bc6"/><path d="M2084.54,611.51l5.39-4.14,2.46-1.89,1.16-.89s2.13,3.59,5.47,8.08a5.81,5.81,0,0,0,5,2.08,21.45,21.45,0,0,0,5,2.63,1.24,1.24,0,0,1,.55,1.89c-1.58,1.62-2.94,3.1-4.12,4.43-.58,2.49-.35,4-2.47,1.89a14.68,14.68,0,0,1-3.73-2.13c-1-.69-2.06-1.58-3.22-2.6a17.17,17.17,0,0,1-5.08-2C2087.24,614.71,2084.54,611.51,2084.54,611.51Z" transform="translate(-361.57 -221.88)" fill="#748bc6"/><path d="M1230.88,397.67l9.59.5,1.5.08,2.07.11s-.8,5.83-1,13.74c.09,1,.91,2.26,3.86,3.38a30.82,30.82,0,0,0,3.25,7.47,1.71,1.71,0,0,1-1.06,2.55c-3.17.29-1.74,1.43-4.22,1.78-1,2.24-5.69,3.31-5.72-.9a21.41,21.41,0,0,1-2.27-5.72,58.08,58.08,0,0,1-1.27-5.77,15.83,15.83,0,0,1-4-3.39C1231.05,403.61,1230.88,397.67,1230.88,397.67Z" transform="translate(-361.57 -221.88)" fill="#8dc0bf"/><path d="M1399.3,396.54l-9.49-1.2-1.31-.17-2-.26s-.17,5.87-1.24,13.68c-.24.85-1.24,1.85-4.31,2.35a30.5,30.5,0,0,1-4.42,6.76,1.72,1.72,0,0,0,.61,2.69c3.07.84,4.46,1.26,6.83,2l2.61.57a20.94,20.94,0,0,0,3.17-5.22,57.3,57.3,0,0,0,2.2-5.43,15.47,15.47,0,0,0,4.48-2.33C1398.15,402.34,1399.3,396.54,1399.3,396.54Z" transform="translate(-361.57 -221.88)" fill="#8dc0bf"/><path d="M1050.08,590l-2.58,6.28-1.44,3.53-.56,1.36s4,1.27,9.08,3.54a9,9,0,0,1,4.72,5.07,22.22,22.22,0,0,1,3.77,4.36,1.21,1.21,0,0,0,2,.11c1.14-1.94,2.2-3.62,3.17-5.1,2.38-1.56,3.94-1.82,1.43-3.53a15.67,15.67,0,0,0-3-3.21c-.91-.79-2-1.66-3.29-2.57a26.48,26.48,0,0,0-4.67-5.19C1053.81,592,1050.08,590,1050.08,590Z" transform="translate(-361.57 -221.88)" fill="#9590c6"/><path d="M1519.63,635.1l-2.57,6.28-1.45,3.53c-.35.85-.55,1.36-.55,1.36s4,1.27,9.07,3.54a9,9,0,0,1,4.72,5.07,22.22,22.22,0,0,1,3.77,4.36,1.21,1.21,0,0,0,2,.11c1.14-1.94,2.2-3.62,3.17-5.1,2.38-1.56,3.94-1.82,1.43-3.53a15.41,15.41,0,0,0-3-3.2c-.91-.8-2-1.67-3.29-2.58a26.48,26.48,0,0,0-4.67-5.19C1523.36,637,1519.63,635.1,1519.63,635.1Z" transform="translate(-361.57 -221.88)" fill="#ed6f58"/><path d="M530.49,590.33l6.33-2.46,7.33-2.84,1.37-.53s1.2,4,3.37,9.13c1.49,3.45,3.84,7.66,7.22,10.39a22.23,22.23,0,0,0,4.29,3.86,1.2,1.2,0,0,1,.07,1.94c-2,1.11-3.67,2.14-5.16,3.08-3.94,3.26-5.08,5.14-7.33,2.83a15.17,15.17,0,0,1-3.15-3c-.78-.92-1.63-2.06-2.52-3.34A80.36,80.36,0,0,1,535,599C532.35,594.1,530.49,590.33,530.49,590.33Z" transform="translate(-361.57 -221.88)" fill="#748bc6"/><path d="M1992.54,584.46l5.15-4.42,1.56-1.34,1.11-1s2.32,3.47,5.89,7.78c.66.67,1.88,1.2,4.08.55a20.75,20.75,0,0,0,5.16,2.36,1.25,1.25,0,0,1,.65,1.87c-1.49,1.7-2.77,3.25-3.87,4.64,0,2.09.53,3.44-1.57,1.33a14.73,14.73,0,0,1-3.84-1.92,40.18,40.18,0,0,1-3.35-2.43,11.92,11.92,0,0,1-4.17-.47C1995.4,587.52,1992.54,584.46,1992.54,584.46Z" transform="translate(-361.57 -221.88)" fill="#f9c243"/><path d="M374.77,997.9l5.65,3.76,10.12,6.74,1.22.81s-2.49,3.32-5.37,8.12-6,11-7.11,16.83a22.25,22.25,0,0,0-.6,5.78,1.19,1.19,0,0,1-1.52,1.2c-2-1-3.84-1.76-5.46-2.43-7.13-2.81-10.1-3.17-10.12-6.75a16.06,16.06,0,0,1,.59-4.36c.29-1.18.7-2.54,1.22-4a163.2,163.2,0,0,1,7-16.89C372.83,1001.63,374.77,997.9,374.77,997.9Z" transform="translate(-361.57 -221.88)" fill="#f9c243"/></g><path d="M827.75,878.92c-29.67,24.15-153.93,69.92-155.49,70.94-6,3.93-9.41,10.69-15.53,14.74a49.79,49.79,0,0,1-22.86,8.07c-28.5,2.62-53.32-18.35-63-44-10-26.67-1.9-63.95,26.39-76.21,22.62-9.78,38.25-8.82,38.25-8.82-16.11-126.82,46.3-149.45,56.36-149.93,29-37.74,74.57-13.75,79-6.18,24.56-6,45.34,46.44,18.16,61.5-.2.12-.4.2-.61.32,1.13,29.43,4.71,51,31.81,61.6C849.9,822.55,857.46,854.76,827.75,878.92Z" transform="translate(-361.57 -221.88)" fill="#142148"/><path d="M541.88,684.13l-39,11.23c-14.37-12.75-18.48-23.42-24.55-41.29-2.38-7-11.82-35.09-4.21-37.36,2.58-.77,7.22,2.24,9.88,6.82a81.2,81.2,0,0,1-3.77-20.85c-.12-3.62.83-6.11,3.32-7.06,2-.77,4.2,1,6.23,3.74,0-.6,1.34-7.63,4.07-8.65s5.95,2.33,8.93,8.24c.4.76.79,1.56,1.15,2.41a15.07,15.07,0,0,1,.2-2,5,5,0,0,1,3.07-3.75c5.13-2,9.22,8.54,10.59,11.69,5.34,12.29,11.24,24.49,15,37.39,1.79,6.16,4.38,12.21,5.8,18.46C539.09,665.25,543,683.5,541.88,684.13Z" transform="translate(-361.57 -221.88)" fill="#f9b385"/><path d="M539.12,641.76c2.13,15.37.8,28.26-3,28.79s-8.57-11.52-10.7-26.89-3.56-27.56,3-28.79C533.66,613.89,537,626.38,539.12,641.76Z" transform="translate(-361.57 -221.88)" fill="#f9b385"/><path d="M614.7,801.57l-6.88,37.56H563.54L557.26,831l-33.72-43.48a78.88,78.88,0,0,1-14.32-29.72L492.3,680.29,539.5,668l21.16,65.84a78.74,78.74,0,0,0,18.84,31.6Z" transform="translate(-361.57 -221.88)" fill="#f9b385"/><path d="M912.41,644.53,948.33,656c10.66-14.88,14.92-34.92,16.79-52.81.73-7,3.57-35.13-4-35.63-2.57-.17-6.25,3.61-7.75,8.43a77.36,77.36,0,0,0-.9-20.19c-.65-3.39-2.06-5.5-4.58-5.86-2-.3-3.69,1.8-5,4.8-.13-.56-2.87-6.82-5.62-7.18s-5,3.42-6.57,9.54c-.21.79-.39,1.62-.55,2.49a17.24,17.24,0,0,0-.6-1.8,4.73,4.73,0,0,0-3.65-2.84c-5.18-.73-6.77,9.89-7.38,13.11-2.37,12.55-5.28,25.14-6,37.93-.36,6.1-.49,12.22-.5,18.33C912,626.33,911.27,644.17,912.41,644.53Z" transform="translate(-361.57 -221.88)" fill="#f9b385"/><path d="M906.25,605.6c3.52,14.37,9.24,25.33,12.77,24.46s3.54-13.22,0-27.59-6.55-25.68-12.77-24.46C901.27,579,902.73,591.22,906.25,605.6Z" transform="translate(-361.57 -221.88)" fill="#f9b385"/><path d="M858,767.27l24.08-36.94a56.64,56.64,0,0,0,7-15.13l23-90.91,48.68,4-20.6,97.55a57.36,57.36,0,0,1-3.64,12.58l-23.28,55.67-31.55,13.87Z" transform="translate(-361.57 -221.88)" fill="#f9b385"/><path d="M863.86,1511l-2,25.76-15.64,202.56-.72,9.48-48.24-7.52v-9.52l-.12-206.28a163.51,163.51,0,0,0-4.44-37.92c-13.92-58.24-55.4-233.24-52.6-237.72l91.92-9.4,29.88,221.08.68,5.08A208.65,208.65,0,0,1,863.86,1511Z" transform="translate(-361.57 -221.88)" fill="#f9b385"/><path d="M795.35,1774.08c1,11.42,9,11.27,12.19,11.27,9.14,0,93.41.29,94.33,0a24.43,24.43,0,0,0-6.63-15.66c-4.76-4.9-45.58-28.26-49-30.4-26.38,13.78-49-7.58-49-7.58S794.35,1762,795.35,1774.08Z" transform="translate(-361.57 -221.88)" fill="#703529"/><path d="M778.66,1254.29s-39.36,159.52-84.16,219c-5.76,7.6-11.56,13.56-17.4,17.36-13,8.48-29.72,4.84-49.64-8.32-33.84-22.28-77-71.88-127.56-135.44-2.24-2.76-4.44-5.56-6.68-8.4l18.8-33.2,25.08,8.6,100.72,87,38.28-158Z" transform="translate(-361.57 -221.88)" fill="#f9b385"/><path d="M505.67,1285.44c-9.42-6.53-14.44-.22-16.46,2.23-5.82,7-59.71,71.82-60.07,72.72a24.41,24.41,0,0,0,16.3,4.86c6.8-.54,50.81-17.14,54.62-18.39,6.17-29.12,37.06-33,37.06-33S515.65,1292.4,505.67,1285.44Z" transform="translate(-361.57 -221.88)" fill="#703529"/><path d="M732.16,1398.35c3-10.59,6.12-21.12,9.35-31.62s6.62-21,9.92-31.44L761.86,1304c3.6-10.38,7.22-20.76,11.12-31l1.49.49c-2.9,10.61-6.08,21.13-9.29,31.64l-10,31.42c-3.5,10.41-6.86,20.88-10.48,31.25s-7.21,20.77-11.07,31.07Z" transform="translate(-361.57 -221.88)" fill="#e38b6d"/><path d="M876.86,1267.77C711.78,1353.49,612.14,1263,587,1224.93c35.64-39.16,57.88-93.64,69.4-128.36,6.68-20.2,9.76-33.72,9.76-33.72l139.64-11.16,15.44-1.24s.2.76.6,2.24c1.08,4.2,3.68,14.08,7.16,27.4C843.58,1135.81,873.82,1252,876.86,1267.77Z" transform="translate(-361.57 -221.88)" fill="#142148"/><path d="M829,1080.09c-27.4,21.44-92.8,32.28-172.6,16.48,6.68-20.2,9.76-33.72,9.76-33.72l139.64-11.16,16,1C822.9,1056.89,825.5,1066.77,829,1080.09Z" transform="translate(-361.57 -221.88)" fill="#142148" opacity="0.6"/><path d="M913.18,794.05c-6.08,12.72-21.88,42.68-40.12,73.48-14.44,24.44-22.52,48.88-28.32,76.68-8.32,39.8-21.16,85.16-8.76,109.68,10.64,21-34.88,26.16-85.2,28.84-40,2.12-106.68,2-94.64-20.12,22.44-41.08-2.08-94.68-8.72-116.12-8.88-28.72-45.48-69-67.28-91.12-9.8-9.92-16.6-16.24-16.6-16.24s38.24-6.8,51.16-37.56c8.56,8.32,38.16,34.6,54.6,49.16a31.1,31.1,0,0,0,26,7.28l31.12-5.52h33.12c11.92,1.64,20.8,2.68,27.36,3.4a27.54,27.54,0,0,0,26.6-13.44L858,767.25S888,796.41,913.18,794.05Z" transform="translate(-361.57 -221.88)" fill="#f1874c"/><path d="M347.93,586h58.88a0,0,0,0,1,0,0v52.3a27.94,27.94,0,0,1-27.94,27.94h-3a27.94,27.94,0,0,1-27.94-27.94V586A0,0,0,0,1,347.93,586Z" fill="#f9b385"/><path d="M709.5,825.44s35.53,50.61,58.88-5.07C769.24,820.53,709.5,825.44,709.5,825.44Z" transform="translate(-361.57 -221.88)" fill="#e38b6d"/><path d="M777.54,768.89c.64,10.2,1.48,18.88.48,27.32a49.94,49.94,0,0,1-4.6,16c-15.4,32.08-60,34.32-82.56-10.72-19-38.12-10.28-77.52-10.28-77.52l50.24-21.8,48.44,23.72C776.34,743.45,776.82,757.17,777.54,768.89Z" transform="translate(-361.57 -221.88)" fill="#f9b385"/><path d="M788.41,749.35c-39.45,6.74-60.29-3.83-78.91-25.47-11.07,9.06-8.23,16.19-7.55,29.7.5,10-2,20.63-27.18,20.63L664.45,738,676,711.3l50.4-20.89L785.75,700Z" transform="translate(-361.57 -221.88)" fill="#142148"/><path d="M727.86,770.42c.14,2.89-1.31,5.31-3.26,5.41s-3.64-2.16-3.78-5.05,1.31-5.31,3.25-5.41S727.71,767.54,727.86,770.42Z" transform="translate(-361.57 -221.88)" fill="#0d1935"/><path d="M729.67,761.81a8.66,8.66,0,0,0-4.35-2.31,9.82,9.82,0,0,0-4.78.26,15.22,15.22,0,0,0-4.47,2.23,29.79,29.79,0,0,0-4,3.56L711,764.9a13.6,13.6,0,0,1,3.27-5.07,12.17,12.17,0,0,1,5.42-3.14,10.79,10.79,0,0,1,6.41.2,8,8,0,0,1,4.63,4.22Z" transform="translate(-361.57 -221.88)" fill="#0d1935"/><path d="M752.91,767.83c.14,2.89,1.84,5.15,3.78,5s3.4-2.52,3.26-5.41-1.84-5.14-3.79-5.05S752.76,764.94,752.91,767.83Z" transform="translate(-361.57 -221.88)" fill="#0d1935"/><path d="M748.49,759.9a11.67,11.67,0,0,1,3.09-4.24,9.25,9.25,0,0,1,5.22-2.18,11.93,11.93,0,0,1,9.49,4.4l-.73,1c-1.57-.54-3-1.25-4.42-1.62a12.76,12.76,0,0,0-4.13-.62,8.26,8.26,0,0,0-3.83,1.2,27.54,27.54,0,0,0-3.69,2.79Z" transform="translate(-361.57 -221.88)" fill="#0d1935"/><path d="M733.6,803l21.28-2.9h0c-.71,10.21-14.89,15.82-21.28,2.9Z" transform="translate(-361.57 -221.88)" fill="#fff"/><path d="M743.14,768.87c.36,2.36.56,4.73,1.43,6.58a6,6,0,0,0,1.78,2.24l1.42.95.73.5a5.78,5.78,0,0,1,.87.77,5.89,5.89,0,0,1-8,8.64l.62-1c2,.74,4.3.31,5.33-1a3.34,3.34,0,0,0-.21-4.48,5.67,5.67,0,0,0-1.17-1l-1.49-1.12a7.22,7.22,0,0,1-2.32-3.5,16.2,16.2,0,0,1-.2-7.53Z" transform="translate(-361.57 -221.88)" fill="#e38b6d"/><circle cx="715.72" cy="794.22" r="13.72" transform="translate(-670.09 265.8) rotate(-31.31)" fill="#f5887a" opacity="0.4"/><path d="M778,796.21a7.89,7.89,0,0,1-1.68.08,13.71,13.71,0,0,1,1.2-27.4C778.18,779.09,779,787.77,778,796.21Z" transform="translate(-361.57 -221.88)" fill="#f5887a" opacity="0.4"/><path d="M693.76,775.37c-8.25-6.82-17.27-7.78-21.23.42-4.63,9.61,9.37,31.22,23.11,24.14C696.88,798.06,693.76,775.37,693.76,775.37Z" transform="translate(-361.57 -221.88)" fill="#f9b385"/><path d="M687.85,783.43a10.73,10.73,0,0,0-4.56-5.88,4.74,4.74,0,0,0-6.38.84l-.68-.39a4.71,4.71,0,0,1,3.44-3,6.67,6.67,0,0,1,4.61.84,9,9,0,0,1,4.34,7.47Z" transform="translate(-361.57 -221.88)" fill="#e38b6d"/><g opacity="0.4"><path d="M709.5,899a53.2,53.2,0,0,0,31.29,9.55,43.9,43.9,0,0,0,15.53-3.14,61.87,61.87,0,0,0,14.54-8.91,29.86,29.86,0,0,1-11.58,14.4A34.16,34.16,0,0,1,741,916.57a37.86,37.86,0,0,1-18.5-4.42C716.89,909.2,711.93,904.7,709.5,899Z" transform="translate(-361.57 -221.88)" fill="#703529"/></g><g opacity="0.4"><path d="M770.86,1051.69c6.25-2.21,12.43-4.41,18.33-7a59,59,0,0,0,16-10.11,43.11,43.11,0,0,0,10.54-15.46,110.53,110.53,0,0,0,5.55-18.7,60.5,60.5,0,0,1-2.62,19.79,39.47,39.47,0,0,1-10.75,17.3,50.13,50.13,0,0,1-17.6,10.07A86.3,86.3,0,0,1,770.86,1051.69Z" transform="translate(-361.57 -221.88)" fill="#703529"/></g><path d="M520.94,636.59c-2.25,4.26-4.25,8.57-4.56,13.09a17,17,0,0,0,3.84,12.58l-.75.9a12.46,12.46,0,0,1-4.91-6,17.26,17.26,0,0,1-1.14-7.76A22.91,22.91,0,0,1,520,635.9Z" transform="translate(-361.57 -221.88)" fill="#e38b6d"/><path d="M487.35,640.09a22.5,22.5,0,0,1,6.3-4.74,51.35,51.35,0,0,1,7.14-3.13,74,74,0,0,1,7.43-2.13,51.51,51.51,0,0,1,7.65-1.14l.24,1.15c-4.77,1.85-9.63,3.22-14.34,4.93-2.4.74-4.72,1.69-7,2.61a40.16,40.16,0,0,0-6.62,3.32Z" transform="translate(-361.57 -221.88)" fill="#e38b6d"/><path d="M920.82,592.87a23,23,0,0,1,9.7,11.49,17.22,17.22,0,0,1,.8,7.8,12.48,12.48,0,0,1-3.28,7l-.95-.69a17,17,0,0,0,.62-13.14c-1.41-4.31-4.41-8-7.64-11.57Z" transform="translate(-361.57 -221.88)" fill="#e38b6d"/><path d="M953.65,593.83a39.87,39.87,0,0,0-7.13-2c-2.45-.46-4.9-.93-7.4-1.2-5-.76-10-1.16-15-2v-1.17a51.25,51.25,0,0,1,7.72-.37,73.76,73.76,0,0,1,7.71.65,51.49,51.49,0,0,1,7.61,1.68,22.44,22.44,0,0,1,7.1,3.43Z" transform="translate(-361.57 -221.88)" fill="#e38b6d"/><path d="M863.86,1511l-2,25.76c-31.32-36-22.72-59.32,0-75.24l.68,5.08A208.65,208.65,0,0,1,863.86,1511Z" transform="translate(-361.57 -221.88)" fill="#f5887a" opacity="0.4"/><path d="M694.5,1473.29c-5.76,7.6-11.56,13.56-17.4,17.36-13,8.48-29.72,4.84-49.64-8.32C649.5,1458.41,671.94,1455.73,694.5,1473.29Z" transform="translate(-361.57 -221.88)" fill="#f5887a" opacity="0.4"/><path d="M2221.39,1629.28c10.38,7.83,7.72,17.24,6.21,20.5-4.32,9.29-33.76,82.65-59.86,88.56-4.7,1.07-8.56-5.39-11-15.84-1.83-7.53.45-60.85.46-65.4,29.19-17,22.69-50.19,22.38-51.72l0-.06S2210.36,1621,2221.39,1629.28Z" transform="translate(-361.57 -221.88)" fill="#f47d20"/><path d="M2146.58,1581.81l33,23.51,0,.06c.31,1.53,6.81,34.74-22.38,51.72l-39.72-34Z" transform="translate(-361.57 -221.88)" fill="#f9b385"/><path d="M2037.37,1772.41c-1.08,13-10.24,12.8-13.84,12.8-10.36,0-106,.33-107,0a27.71,27.71,0,0,1,7.53-17.77c5.39-5.56,51.72-32.07,55.56-34.49,29.94,15.63,54.56-7.57,55.69-8.66l0,0S2038.5,1758.66,2037.37,1772.41Z" transform="translate(-361.57 -221.88)" fill="#f47d20"/><path d="M2037.62,1683.82l-2.3,40.43,0,0c-1.13,1.09-25.75,24.29-55.69,8.66l7.57-51.72Z" transform="translate(-361.57 -221.88)" fill="#f9b385"/><path d="M2068.34,1273.65,2086,1440a46,46,0,0,0,6.4,19L2161.46,1573l-53.16,78.18-90-130.45Z" transform="translate(-361.57 -221.88)" fill="#142148"/><path d="M2094.78,1205.57a345.41,345.41,0,0,0-19.68,94.72l-26.52,396.08h-88.84l10.32-519,1.16-58,131.72-11.52a91.06,91.06,0,0,1,4.6,19.84C2110.42,1151.81,2104.74,1178.09,2094.78,1205.57Z" transform="translate(-361.57 -221.88)" fill="#142148"/><path d="M1909.19,712.93c-9.24-7.78-13.69-21.38-8.22-33.39a12.57,12.57,0,0,1,10.83-7.15c-9.56-9.49-4.16-19.18-1.54-24.21a19,19,0,0,1,7.9-8.38c4.41-2.24,11.62-3,19.93-.84-.6-8.56,3.68-11.28,4.81-12.51a25.57,25.57,0,0,1,12.55-7.57c6.86-1.74,16.77-.74,21.64,5,.88,1,2.09,4.75,3.39,5,1,.21,1.67-.83,2.21-1.65,3-4.66,9-6.46,14.59-6.62,4.69-.13,9.69.8,13.17,4s4.77,9,1.84,12.65c7.83-4.27,18.13-4.75,25.39.44s9.9,16.57,4.31,23.53c4.42-.17,8.66,2.35,11.37,5.85s4.07,7.86,4.8,12.23c2.77,16.67-3.85,34.81-17.32,45a44.08,44.08,0,0,1-24.15,8.84c-6.91.37-13.79-.9-20.6-2.16-12-2.22-24.08-4.47-35.44-8.94a95.88,95.88,0,0,1-23-13c-2.81-2.15-4.08,9.52-7.83,10A26.15,26.15,0,0,1,1909.19,712.93Z" transform="translate(-361.57 -221.88)" fill="#703529"/><path d="M1868.83,944.12l-31.21,35.23s-41.47-35.64-61.34-67.25c-.37-.69-.87-1.32-1.24-2a88,88,0,0,1-6.34-12.72c0-.12,0-.18,0-.24-.53-2.79,0-5,1.88-6.53,2.47-2.05,3.09-.55,7.78,3.67-4.33-9.13-7.24-14.36-9.22-19.71-1.46-4.05-1.31-7.22,1.16-9.21,2-1.61,5.11-.44,8.43,1.94-.22-.68-1.29-9.13,1.43-11.29s7.58.45,13.14,6c.73.71,1.46,1.48,2.18,2.31a20.09,20.09,0,0,1-.5-2.31,5.92,5.92,0,0,1,2.1-5.38c5.09-4.09,13.58,6.28,16.29,9.34,10.57,12,21.73,23.59,30.73,36.82,4.29,6.31,8.34,12.78,12.25,19.33C1857.61,924.34,1869.81,943,1868.83,944.12Z" transform="translate(-361.57 -221.88)" fill="#e38b6d"/><path d="M1837.62,979.35s88.19,76,118.79,72.84,39.33-67.33,39.33-67.33l-126.91-40.74-34.16,12.28Z" transform="translate(-361.57 -221.88)" fill="#e38b6d"/><polygon points="1667.13 510.24 1667.13 617.4 1607.01 617.4 1607.01 520.68 1667.13 510.24" fill="#f9b385"/><path d="M2008.78,771.21c-2.56,9.12-12.24,29.32-40.2,34.08V773.93Z" transform="translate(-361.57 -221.88)" fill="#e38b6d"/><path d="M2018.26,757.05c-11.16,21.6-32.76,38.32-57.12,30.64-12.6-4-19.88-13.6-24.24-27.16a132.6,132.6,0,0,1-4.92-26.76c-1.48-15.08-1.72-32.32-2.2-50.6l46.68-30.64,46,25.76S2029.42,735.45,2018.26,757.05Z" transform="translate(-361.57 -221.88)" fill="#f9b385"/><path d="M2107.54,1127.73c-21.92,31-84.32,48.12-137.48,49.64l1.16-58,131.72-11.52A91.06,91.06,0,0,1,2107.54,1127.73Z" transform="translate(-361.57 -221.88)" fill="#142148" opacity="0.6"/><path d="M2101.9,1125c-38.44,20.48-88.64,23.6-142.6,20.64a11,11,0,0,1-13-10.68q-.66-32.58-1.28-65.12-.78-38.1-1.48-76.24-.12-7.32-.36-14.64c-1-31.88-3.24-64.12-2.28-95.84,1-32.88,17.6-54.52,48.28-65.76,21.8-8,49.16-13.12,65.76,7.92,28.44,36.08,31.24,84.36,41,127.32,10.6,46.32,17.24,93.44,22.36,140.64C2119.74,1106,2117.22,1115.21,2101.9,1125Z" transform="translate(-361.57 -221.88)" fill="#f1874c"/><path d="M2043.06,983.85c-4.88,32.36-26,90.72-98,86q-.78-38.1-1.48-76.24-.12-7.32-.36-14.64Z" transform="translate(-361.57 -221.88)" fill="#243f87" opacity="0.3"/><path d="M2047.54,979.33s-7.92,26.72-23.84,43.84c-4.8,5.2-10.32,9.48-16.6,11.92-7.16,2.8-18.48,2.24-32.4-1.2-32.08-7.88-78.16-30.92-120-63.2L1842,912.21c40.32-5.56,93.12,31.64,136.52,49Z" transform="translate(-361.57 -221.88)" fill="#f9b385"/><path d="M2027.34,691.13a16.13,16.13,0,0,0-12.64-21,9.89,9.89,0,0,0-5.44-6.24,32.36,32.36,0,0,0-8.24-2.32,15.12,15.12,0,0,1-4-1.2,23.75,23.75,0,0,1-4.56-3.48,26.28,26.28,0,0,0-21.32-5.6c-4.16.8-8.12,2.6-12.32,3.2-5.16.76-10.76-.2-15.4,2.24-3.84,2-6.2,6-9.48,8.72-3.68,3.12-9,5.44-9.68,10.2-.2,1.2-.08,2.56-.84,3.52a6.57,6.57,0,0,1-2.72,1.56,8,8,0,0,0-4.2,4c-2,4.2-.52,10.08,2,13.84a15.33,15.33,0,0,0,10.24,6.72,16.87,16.87,0,0,0,8.08,1.12c6.52-.72,12.68-6,13.72-12.6a9.68,9.68,0,0,0,3,6.68,14.29,14.29,0,0,0,8.24,3.64c6.29.74,13.85-.49,16.56-7.08-.36.88,4.44,5.16,5.16,5.84a33.6,33.6,0,0,0,3.2,2.6c1.24.92,2.52,1.76,3.84,2.56,1,.56,2,1.12,3.08,1.6a31,31,0,0,0,17,3.2A30,30,0,0,0,2031.18,701,14,14,0,0,0,2027.34,691.13Z" transform="translate(-361.57 -221.88)" fill="#703529"/><path d="M1883.48,933.36l-28.77,37.26s-43.77-32.77-65.72-63c-.42-.65-1-1.25-1.38-1.91a88.57,88.57,0,0,1-7.17-12.26c0-.12-.06-.18-.06-.24-.72-2.75-.36-5,1.43-6.64,2.33-2.21,5.93,1.57,10.89,5.46a96.45,96.45,0,0,1-13.4-21.37c-1.74-3.94-1.79-7.11.54-9.27,1.85-1.73,5.07-.77,8.54,1.38-.27-.66-1.9-9,.67-11.36s7.59-.06,13.51,5.14c.78.66,1.56,1.38,2.34,2.15a18.4,18.4,0,0,1-.66-2.27A5.92,5.92,0,0,1,1806,851c4.8-4.43,14,5.34,16.88,8.22,11.35,11.21,23.27,22.07,33.14,34.66,4.7,6,9.18,12.19,13.52,18.47C1871,914.38,1884.39,932.18,1883.48,933.36Z" transform="translate(-361.57 -221.88)" fill="#f9b385"/><path d="M1864.21,893c7.72,20.23,10.55,37.93,6.3,39.55s-13.94-13.46-21.66-33.68-13.53-36.32-6.3-39.55C1848.36,856.76,1856.49,872.82,1864.21,893Z" transform="translate(-361.57 -221.88)" fill="#f9b385"/><path d="M2047.53,862.19c22.88,40.67,26.56,109.4,16.38,136.84l-7.32-2.28Z" transform="translate(-361.57 -221.88)" fill="#243f87" opacity="0.3"/><path d="M1978.55,961.22s1.39-102.44,39.72-109.41c37.11-6.74,48.08,18.12,38.32,144.94C2055.2,996.75,1978.55,961.22,1978.55,961.22Z" transform="translate(-361.57 -221.88)" fill="#f1874c"/><path d="M1918.1,681.45a10.93,10.93,0,0,0-1.56,3.32" transform="translate(-361.57 -221.88)" fill="none"/><path d="M2056.27,997.46c-6.71-2.52-13.31-5.26-19.89-8.05s-13.08-5.76-19.63-8.62-13-6-19.42-9.1-12.82-6.32-19.11-9.76l.65-1.43c6.72,2.48,13.32,5.24,19.91,8s13.1,5.73,19.61,8.67,13,6,19.39,9.15,12.83,6.31,19.14,9.71Z" transform="translate(-361.57 -221.88)" fill="#243f87"/><path d="M2007.74,857.64c-1.81,1.82-3.66,3.05-5.31,4.66a26,26,0,0,0-2.38,2.43,23.5,23.5,0,0,0-2.14,2.62,50.55,50.55,0,0,0-6.67,11.82A121.05,121.05,0,0,0,1984,905.7c-.73,4.55-1.4,9.14-2,13.73-.4,4.63-.93,9.23-1.22,13.87-.73,9.27-1,18.57-1.49,27.9l-1.56,0c-.28-4.68-.39-9.36-.58-14.05s.1-9.38.14-14.07A225.06,225.06,0,0,1,1980.1,905c1.69-9.27,4-18.56,8.06-27.23a52.24,52.24,0,0,1,7.65-12.15c3-3.69,7.25-6.59,10.82-9.09Z" transform="translate(-361.57 -221.88)" fill="#243f87"/><path d="M2023.7,1023.17a46.16,46.16,0,0,1-16.6,11.92c-7.5,3-22.42,2-37.64-2.59C1978.49,1010.53,2015,1011.78,2023.7,1023.17Z" transform="translate(-361.57 -221.88)" fill="#f5887a" opacity="0.4"/><path d="M1803,856.16c4.92,4.13,9.4,8.7,13.88,13.26q3.29,3.48,6.49,7.05c2.08,2.42,4.16,4.85,6.07,7.42l-.88.78c-2.5-2-4.82-4.24-7.14-6.44s-4.52-4.5-6.73-6.8c-4.32-4.67-8.65-9.34-12.54-14.45Z" transform="translate(-361.57 -221.88)" fill="#e38b6d"/><path d="M1788.51,861.9c5.34,4.85,10.22,10.13,15.1,15.4q3.6,4,7.09,8.11c2.29,2.77,4.57,5.55,6.68,8.48l-.88.78c-2.7-2.41-5.23-5-7.76-7.52s-4.93-5.22-7.34-7.87c-4.74-5.4-9.48-10.78-13.76-16.59Z" transform="translate(-361.57 -221.88)" fill="#e38b6d"/><path d="M1791,889.09a74.66,74.66,0,0,1,8.75,7.9q2,2.14,3.92,4.38a49.66,49.66,0,0,1,3.5,4.75l-.88.77a49.11,49.11,0,0,1-4.57-3.76c-1.42-1.34-2.8-2.72-4.16-4.12a74.3,74.3,0,0,1-7.4-9.11Z" transform="translate(-361.57 -221.88)" fill="#e38b6d"/><path d="M1976.85,724.42c.22,3,2,5.29,4,5.14s3.47-2.69,3.25-5.68-2-5.29-4-5.14S1976.63,721.43,1976.85,724.42Z" transform="translate(-361.57 -221.88)" fill="#2d1712"/><path d="M1972.82,715.16a9.57,9.57,0,0,1,9.38-4.95,10.71,10.71,0,0,1,5.22,2.07,12.22,12.22,0,0,1,3.35,4.15l-.93.72a30,30,0,0,0-3.87-2.68,10.35,10.35,0,0,0-4.06-1.31,9.54,9.54,0,0,0-4.21.47,12,12,0,0,0-3.92,2.21Z" transform="translate(-361.57 -221.88)" fill="#2d1712"/><path d="M1950.77,725c.22,3-1.23,5.53-3.24,5.68s-3.82-2.15-4-5.14,1.23-5.53,3.24-5.68S1950.55,722,1950.77,725Z" transform="translate(-361.57 -221.88)" fill="#2d1712"/><path d="M1954.08,715.92c-2.73-1.65-5.83-2.64-8.67-2.19a9.07,9.07,0,0,0-4,1.53,23.23,23.23,0,0,0-3.52,3.17l-1-.58a11.38,11.38,0,0,1,2.91-4.64,10,10,0,0,1,5.24-2.43,10.73,10.73,0,0,1,9.89,4.33Z" transform="translate(-361.57 -221.88)" fill="#2d1712"/><path d="M1975.21,755.31l-22.94-.75h0c5,10.8,13.14,14,22.94.75Z" transform="translate(-361.57 -221.88)" fill="#fff"/><path d="M1963.24,722.07c.64,2.74,1.22,5.68.47,8.77a8.11,8.11,0,0,1-2.39,4.07,27.89,27.89,0,0,0-2.93,2.78,4.07,4.07,0,0,0,.74,5.84c1.81,1.41,4.77,1.31,7.06,0l.58.79a7.54,7.54,0,0,1-8.86,1,6,6,0,0,1-2.77-4.22,6.77,6.77,0,0,1,1.24-4.89,23.56,23.56,0,0,1,3.27-3,7,7,0,0,0,2-3c.82-2.4.66-5.23.59-8Z" transform="translate(-361.57 -221.88)" fill="#e38b6d"/><circle cx="1995.61" cy="746.63" r="13.8" transform="translate(-478.87 249.96) rotate(-13.1)" fill="#f5887a" opacity="0.4"/><path d="M1936.9,760.53a132.6,132.6,0,0,1-4.92-26.76,13.81,13.81,0,0,1,4.92,26.76Z" transform="translate(-361.57 -221.88)" fill="#f5887a" opacity="0.4"/><path d="M2016.78,720.24c4.29-5,10-8,17.17-7,10.19,1.49,8.58,40.83-16.1,33.36C2013,746.63,2016.78,720.24,2016.78,720.24Z" transform="translate(-361.57 -221.88)" fill="#f9b385"/><path d="M2024.88,727.05a7.9,7.9,0,0,1,1.87-7.88,5,5,0,0,1,4.53-1.08,5.91,5.91,0,0,1,3.31,2.62l-.7.69a7.8,7.8,0,0,0-3.05-1.17,3.19,3.19,0,0,0-2.46.8c-1.5,1.2-2,3.59-2.53,6Z" transform="translate(-361.57 -221.88)" fill="#e38b6d"/><path d="M1221.93,1681.51l-11,39.26c11.25,23.81,37.7,32.24,62.58,9.67l8.94-42.15Z" transform="translate(-361.57 -221.88)" fill="#f9b385"/><path d="M1210.91,1720.77l-21.21,75.63c-3.8,16.3,14.45,43.41,22.73,42.68h0c13.21.73,40-10.88,43.79-27.19l17.27-81.45C1242.3,1748.94,1226.31,1738.67,1210.91,1720.77Z" transform="translate(-361.57 -221.88)" fill="#142148"/><path d="M1378.67,1671.64l2.58,45.4,0,0c9.69,20.19,50.44,37.69,62.54,9.72l-8.5-58.08Z" transform="translate(-361.57 -221.88)" fill="#f9b385"/><path d="M1379,1771.13c1.22,14.56,11.51,14.37,15.54,14.37,11.65,0,119,.37,120.2,0a31.15,31.15,0,0,0-8.45-20c-6.06-6.24-58.08-36-62.4-38.73-10.1,13.55-40.1,13.55-62.54-9.72l0,0S1377.69,1755.68,1379,1771.13Z" transform="translate(-361.57 -221.88)" fill="#142148"/><path d="M1157.23,1047.51c14,11.81,56.41,36,75.75,30.08s10.2-50.5,10.2-50.5l-62.31-18.27Z" transform="translate(-361.57 -221.88)" fill="#f9b385"/><path d="M1409.85,638a3.89,3.89,0,0,1-.47.39c-27.93,20.76-48-18.27-62.7-21.83s-33.48,10.27-46,1.67c0,0-7.78,52.13-2.41,69.33-80.28-31.72-36.53-112-14.57-102.89,15.39-53.73,68-29.83,91.16-21.24C1428,540.22,1437.23,616.72,1409.85,638Z" transform="translate(-361.57 -221.88)" fill="#142148"/><path d="M1663,603.24c-1.64-.54,5.28-26.08,6.34-28.94,2.68-7.2,6.74-13.53,14.32-17.58,19.43-10.38,43-12.3,65.24-13.2,13.94-.56,45.82-2.37,53.18,8.31,6.92,10-10.56,17-18.58,18.89-15.39,3.59-32.8,3.88-46,12.61-12.12,8-23.42,24.4-19.64,38.08Z" transform="translate(-361.57 -221.88)" fill="#f9b385"/><polygon points="1126.23 792.49 1093.28 1468.68 1008.76 1471.55 1011.63 1087.61 931.4 1475.84 842.58 1472.98 915.64 771 1126.23 792.49" fill="#142148"/><path d="M1487.1,1057.17a93.73,93.73,0,0,1-9.52,5.52c-17.68,9.12-44,17.2-73.08,21.76a303,303,0,0,1-64.76,3.32c-25.2-1.48-49.48-6.72-69.68-17.16l1.48-20.24,20-274.16,145-6.44Z" transform="translate(-361.57 -221.88)" fill="#fff"/><path d="M1354.93,793.93h0a32,32,0,0,1-32-32.29l-3.05-65.3h64.11l3,65.78A32,32,0,0,1,1354.93,793.93Z" transform="translate(-361.57 -221.88)" fill="#f9b385"/><path d="M1320.76,720.39c13.48,21.05,43.81,36.3,64-2Z" transform="translate(-361.57 -221.88)" fill="#e38b6d"/><path d="M1399.22,684c-1.52,15.36-6.16,28.2-15.8,35.52-20.08,15.32-59.64,15.6-80.08-17.16s-18.8-90.28-18.8-90.28l48.88-22,50.52,2.68,9.12,22.56a345,345,0,0,1,6.2,41.92A161.26,161.26,0,0,1,1399.22,684Z" transform="translate(-361.57 -221.88)" fill="#f9b385"/><rect x="1359.82" y="103.93" width="25.12" height="186.02" fill="#bb9130"/><polygon points="1424.29 140.88 1436.53 212.32 1372.37 178.56 1308.21 212.32 1316.49 164.2 1320.49 140.88 1268.57 90.28 1340.29 79.84 1372.37 14.84 1404.45 79.84 1420.65 82.2 1476.21 90.28 1424.29 140.88" fill="#f9c243"/><path d="M1796.3,529.89H1671.62l1.6-7.24,9.32-41.76a11.93,11.93,0,0,1,11.6-9.32h79.6a11.89,11.89,0,0,1,11.6,9.32Z" transform="translate(-361.57 -221.88)" fill="#f9c243"/><path d="M1785.86,362.77l12.24,71.44-64.16-33.76-64.16,33.76,8.28-48.12c57.08-10.8,88.16-50.2,104.16-82l55.56,8.08Z" transform="translate(-361.57 -221.88)" fill="#bb9130" opacity="0.3"/><path d="M1704.83,319.25c1,4.45-5.57,9.63-14.58,11.57s-17.09-.1-18-4.56,5.57-9.63,14.58-11.57S1703.87,314.79,1704.83,319.25Z" transform="translate(-361.57 -221.88)" fill="#fff" opacity="0.9"/><path d="M1796.3,529.89H1671.62l1.6-7.24c32.84-2.24,63.92-27.64,78.68-51.08h21.84a11.89,11.89,0,0,1,11.6,9.32Z" transform="translate(-361.57 -221.88)" fill="#bb9130" opacity="0.3"/><path d="M1807.22,544.67H1660.68a11.13,11.13,0,0,1-11.13-11.12h0a11.13,11.13,0,0,1,11.13-11.13h146.54a11.13,11.13,0,0,1,11.13,11.13h0A11.12,11.12,0,0,1,1807.22,544.67Z" transform="translate(-361.57 -221.88)" fill="#bb9130"/><path d="M1628.52,221.88A143.29,143.29,0,0,1,1650,238.62c3.32,3.06,6.54,6.24,9.6,9.59a91.23,91.23,0,0,1,8.58,10.67l-2.14,2.29a90.34,90.34,0,0,1-11.24-7.82c-3.55-2.82-6.94-5.81-10.23-8.91a142.79,142.79,0,0,1-18.17-20.27Z" transform="translate(-361.57 -221.88)" fill="#f9c243"/><path d="M1841.54,224.17a143.4,143.4,0,0,1-18.17,20.27c-3.29,3.1-6.68,6.09-10.23,8.91a91.09,91.09,0,0,1-11.24,7.82l-2.14-2.29a91.23,91.23,0,0,1,8.58-10.67c3.06-3.35,6.27-6.53,9.59-9.59a143.37,143.37,0,0,1,21.47-16.74Z" transform="translate(-361.57 -221.88)" fill="#f9c243"/><path d="M1812.83,272.64a46,46,0,0,1,12.34-9.14,50.85,50.85,0,0,1,6.95-3.09,29.83,29.83,0,0,1,7.63-1.77l1.44,2.77a30.07,30.07,0,0,1-5.83,5.23,50.86,50.86,0,0,1-6.51,3.92,46.23,46.23,0,0,1-14.58,4.85Z" transform="translate(-361.57 -221.88)" fill="#f9c243"/><path d="M1653.65,275.41a46.23,46.23,0,0,1-14.58-4.85,50.18,50.18,0,0,1-6.51-3.92,30.07,30.07,0,0,1-5.83-5.23l1.44-2.77a29.93,29.93,0,0,1,7.63,1.77,50.85,50.85,0,0,1,7,3.09,46,46,0,0,1,12.34,9.14Z" transform="translate(-361.57 -221.88)" fill="#f9c243"/><g opacity="0.3"><path d="M1337.24,805a59.57,59.57,0,0,0,11.89,5.82,25.38,25.38,0,0,0,11.39,1.18,28.77,28.77,0,0,0,10.92-3.9,94,94,0,0,0,10.81-7.86,25.62,25.62,0,0,1-6.91,12.79,23.72,23.72,0,0,1-13.83,6.91,22.56,22.56,0,0,1-15.16-3.5A23,23,0,0,1,1337.24,805Z" transform="translate(-361.57 -221.88)" fill="#243f87"/></g><path d="M1477.58,1062.69c-17.68,9.12-44,17.2-73.08,21.76-16.52-50.56-24.12-153-13.28-258.32Z" transform="translate(-361.57 -221.88)" fill="#243f87" opacity="0.3"/><path d="M1339.74,1087.77c-25.2-1.48-49.48-6.72-69.68-17.16l1.48-20.24L1332.1,819C1350.1,915.53,1349.74,1030.37,1339.74,1087.77Z" transform="translate(-361.57 -221.88)" fill="#243f87" opacity="0.3"/><path d="M1386.8,754c61.61-8,122.27-14.81,181.6-22a30.87,30.87,0,0,0,23.9-16.85l63.47-126.63,73.43,17.55-54.07,141a124,124,0,0,1-80.4,74.48l-103.62,30.9s-7.92,82.18,52.25,247.64c-2.15,12.9-53.72,29.37-105.29,27.22C1413.71,1105.15,1404.71,1057.35,1386.8,754Z" transform="translate(-361.57 -221.88)" fill="#142148"/><path d="M1322.88,761.64s-54.75-1.2-127.42,10.7a104.18,104.18,0,0,0-61,33.43c-29.5,33.18-64.66,85-85.31,116.62a40.37,40.37,0,0,0,5.09,50.46l90.14,97.76,55.87-59.1-65.54-71.63,73.77-88.1s12.9-5.73,22.21,1.43c2.86,9.31,4.12,119.59-36.71,279.32,16.47,12.9,100.28,20.78,118.9,3.59C1317.14,1129.67,1358.51,930.09,1322.88,761.64Z" transform="translate(-361.57 -221.88)" fill="#142148"/><path d="M1335,657.28c.35,3.57-1.33,6.65-3.73,6.88s-4.63-2.48-5-6,1.34-6.66,3.74-6.89S1334.68,653.7,1335,657.28Z" transform="translate(-361.57 -221.88)" fill="#0d1935"/><path d="M1336.88,646.58a17.19,17.19,0,0,0-11.7-1c-3.88.91-7,3.24-10,6.51l-1.38-.74a14.06,14.06,0,0,1,3.82-6.15,14.5,14.5,0,0,1,6.61-3.49,15.82,15.82,0,0,1,7.4,0,10.89,10.89,0,0,1,6.35,3.75Z" transform="translate(-361.57 -221.88)" fill="#0d1935"/><path d="M1366,652.67c.34,3.58,2.57,6.29,5,6.06s4.08-3.31,3.74-6.89-2.57-6.28-5-6.05S1365.61,649.1,1366,652.67Z" transform="translate(-361.57 -221.88)" fill="#0d1935"/><path d="M1359,641.81a12.9,12.9,0,0,1,5.07-5.23,16.22,16.22,0,0,1,7-2.35,13.11,13.11,0,0,1,7.44,1.43,12.58,12.58,0,0,1,5.14,5.21l-1.21,1c-3.52-2.65-7.09-4-11-3.65a20.87,20.87,0,0,0-11.12,4.49Z" transform="translate(-361.57 -221.88)" fill="#0d1935"/><path d="M1339.48,692.61l33.7-5.74h0c-.58,16.29-22.85,26-33.7,5.74Z" transform="translate(-361.57 -221.88)" fill="#fff"/><path d="M1409.85,638a3.89,3.89,0,0,1-.47.39c-27.93,20.76-48-18.27-62.7-21.83s-33.48,10.27-46,1.67c0,0-16.13,35.56-2.41,69.33l-24.41-35.72s-3-39.8-3.78-39.8c0-.6,25.27-20.11,25.27-20.11L1345,573.35l50.76,8.6,8,29Z" transform="translate(-361.57 -221.88)" fill="#142148"/><path d="M1295.12,659.15c-13.61,0-22.09,2.36-20.78,16.76,1.08,11.79,14,32.89,31.88,17.38Z" transform="translate(-361.57 -221.88)" fill="#f9b385"/><g opacity="0.6"><path d="M1363.51,1352.48c2-12.19,4.12-24.36,6.39-36.5s4.67-24.26,7-36.39l7.51-36.28c2.63-12.07,5.28-24.13,8.22-36.14l1.54.31c-1.91,12.21-4.12,24.37-6.34,36.52l-7,36.37c-2.53,12.09-4.91,24.21-7.57,36.27s-5.33,24.13-8.17,36.15Z" transform="translate(-361.57 -221.88)" fill="#748bc6"/></g><path d="M1293.65,677.69a18.05,18.05,0,0,0-1.78-5.4,5.55,5.55,0,0,0-3.75-2.85,5,5,0,0,0-4.42,1.29,11.34,11.34,0,0,0-3,4.56l-1.15-.21a9.42,9.42,0,0,1,2.38-6.24,7.38,7.38,0,0,1,6.81-2.32,7.74,7.74,0,0,1,5.44,4.63,12.57,12.57,0,0,1,.7,6.54Z" transform="translate(-361.57 -221.88)" fill="#e38b6d"/><path d="M1351.8,651.71c.49,3.33.86,6.72,2.32,9.38a8.32,8.32,0,0,0,3,3.17,28.08,28.08,0,0,1,4.45,2.85,8.05,8.05,0,0,1,2.46,5.52,7.17,7.17,0,0,1-2.42,5.54,9,9,0,0,1-10.67.61l.53-1c3,1.06,6.47.58,8.33-1.45a4.88,4.88,0,0,0-.3-7,31.49,31.49,0,0,0-4-2.7,9.69,9.69,0,0,1-3.63-4.33c-1.51-3.49-1.42-7.08-1.22-10.46Z" transform="translate(-361.57 -221.88)" fill="#e38b6d"/><path d="M1399.22,684a13.84,13.84,0,0,1-4.48.72,14.12,14.12,0,0,1,0-28.24,13.25,13.25,0,0,1,4.52.76A161.26,161.26,0,0,1,1399.22,684Z" transform="translate(-361.57 -221.88)" fill="#f5887a" opacity="0.4"/><circle cx="1318.24" cy="684.67" r="14.11" transform="translate(-364.65 -215.91) rotate(-0.26)" fill="#f5887a" opacity="0.4"/></svg>