<svg id="Layer_1" data-name="Layer 1" xmlns="http://www.w3.org/2000/svg" xmlns:xlink="http://www.w3.org/1999/xlink" viewBox="0 0 49.36 49.36"><defs><clipPath id="clip-path"><polygon points="-4.38 54.6 54.51 54.6 54.51 -4.3 -4.38 -4.3 -4.38 54.6 -4.38 54.6" fill="none" clip-rule="evenodd"/></clipPath><clipPath id="clip-path-2" transform="translate(-0.44 -0.52)"><polygon points="-4.38 -4.3 54.51 -4.3 54.51 54.6 -4.38 54.6 -4.38 -4.3 -4.38 -4.3" fill="none" clip-path="url(#clip-path)" clip-rule="evenodd"/></clipPath><clipPath id="clip-path-3" transform="translate(-0.44 -0.52)"><polygon points="-4.38 54.6 54.51 54.6 54.51 -4.3 -4.38 -4.3 -4.38 54.6 -4.38 54.6" fill="none"/></clipPath></defs><g clip-path="url(#clip-path-2)"><g clip-path="url(#clip-path-3)"><path d="M43.92.52H6.31A5.87,5.87,0,0,0,.44,6.4V44a5.87,5.87,0,0,0,5.87,5.87H43.92A5.87,5.87,0,0,0,49.8,44V6.4A5.88,5.88,0,0,0,43.92.52ZM15.72,19.33V41.66H8.66V19.33Zm-7.06-6.5c0-1.65,1.41-2.91,3.53-2.91s3.44,1.26,3.53,2.91-1.32,3-3.53,3-3.53-1.33-3.53-3ZM41.57,41.66h-7V29.9c0-2.35-1.18-4.7-4.11-4.74h-.1c-2.84,0-4,2.42-4,4.74V41.66h-7V19.33h7.05v3a8.82,8.82,0,0,1,6.83-3c4.67,0,8.45,3.2,8.45,9.7V41.66Z" transform="translate(-0.44 -0.52)" fill="#fff"/></g></g></svg>