<svg id="Layer_1" data-name="Layer 1" xmlns="http://www.w3.org/2000/svg" xmlns:xlink="http://www.w3.org/1999/xlink" viewBox="0 0 59.36 59.36"><defs><clipPath id="clip-path" transform="translate(-0.32 -0.32)"><polygon points="0.32 59.68 59.68 59.68 59.68 0.32 0.32 0.32 0.32 59.68 0.32 59.68" fill="none" clip-rule="evenodd"/></clipPath></defs><path d="M.32,30A29.68,29.68,0,1,1,30,59.68,29.68,29.68,0,0,1,.32,30Z" transform="translate(-0.32 -0.32)" fill="#1d1d26" fill-rule="evenodd"/><path d="M32.58,35l-4.95,5.51a5.25,5.25,0,1,1-7.87-6.95l4.83-5.43" transform="translate(-0.32 -0.32)" fill="none" stroke="#fff" stroke-miterlimit="8" stroke-width="3"/><g clip-path="url(#clip-path)"><path d="M35.3,32l4.85-5.6a5.25,5.25,0,0,0-7.87-6.95l-4.79,5.47" transform="translate(-0.32 -0.32)" fill="none" stroke="#fff" stroke-miterlimit="8" stroke-width="3"/><g clip-path="url(#clip-path)"><line x1="24.61" y1="35.26" x2="35.68" y2="22.72" fill="none" stroke="#fff" stroke-miterlimit="8" stroke-width="3"/></g></g></svg>