<svg id="Layer_1" data-name="Layer 1" xmlns="http://www.w3.org/2000/svg" xmlns:xlink="http://www.w3.org/1999/xlink" viewBox="0 0 53.4 53.4"><defs><clipPath id="clip-path" transform="translate(-1.35 -1.35)"><polygon points="1.35 54.75 54.75 54.75 54.75 1.35 1.35 1.35 1.35 54.75 1.35 54.75" fill="none" clip-rule="evenodd"/></clipPath></defs><path d="M1.35,28.05a26.7,26.7,0,1,1,26.7,26.7,26.71,26.71,0,0,1-26.7-26.7Z" transform="translate(-1.35 -1.35)" fill="#fff" fill-rule="evenodd"/><path d="M30.37,32.58l-4.46,5a4.72,4.72,0,1,1-7.08-6.25l4.35-4.89" transform="translate(-1.35 -1.35)" fill="none" stroke="#1d1d26" stroke-miterlimit="8" stroke-width="3"/><g clip-path="url(#clip-path)"><path d="M32.81,29.81l4.37-5a4.73,4.73,0,0,0-7.09-6.25l-4.3,4.92" transform="translate(-1.35 -1.35)" fill="none" stroke="#1d1d26" stroke-miterlimit="8" stroke-width="3"/><g clip-path="url(#clip-path)"><line x1="22.13" y1="31.72" x2="32.09" y2="20.43" fill="none" stroke="#1d1d26" stroke-miterlimit="8" stroke-width="3"/></g></g></svg>