<svg xmlns="http://www.w3.org/2000/svg" xmlns:xlink="http://www.w3.org/1999/xlink" viewBox="0 0 1486.19 1041.98"><defs><linearGradient id="linear-gradient" x1="-1358.41" y1="1093.88" x2="72.01" y2="1093.88" gradientTransform="matrix(-1, 0, 0, 1, 702.65, 0)" gradientUnits="userSpaceOnUse"><stop offset="0" stop-color="#dae3fe"/><stop offset="1" stop-color="#e9effd"/></linearGradient><linearGradient id="linear-gradient-2" x1="1113.52" y1="854.22" x2="1113.52" y2="953.22" gradientUnits="userSpaceOnUse"><stop offset="0" stop-color="#ff928e"/><stop offset="1" stop-color="#feb3b1"/></linearGradient><linearGradient id="linear-gradient-3" x1="1069.53" y1="854.22" x2="1069.53" y2="953.22" xlink:href="#linear-gradient-2"/><linearGradient id="linear-gradient-4" x1="777.53" y1="1239.02" x2="887.43" y2="1239.02" gradientTransform="matrix(1, 0, 0, 1, 0, 0)" xlink:href="#linear-gradient"/><linearGradient id="linear-gradient-5" x1="777.53" y1="1344.14" x2="783.63" y2="1344.14" gradientTransform="matrix(1, 0, 0, 1, 0, 0)" xlink:href="#linear-gradient"/><linearGradient id="linear-gradient-6" x1="644.26" y1="1194.22" x2="644.26" y2="1391.22" xlink:href="#linear-gradient-2"/><linearGradient id="linear-gradient-7" x1="592.36" y1="1194.22" x2="592.36" y2="1391.22" xlink:href="#linear-gradient-2"/><linearGradient id="linear-gradient-8" x1="1437.46" y1="969.18" x2="1438.46" y2="1152.18" gradientTransform="matrix(1, 0, 0, 1, 0, 0)" xlink:href="#linear-gradient"/><linearGradient id="linear-gradient-9" x1="1384.99" y1="969.47" x2="1385.99" y2="1152.47" gradientTransform="matrix(1, 0, 0, 1, 0, 0)" xlink:href="#linear-gradient"/><linearGradient id="linear-gradient-10" x1="1685.72" y1="1148.76" x2="1657.72" y2="1390.76" xlink:href="#linear-gradient-2"/><linearGradient id="linear-gradient-11" x1="1650.05" y1="1144.63" x2="1622.05" y2="1386.63" xlink:href="#linear-gradient-2"/></defs><g id="Illustration"><path d="M1688.44,678.42c84,97.63,375.66-10.84,372.59,169.17-3.59,210.77-290.2,272.79-197.4,420.93S1854,1582.7,1481,1579.58s-972.89-189-828.35-391,48.24-212.29,41.19-301.54,66.07-285,354.91-121.75S1475.65,431.18,1688.44,678.42Z" transform="translate(-574.87 -608.13)" fill="url(#linear-gradient)"/><path d="M588.47,346.46H793.12a40.42,40.42,0,0,1,40.42,40.42v651.37a0,0,0,0,1,0,0H548a0,0,0,0,1,0,0V386.89a40.42,40.42,0,0,1,40.42-40.42Z" fill="#e05c12"/><path d="M515.94,346.46H720.6A40.42,40.42,0,0,1,761,386.89v651.37a0,0,0,0,1,0,0H475.52a0,0,0,0,1,0,0V386.89A40.42,40.42,0,0,1,515.94,346.46Z" fill="#f1884d"/><path d="M1069.53,1084.45a3,3,0,0,1-3-3v-49.09c0-26.51,16.24-48.09,36.2-48.09h54.83a3.05,3.05,0,0,1,0,6.1h-54.83c-16.6,0-30.1,18.84-30.1,42v49.09A3.06,3.06,0,0,1,1069.53,1084.45Z" transform="translate(-574.87 -608.13)" fill="url(#linear-gradient-2)"/><path d="M1069.53,1136.49a3,3,0,0,1-3-3v-20a3,3,0,1,1,6.1,0v20A3.06,3.06,0,0,1,1069.53,1136.49Z" transform="translate(-574.87 -608.13)" fill="url(#linear-gradient-3)"/><path d="M298.35,549.64H463.51a40.42,40.42,0,0,1,40.42,40.42v448.19a0,0,0,0,1,0,0h-246a0,0,0,0,1,0,0V590.06A40.42,40.42,0,0,1,298.35,549.64Z" fill="#000918"/><path d="M225.82,549.64H391a40.42,40.42,0,0,1,40.42,40.42v448.19a0,0,0,0,1,0,0h-246a0,0,0,0,1,0,0V590.06a40.42,40.42,0,0,1,40.42-40.42Z" fill="#001333"/><path d="M780.58,1297.59a3,3,0,0,1-3.05-3v-57.91c0-31,18.91-56.19,42.16-56.19h64.69a3,3,0,0,1,0,6.1H819.69c-19.88,0-36.06,22.47-36.06,50.09v57.91A3.06,3.06,0,0,1,780.58,1297.59Z" transform="translate(-574.87 -608.13)" fill="url(#linear-gradient-4)"/><path d="M780.58,1359a3,3,0,0,1-3.05-3v-23.59a3.05,3.05,0,1,1,6.1,0v23.59A3.06,3.06,0,0,1,780.58,1359Z" transform="translate(-574.87 -608.13)" fill="url(#linear-gradient-5)"/><path d="M1179,1312.81c2.63,39.54,13.25,282.3-118.77,333.21-4,1.54-8.81-2-8.88-6.51-.45-28.77,3.4-119.18,62-215.27,42.27-69.34,58.13-101.22,63.19-112.2C1177.06,1310.88,1178.9,1311.45,1179,1312.81Z" transform="translate(-574.87 -608.13)" fill="#91b3fa"/><path d="M1051.34,1643.58a4.06,4.06,0,0,1-3.36-6.35c69.19-102,105.2-236.14,106.14-244.19a4.07,4.07,0,0,1,8-1.13c.94,3.88-10.51,44.55-26.41,87.34-16.17,43.51-43.34,107-81,162.54A4.08,4.08,0,0,1,1051.34,1643.58Zm102.89-249.74h0Z" transform="translate(-574.87 -608.13)" fill="#dce5fe"/><path d="M1188.43,1501.6c-5.77,24.53-44.72,172.65-138.79,145.12-2.85-.84-5.26-5-4.45-7.73,5.13-17.2,24.63-69,80.23-100.18,40.12-22.53,56.28-34.45,61.58-38.73C1187.56,1499.62,1188.63,1500.76,1188.43,1501.6Z" transform="translate(-574.87 -608.13)" fill="#bdd0fb"/><path d="M1045.19,1643.06a4.07,4.07,0,0,1-1.74-7.75c62.37-29.52,109.59-91.1,112.73-96.77a4.07,4.07,0,0,1,7.91,1.5c-.26,5.6-51.86,71.71-117.16,102.62A4,4,0,0,1,1045.19,1643.06ZM1156,1539.66Zm0,0Z" transform="translate(-574.87 -608.13)" fill="#dce5fe"/><path d="M112.95,795.43H278.11a40.42,40.42,0,0,1,40.42,40.42v202.4a0,0,0,0,1,0,0h-246a0,0,0,0,1,0,0V835.86A40.42,40.42,0,0,1,112.95,795.43Z" fill="#e05c12"/><path d="M40.42,795.43H205.59A40.42,40.42,0,0,1,246,835.86v202.4a0,0,0,0,1,0,0H0a0,0,0,0,1,0,0V835.86A40.42,40.42,0,0,1,40.42,795.43Z" fill="#f1884d"/><path d="M592.36,1539.38a3,3,0,0,1-3.05-3.05v-57.9c0-31,18.91-56.19,42.16-56.19h64.69a3,3,0,1,1,0,6.1H631.47c-19.88,0-36.06,22.47-36.06,50.09v57.9A3,3,0,0,1,592.36,1539.38Z" transform="translate(-574.87 -608.13)" fill="url(#linear-gradient-6)"/><path d="M592.36,1600.78a3,3,0,0,1-3.05-3v-23.59a3,3,0,1,1,6.1,0v23.59A3,3,0,0,1,592.36,1600.78Z" transform="translate(-574.87 -608.13)" fill="url(#linear-gradient-7)"/><path d="M904.81,549.64H1070a40.42,40.42,0,0,1,40.42,40.42v448.19a0,0,0,0,1,0,0h-246a0,0,0,0,1,0,0V590.06A40.42,40.42,0,0,1,904.81,549.64Z" fill="#000918"/><path d="M832.29,549.64H997.45a40.42,40.42,0,0,1,40.42,40.42v448.19a0,0,0,0,1,0,0h-246a0,0,0,0,1,0,0V590.06a40.42,40.42,0,0,1,40.42-40.42Z" fill="#001333"/><path d="M1387,1297.59a3,3,0,0,1-3-3v-57.91c0-31,18.91-56.19,42.16-56.19h64.69a3.05,3.05,0,1,1,0,6.1h-64.69c-19.88,0-36.06,22.47-36.06,50.09v57.91A3.06,3.06,0,0,1,1387,1297.59Z" transform="translate(-574.87 -608.13)" fill="url(#linear-gradient-8)"/><path d="M1387,1359a3,3,0,0,1-3-3v-23.59a3,3,0,0,1,6.1,0v23.59A3.06,3.06,0,0,1,1387,1359Z" transform="translate(-574.87 -608.13)" fill="url(#linear-gradient-9)"/><path d="M1457.83,1330.06c.06-2.9,3-3.77,3.9-1.16,9.13,25.22,34.6,90.34,64.26,120.82,48.29,49.64,88.25,139.93,69.41,196.67C1595.4,1646.39,1451.12,1646.69,1457.83,1330.06Z" transform="translate(-574.87 -608.13)" fill="#91b3fa"/><path d="M1468.25,1366.84c.7,2.54,1.64,5.45,2.49,8.16l2.62,8.25c1.79,5.5,3.6,11,5.48,16.44q5.57,16.43,11.49,32.69c8,21.67,16.29,43.2,25.43,64.37,4.58,10.58,9.25,21.12,14.26,31.49,2.46,5.21,5,10.36,7.57,15.53s5.26,10.24,8,15.3c5.45,10.13,11.15,20.14,17.34,29.84a340.49,340.49,0,0,0,19.77,28.3v0a1,1,0,0,1-.18,1.42,1,1,0,0,1-1.37-.11c-15.67-17.22-28.86-36.61-40.36-56.81q-8.7-15.12-16.29-30.83c-5.09-10.45-10-21-14.45-31.71-9.13-21.36-17.28-43.11-24.63-65.11-3.7-11-7.13-22.07-10.38-33.2q-2.4-8.36-4.65-16.76c-1.51-5.65-2.94-11.09-4.18-17a1,1,0,0,1,2-.48Z" transform="translate(-574.87 -608.13)" fill="#dce5fe"/><path d="M1119.58,795.43h165.16a40.42,40.42,0,0,1,40.42,40.42v202.4a0,0,0,0,1,0,0h-246a0,0,0,0,1,0,0V835.86A40.42,40.42,0,0,1,1119.58,795.43Z" fill="#e05c12"/><path d="M1047.06,795.43h165.16a40.42,40.42,0,0,1,40.42,40.42v202.4a0,0,0,0,1,0,0h-246a0,0,0,0,1,0,0V835.86A40.42,40.42,0,0,1,1047.06,795.43Z" fill="#f1884d"/><path d="M1599,1539.38a3,3,0,0,1-3-3.05v-57.9c0-31,18.91-56.19,42.16-56.19h64.69a3,3,0,0,1,0,6.1H1638.1c-19.88,0-36.06,22.47-36.06,50.09v57.9A3,3,0,0,1,1599,1539.38Z" transform="translate(-574.87 -608.13)" fill="url(#linear-gradient-10)"/><path d="M1599,1600.78a3,3,0,0,1-3-3v-23.59a3,3,0,1,1,6.1,0v23.59A3,3,0,0,1,1599,1600.78Z" transform="translate(-574.87 -608.13)" fill="url(#linear-gradient-11)"/><path d="M1599.39,1644.55s-7.36-51.49-50-83.78c-39.56-30-135.91-96.54-162.76-148.35-1.19-2.29-3.91.11-3.55,3.15,3.9,32.55,18.08,111.66,66.89,170.74C1512.92,1662.48,1599.39,1644.55,1599.39,1644.55Z" transform="translate(-574.87 -608.13)" fill="#bdd0fb"/><path d="M1407.18,1463.08a184,184,0,0,0,13.24,29.46c1.28,2.36,2.57,4.7,4,7s2.75,4.59,4.27,6.79,2.89,4.5,4.48,6.64l4.75,6.44a215.24,215.24,0,0,0,21.34,23.69,35.62,35.62,0,0,0,2.92,2.71l3,2.62,3,2.62a36.67,36.67,0,0,0,3.07,2.52c4.28,3.18,8.29,6.57,12.79,9.6l6.61,4.67,6.68,4.55c4.44,3,8.94,6,13.43,9s9,5.89,13.61,8.76l13.7,8.71c4.59,2.87,9.18,5.77,13.72,8.76,2.28,1.49,4.57,3,6.82,4.51s4.52,3.07,6.72,4.7a137.94,137.94,0,0,1,12.84,10.37,74.66,74.66,0,0,1,10.8,12.55,1,1,0,0,1-1.62,1.24l0,0a82,82,0,0,0-11.53-11c-4.26-3.21-8.61-6.3-13.2-9.09-9.08-5.71-18.58-10.9-27.94-16.38a649.6,649.6,0,0,1-55.14-35c-4.48-3-8.84-6.55-13.19-10-1.1-.83-2.14-1.74-3.16-2.68l-3.07-2.78-3.08-2.79a40.38,40.38,0,0,1-3-2.87l-5.77-6c-1.94-2-3.6-4.19-5.41-6.27s-3.57-4.21-5.17-6.46-3.34-4.39-4.9-6.66a182.18,182.18,0,0,1-16-28.78c-4.37-10-8-20.44-9.83-31.21a.11.11,0,0,1,.1-.14A.13.13,0,0,1,1407.18,1463.08Z" transform="translate(-574.87 -608.13)" fill="#dce5fe"/></g></svg>