<svg id="Layer_1" data-name="Layer 1" xmlns="http://www.w3.org/2000/svg" viewBox="0 0 50 49.92"><path d="M0,25a25,25,0,0,1,25-25H25A25,25,0,0,1,50,25h0A25,25,0,0,1,25,50H25A25,25,0,0,1,0,25Z" transform="translate(0 -0.08)" fill="#f1884d" fill-rule="evenodd"/><path d="M24.84,24.15a9.06,9.06,0,0,1,9.06,9.06v.12H15.77v-.12a9.07,9.07,0,0,1,9.07-9.06Z" transform="translate(0 -0.08)" fill="#fff" fill-rule="evenodd"/><path d="M20,19.43a4.92,4.92,0,0,1,4.92-4.92h0a4.92,4.92,0,0,1,4.92,4.92v.16a4.92,4.92,0,0,1-4.92,4.92h0A4.92,4.92,0,0,1,20,19.59Z" transform="translate(0 -0.08)" fill="#fff" fill-rule="evenodd"/><path d="M20,19.43a4.92,4.92,0,0,1,4.92-4.92h0a4.92,4.92,0,0,1,4.92,4.92v.16a4.92,4.92,0,0,1-4.92,4.92h0A4.92,4.92,0,0,1,20,19.59Z" transform="translate(0 -0.08)" fill="none" stroke="#f1884d" stroke-miterlimit="8" stroke-width="1.5"/></svg>