<svg id="Layer_1" data-name="Layer 1" xmlns="http://www.w3.org/2000/svg" viewBox="0 0 50 50"><circle cx="25" cy="25" r="25" fill="#001333"/><path d="M19.21,22.91H30.79A1.07,1.07,0,0,1,31.86,24v8a1.07,1.07,0,0,1-1.07,1.07H27.44a.6.6,0,0,0,.61-.6V27.91a.6.6,0,0,0-.61-.6H22.56a.6.6,0,0,0-.61.6v4.54a.6.6,0,0,0,.61.6H19.21A1.07,1.07,0,0,1,18.14,32V24a1.07,1.07,0,0,1,1.07-1.07Z" fill="#fff" fill-rule="evenodd"/><polygon points="25.04 16.95 18.44 23.34 31.71 23.36 25.04 16.95 25.04 16.95 25.04 16.95" fill="#fff" fill-rule="evenodd"/></svg>