<svg id="Layer_1" data-name="Layer 1" xmlns="http://www.w3.org/2000/svg" viewBox="0 0 102.89 62.7"><path d="M20.55,40.11A10.3,10.3,0,0,1,30.86,50.4V62.31H10.24V50.4A10.3,10.3,0,0,1,20.55,40.11Zm56.9-17.28A10.3,10.3,0,0,1,87.76,33.12V62.31H67.14V33.12A10.3,10.3,0,0,1,77.45,22.83ZM49.21,2.91a10.3,10.3,0,0,1,10.31,10.3v49.1H38.9V13.21A10.31,10.31,0,0,1,49.21,2.91Z" transform="translate(2.45 -1.41)" fill="none" stroke="#fff" stroke-miterlimit="8" stroke-width="3"/><line y1="61.2" x2="102.89" y2="61.2" fill="none" stroke="#fff" stroke-miterlimit="8" stroke-width="3"/></svg>