<svg id="Layer_1" data-name="Layer 1" xmlns="http://www.w3.org/2000/svg" xmlns:xlink="http://www.w3.org/1999/xlink" viewBox="0 0 47.58 33.79"><defs><clipPath id="clip-path" transform="translate(-1.72 -7.72)"><polygon points="0 44.59 50.32 44.59 50.32 6 0 6 0 44.59 0 44.59" fill="none" clip-rule="evenodd"/></clipPath><clipPath id="clip-path-2" transform="translate(-1.72 -7.72)"><polygon points="1 44.59 51.32 44.59 51.32 6 1 6 1 44.59 1 44.59" fill="none" clip-rule="evenodd"/></clipPath></defs><path d="M29,34.71a14.32,14.32,0,0,1-20.56.86,15.13,15.13,0,0,1-.85-21,14.33,14.33,0,0,1,20.57-.87l.16.15" transform="translate(-1.72 -7.72)" fill="none" stroke="#001333" stroke-linecap="round" stroke-linejoin="round" stroke-width="4"/><g clip-path="url(#clip-path)"><line x1="28.63" y1="15.99" x2="45.65" y2="15.99" fill="none" stroke="#001333" stroke-linecap="round" stroke-linejoin="round" stroke-width="3"/><g clip-path="url(#clip-path-2)"><line x1="38.2" y1="9" x2="46.08" y2="15.92" fill="none" stroke="#001333" stroke-linecap="round" stroke-linejoin="round" stroke-width="3"/><g clip-path="url(#clip-path-2)"><line x1="46.08" y1="16.67" x2="38.2" y2="23.59" fill="none" stroke="#001333" stroke-linecap="round" stroke-linejoin="round" stroke-width="3"/></g></g></g></svg>